<?xml version="1.0" encoding="utf-8"?>
<!-- Generator: Adobe Illustrator 27.5.0, SVG Export Plug-In . SVG Version: 6.00 Build 0)  -->
<svg version="1.1" xmlns="http://www.w3.org/2000/svg" xmlns:xlink="http://www.w3.org/1999/xlink" x="0px" y="0px"
	 viewBox="0 0 500 500" style="enable-background:new 0 0 500 500;" xml:space="preserve">
<g id="BACKGROUND">
	<rect style="fill:#F1F2F2;" width="500" height="500"/>
</g>
<g id="OBJECTS">
	<g>
		<g>
			<linearGradient id="SVGID_1_" gradientUnits="userSpaceOnUse" x1="101.6784" y1="194.9794" x2="101.6784" y2="73.298">
				<stop  offset="0" style="stop-color:#DF1861"/>
				<stop  offset="1" style="stop-color:#FCCF00"/>
			</linearGradient>
			<path style="fill:url(#SVGID_1_);" d="M101.678,73.298c-33.601,0-60.841,27.239-60.841,60.841
				c0,33.602,27.239,60.841,60.841,60.841s60.841-27.239,60.841-60.841C162.519,100.537,135.28,73.298,101.678,73.298z
				 M123.126,166.873c-18.078,0-32.734-14.656-32.734-32.734s14.656-32.734,32.734-32.734c18.079,0,32.734,14.655,32.734,32.734
				S141.204,166.873,123.126,166.873z"/>
			
				<linearGradient id="SVGID_00000096018787456184553330000002880343140197080491_" gradientUnits="userSpaceOnUse" x1="106.9952" y1="189.6627" x2="106.9952" y2="78.6147">
				<stop  offset="0" style="stop-color:#DF1861"/>
				<stop  offset="1" style="stop-color:#FCCF00"/>
			</linearGradient>
			<path style="opacity:0.4;fill:url(#SVGID_00000096018787456184553330000002880343140197080491_);" d="M106.995,78.615
				c-30.665,0-55.524,24.859-55.524,55.524c0,30.665,24.859,55.524,55.524,55.524s55.524-24.859,55.524-55.524
				C162.519,103.474,137.66,78.615,106.995,78.615z M122.04,175.334c-22.325,0-40.423-18.098-40.423-40.423
				s18.098-40.423,40.423-40.423s40.423,18.098,40.423,40.423S144.365,175.334,122.04,175.334z"/>
			
				<linearGradient id="SVGID_00000176757090742487594990000013742494789602596250_" gradientUnits="userSpaceOnUse" x1="101.6784" y1="194.9794" x2="101.6784" y2="73.298">
				<stop  offset="0" style="stop-color:#3A58AE"/>
				<stop  offset="1" style="stop-color:#3FC0E0"/>
			</linearGradient>
			<path style="fill:url(#SVGID_00000176757090742487594990000013742494789602596250_);" d="M101.678,73.298
				c-33.601,0-60.841,27.239-60.841,60.841c0,33.602,27.239,60.841,60.841,60.841s60.841-27.239,60.841-60.841
				C162.519,100.537,135.28,73.298,101.678,73.298z M118.164,179.279c-24.463,0-44.294-19.831-44.294-44.294
				c0-24.463,19.831-44.294,44.294-44.294c24.463,0,44.294,19.831,44.294,44.294C162.458,159.448,142.627,179.279,118.164,179.279z"
				/>
			
				<linearGradient id="SVGID_00000008864690004629746870000002835484620500447876_" gradientUnits="userSpaceOnUse" x1="105.6134" y1="191.0445" x2="105.6134" y2="77.2329">
				<stop  offset="0" style="stop-color:#3FC0E0"/>
				<stop  offset="1" style="stop-color:#3A58AE"/>
			</linearGradient>
			<path style="opacity:0.4;fill:url(#SVGID_00000008864690004629746870000002835484620500447876_);" d="M105.613,77.233
				c-31.428,0-56.906,25.478-56.906,56.906s25.478,56.906,56.906,56.906c31.428,0,56.906-25.478,56.906-56.906
				S137.042,77.233,105.613,77.233z M112.227,185.165c-27.744,0-50.234-22.491-50.234-50.234s22.491-50.234,50.234-50.234
				s50.234,22.491,50.234,50.234S139.971,185.165,112.227,185.165z"/>
			
				<linearGradient id="SVGID_00000128472175002886307760000001657193547339315855_" gradientUnits="userSpaceOnUse" x1="101.6784" y1="194.9794" x2="101.6784" y2="73.298">
				<stop  offset="0" style="stop-color:#100C6D"/>
				<stop  offset="1" style="stop-color:#D60469"/>
			</linearGradient>
			<path style="fill:url(#SVGID_00000128472175002886307760000001657193547339315855_);" d="M101.678,73.298
				c-33.601,0-60.841,27.239-60.841,60.841c0,33.602,27.239,60.841,60.841,60.841s60.841-27.239,60.841-60.841
				C162.519,100.537,135.28,73.298,101.678,73.298z M108.75,188.693c-29.662,0-53.708-24.046-53.708-53.708
				s24.046-53.708,53.708-53.708c29.662,0,53.708,24.046,53.708,53.708S138.412,188.693,108.75,188.693z"/>
		</g>
		<g>
			<g>
				
					<text transform="matrix(1 0 0 1 39.5766 220.3408)" style="fill:#282626; font-family:'Montserrat-Bold'; font-size:13.8052px;">COMPANY NAME</text>
			</g>
			<g>
				
					<text transform="matrix(1 0 0 1 65.3601 231.8663)" style="fill:#686868; font-family:'Montserrat-Light'; font-size:9.6426px;">TAGLINE HERE</text>
			</g>
		</g>
	</g>
	<g>
		<g>
			<g>
				
					<linearGradient id="SVGID_00000056403133283202304110000010066727619088402865_" gradientUnits="userSpaceOnUse" x1="189.1594" y1="323.8557" x2="310.8408" y2="323.8557">
					<stop  offset="0" style="stop-color:#100C6D"/>
					<stop  offset="1" style="stop-color:#D60469"/>
				</linearGradient>
				<path style="fill:url(#SVGID_00000056403133283202304110000010066727619088402865_);" d="M250,263.015
					c-33.548,0-60.841,27.293-60.841,60.841s27.293,60.841,60.841,60.841s60.84-27.293,60.84-60.841S283.548,263.015,250,263.015z
					 M250,374.561c-27.96,0-50.706-22.746-50.706-50.705c0-27.959,22.746-50.706,50.706-50.706
					c27.959,0,50.705,22.746,50.705,50.706C300.706,351.815,277.959,374.561,250,374.561z"/>
				
					<linearGradient id="SVGID_00000013178455140113135750000008842793263213297316_" gradientUnits="userSpaceOnUse" x1="202.5937" y1="323.856" x2="284.8208" y2="323.856">
					<stop  offset="0" style="stop-color:#3A58AE"/>
					<stop  offset="1" style="stop-color:#3FC0E0"/>
				</linearGradient>
				<path style="fill:url(#SVGID_00000013178455140113135750000008842793263213297316_);" d="M243.707,282.742
					c-22.67,0-41.114,18.444-41.114,41.114c0,22.67,18.444,41.114,41.114,41.114s41.113-18.443,41.113-41.114
					C284.821,301.186,266.378,282.742,243.707,282.742z M243.707,354.835c-17.082,0-30.979-13.897-30.979-30.979
					c0-17.082,13.897-30.979,30.979-30.979c17.081,0,30.978,13.897,30.978,30.979C274.686,340.938,260.789,354.835,243.707,354.835z
					"/>
				
					<linearGradient id="SVGID_00000097475425197432917720000016299678035925556665_" gradientUnits="userSpaceOnUse" x1="215.5262" y1="323.856" x2="259.7816" y2="323.856">
					<stop  offset="0" style="stop-color:#DF1861"/>
					<stop  offset="1" style="stop-color:#FCCF00"/>
				</linearGradient>
				<path style="fill:url(#SVGID_00000097475425197432917720000016299678035925556665_);" d="M237.654,301.728
					c-12.201,0-22.128,9.926-22.128,22.128c0,12.201,9.926,22.128,22.128,22.128c12.201,0,22.128-9.927,22.128-22.128
					C259.782,311.655,249.855,301.728,237.654,301.728z M237.654,335.849c-6.613,0-11.992-5.38-11.992-11.993
					c0-6.613,5.38-11.993,11.992-11.993c6.613,0,11.993,5.38,11.993,11.993C249.646,330.468,244.267,335.849,237.654,335.849z"/>
			</g>
			<g style="opacity:0.4;">
				
					<linearGradient id="SVGID_00000006686466795760782540000001436572423500777388_" gradientUnits="userSpaceOnUse" x1="252.5731" y1="323.8557" x2="305.8514" y2="323.8557">
					<stop  offset="0" style="stop-color:#3FC0E0"/>
					<stop  offset="1" style="stop-color:#1C0D6D"/>
				</linearGradient>
				<path style="fill:url(#SVGID_00000006686466795760782540000001436572423500777388_);" d="M252.573,374.496
					c0.852,0.043,1.71,0.065,2.573,0.065c27.959,0,50.705-22.746,50.705-50.705c0-27.959-22.746-50.706-50.705-50.706
					c-0.863,0-1.721,0.022-2.573,0.065c26.768,1.345,48.133,23.544,48.133,50.641C300.706,350.952,279.341,373.152,252.573,374.496z
					"/>
				
					<linearGradient id="SVGID_00000111171042503017831270000018414168497942828690_" gradientUnits="userSpaceOnUse" x1="189.1594" y1="323.8557" x2="252.5731" y2="323.8557">
					<stop  offset="0" style="stop-color:#3FC0E0"/>
					<stop  offset="1" style="stop-color:#1C0D6D"/>
				</linearGradient>
				<path style="fill:url(#SVGID_00000111171042503017831270000018414168497942828690_);" d="M194.305,323.856
					c0-32.685,25.91-59.421,58.268-60.776c-0.854-0.036-1.71-0.065-2.573-0.065c-33.548,0-60.841,27.293-60.841,60.841
					c0,33.548,27.293,60.841,60.841,60.841c0.863,0,1.719-0.03,2.573-0.065C220.215,383.277,194.305,356.541,194.305,323.856z"/>
			</g>
			<g style="opacity:0.4;">
				
					<linearGradient id="SVGID_00000093857813891006491200000015556065794493448835_" gradientUnits="userSpaceOnUse" x1="246.2804" y1="323.8559" x2="279.8314" y2="323.8559">
					<stop  offset="0" style="stop-color:#3FC0E0"/>
					<stop  offset="1" style="stop-color:#3A58AE"/>
				</linearGradient>
				<path style="fill:url(#SVGID_00000093857813891006491200000015556065794493448835_);" d="M246.28,354.719
					c0.849,0.07,1.706,0.115,2.573,0.115c17.081,0,30.978-13.897,30.978-30.979c0-17.082-13.897-30.979-30.978-30.979
					c-0.867,0-1.723,0.045-2.573,0.115c15.881,1.313,28.405,14.649,28.405,30.863C274.686,340.07,262.161,353.406,246.28,354.719z"
					/>
				
					<linearGradient id="SVGID_00000047042190867569635920000000827222919197380758_" gradientUnits="userSpaceOnUse" x1="202.5937" y1="323.8559" x2="246.2804" y2="323.8559">
					<stop  offset="0" style="stop-color:#3FC0E0"/>
					<stop  offset="1" style="stop-color:#3A58AE"/>
				</linearGradient>
				<path style="fill:url(#SVGID_00000047042190867569635920000000827222919197380758_);" d="M207.739,323.856
					c0-21.805,17.066-39.691,38.541-41.025c-0.852-0.053-1.708-0.089-2.573-0.089c-22.67,0-41.114,18.444-41.114,41.114
					c0,22.67,18.444,41.114,41.114,41.114c0.865,0,1.721-0.036,2.573-0.089C224.805,363.547,207.739,345.661,207.739,323.856z"/>
			</g>
			<g style="opacity:0.4;">
				
					<linearGradient id="SVGID_00000088126100519609403490000015974923624310150562_" gradientUnits="userSpaceOnUse" x1="240.2268" y1="323.8559" x2="254.7923" y2="323.8559">
					<stop  offset="0" style="stop-color:#DF1861"/>
					<stop  offset="1" style="stop-color:#FCCF00"/>
				</linearGradient>
				<path style="fill:url(#SVGID_00000088126100519609403490000015974923624310150562_);" d="M240.227,335.564
					c0.83,0.182,1.689,0.285,2.573,0.285c6.613,0,11.993-5.38,11.993-11.993c0-6.613-5.38-11.993-11.993-11.993
					c-0.884,0-1.743,0.103-2.573,0.285c5.379,1.182,9.42,5.978,9.42,11.708C249.646,329.585,245.606,334.382,240.227,335.564z"/>
				
					<linearGradient id="SVGID_00000142165887157684829680000009516694037785589171_" gradientUnits="userSpaceOnUse" x1="215.5261" y1="323.856" x2="240.2268" y2="323.856">
					<stop  offset="0" style="stop-color:#DF1861"/>
					<stop  offset="1" style="stop-color:#FCCF00"/>
				</linearGradient>
				<path style="fill:url(#SVGID_00000142165887157684829680000009516694037785589171_);" d="M220.672,323.856
					c0-11.331,8.562-20.694,19.555-21.973c-0.845-0.098-1.702-0.154-2.573-0.154c-12.201,0-22.128,9.926-22.128,22.128
					c0,12.201,9.926,22.128,22.128,22.128c0.871,0,1.728-0.056,2.573-0.154C229.234,344.55,220.672,335.186,220.672,323.856z"/>
			</g>
		</g>
		<g>
			<g>
				<text transform="matrix(1 0 0 1 187.8982 412.66)" style="fill:#282626; font-family:'Montserrat-Bold'; font-size:13.8052px;">COMPANY NAME</text>
			</g>
			<g>
				
					<text transform="matrix(1 0 0 1 213.6816 424.1855)" style="fill:#686868; font-family:'Montserrat-Light'; font-size:9.6426px;">TAGLINE HERE</text>
			</g>
		</g>
	</g>
	<g>
		<g>
			<g>
				
					<text transform="matrix(1 0 0 1 336.2199 220.3408)" style="fill:#282626; font-family:'Montserrat-Bold'; font-size:13.8052px;">COMPANY NAME</text>
			</g>
			<g>
				
					<text transform="matrix(1 0 0 1 362.0033 231.8663)" style="fill:#686868; font-family:'Montserrat-Light'; font-size:9.6426px;">TAGLINE HERE</text>
			</g>
		</g>
		<g>
			<g>
				
					<linearGradient id="SVGID_00000154402718976996426350000006710259750547903889_" gradientUnits="userSpaceOnUse" x1="379.6239" y1="174.4592" x2="412.1358" y2="105.2404">
					<stop  offset="0" style="stop-color:#DF1861"/>
					<stop  offset="1" style="stop-color:#FCCF00"/>
				</linearGradient>
				<path style="fill:url(#SVGID_00000154402718976996426350000006710259750547903889_);" d="M398.322,73.298
					c-33.884,0-61.353,27.469-61.353,61.353c0,33.884,27.469,61.353,61.353,61.353s61.353-27.469,61.353-61.353
					C459.675,100.767,432.206,73.298,398.322,73.298z M398.322,163.703c-16.045,0-29.052-13.007-29.052-29.052
					c0-16.045,13.007-29.052,29.052-29.052c16.045,0,29.052,13.007,29.052,29.052C427.374,150.696,414.367,163.703,398.322,163.703z
					"/>
				
					<linearGradient id="SVGID_00000129913045584931382180000003520056893118806454_" gradientUnits="userSpaceOnUse" x1="337.3458" y1="147.5658" x2="459.2976" y2="147.5658">
					<stop  offset="0" style="stop-color:#DF1861"/>
					<stop  offset="1" style="stop-color:#FCCF00"/>
				</linearGradient>
				<path style="opacity:0.4;fill:url(#SVGID_00000129913045584931382180000003520056893118806454_);" d="M398.322,99.128
					c-27.92,0-51.727,17.581-60.976,42.272c3.361,30.708,29.373,54.604,60.976,54.604s57.615-23.897,60.976-54.604
					C450.048,116.708,426.242,99.128,398.322,99.128z M398.322,195.057c-17.026,0-30.827-13.802-30.827-30.827
					c0-6.106,1.783-11.793,4.845-16.582c-1.96-3.912-3.07-8.323-3.07-12.997c0-16.045,13.007-29.052,29.052-29.052
					c16.045,0,29.052,13.007,29.052,29.052c0,4.673-1.11,9.085-3.07,12.997c3.063,4.789,4.846,10.476,4.846,16.582
					C429.149,181.255,415.347,195.057,398.322,195.057z"/>
				
					<linearGradient id="SVGID_00000080180447301419864980000002171201733849746607_" gradientUnits="userSpaceOnUse" x1="384.0787" y1="181.1251" x2="408.8445" y2="128.3979">
					<stop  offset="0" style="stop-color:#3A58AE"/>
					<stop  offset="1" style="stop-color:#3FC0E0"/>
				</linearGradient>
				<path style="fill:url(#SVGID_00000080180447301419864980000002171201733849746607_);" d="M398.322,105.599
					c16.045,0,29.052,13.007,29.052,29.052c0,16.045-13.007,29.052-29.052,29.052c-16.045,0-29.052-13.007-29.052-29.052
					C369.27,118.606,382.276,105.599,398.322,105.599c-28.293,0-52.098,19.157-59.189,45.203
					c7.091,26.046,30.897,45.203,59.189,45.203s52.098-19.157,59.189-45.203C450.42,124.756,426.614,105.599,398.322,105.599z"/>
				
					<linearGradient id="SVGID_00000082362898441809317370000006372368959933107864_" gradientUnits="userSpaceOnUse" x1="392.091" y1="193.1189" x2="402.9249" y2="170.0533">
					<stop  offset="0" style="stop-color:#100C6D"/>
					<stop  offset="1" style="stop-color:#D60469"/>
				</linearGradient>
				<path style="fill:url(#SVGID_00000082362898441809317370000006372368959933107864_);" d="M398.322,163.703
					c-15.994,0-30.554,6.125-41.475,16.15c10.921,10.026,25.481,16.15,41.475,16.15c15.994,0,30.554-6.124,41.475-16.15
					C428.875,169.828,414.315,163.703,398.322,163.703z"/>
				<path style="opacity:0.4;fill:#4E096C;" d="M443.92,175.667c-8.968-7.623-19.863-13.042-31.858-15.415
					c-4.091,2.2-8.769,3.451-13.74,3.451c-4.971,0-9.649-1.251-13.74-3.451c-11.995,2.373-22.89,7.792-31.858,15.415
					c10.639,11.827,25.802,19.5,42.774,20.269c0.938,0.037,1.877,0.067,2.824,0.067c0.947,0,1.886-0.03,2.824-0.067
					C418.118,195.167,433.28,187.495,443.92,175.667z"/>
			</g>
			<g style="opacity:0.45;">
				<path style="fill:#FFFFFF;" d="M450.818,120.945c-1.531-4.44-3.461-8.69-5.877-12.639l-1.891-2.905
					c-0.676-0.935-1.403-1.833-2.099-2.749c-0.672-0.935-1.487-1.756-2.241-2.623l-1.147-1.286c-0.39-0.421-0.825-0.799-1.235-1.201
					c-0.847-0.775-1.624-1.623-2.524-2.335l-2.651-2.185c-1.866-1.324-3.704-2.692-5.718-3.782
					c-3.943-2.288-8.135-4.203-12.551-5.367c-1.08-0.375-2.2-0.594-3.314-0.839c-1.116-0.234-2.221-0.536-3.359-0.643l-3.395-0.447
					l-3.423-0.171c-4.572-0.238-9.153,0.305-13.644,1.222c-8.97,1.976-17.455,6.211-24.666,12.213
					c6.415-6.86,14.916-11.877,24.154-14.326c9.243-2.466,19.177-2.297,28.415,0.313c4.633,1.281,9.043,3.302,13.136,5.786
					c2.077,1.204,3.968,2.688,5.876,4.129l2.699,2.366c0.901,0.786,1.675,1.707,2.516,2.552c3.238,3.502,6.086,7.375,8.246,11.607
					C448.268,111.869,449.881,116.345,450.818,120.945z"/>
			</g>
		</g>
	</g>
	<g>
		<g>
			<g>
				<text transform="matrix(1 0 0 1 336.2199 412.66)" style="fill:#282626; font-family:'Montserrat-Bold'; font-size:13.8052px;">COMPANY NAME</text>
			</g>
			<g>
				
					<text transform="matrix(1 0 0 1 362.0033 424.1855)" style="fill:#686868; font-family:'Montserrat-Light'; font-size:9.6426px;">TAGLINE HERE</text>
			</g>
		</g>
		<g>
			
				<linearGradient id="SVGID_00000115516268615543139560000008444154502573110937_" gradientUnits="userSpaceOnUse" x1="379.6239" y1="364.1763" x2="412.1358" y2="294.9575">
				<stop  offset="0" style="stop-color:#DF1861"/>
				<stop  offset="1" style="stop-color:#FCCF00"/>
			</linearGradient>
			<path style="fill:url(#SVGID_00000115516268615543139560000008444154502573110937_);" d="M398.322,263.015
				c-33.884,0-61.353,27.469-61.353,61.353c0,33.884,27.469,61.353,61.353,61.353c33.884,0,61.353-27.469,61.353-61.353
				C459.675,290.484,432.206,263.015,398.322,263.015z M398.322,353.42c-16.045,0-29.052-13.007-29.052-29.052
				s13.007-29.052,29.052-29.052s29.052,13.007,29.052,29.052S414.367,353.42,398.322,353.42z"/>
			
				<linearGradient id="SVGID_00000097463251602465735490000000780989758303360700_" gradientUnits="userSpaceOnUse" x1="389.4286" y1="361.7756" x2="419.9799" y2="296.7311">
				<stop  offset="0" style="stop-color:#DF1861"/>
				<stop  offset="1" style="stop-color:#F08527"/>
			</linearGradient>
			<path style="opacity:0.4;fill:url(#SVGID_00000097463251602465735490000000780989758303360700_);" d="M406.999,263.637
				c-29.773,4.217-52.676,29.793-52.676,60.731s22.903,56.514,52.676,60.731c29.773-4.217,52.676-29.793,52.676-60.731
				S436.772,267.854,406.999,263.637z M415.676,353.42c-3.023,0-5.937-0.463-8.677-1.319c-2.74,0.856-5.654,1.319-8.677,1.319
				c-16.045,0-29.052-13.007-29.052-29.052c0-16.045,13.007-29.052,29.052-29.052c3.023,0,5.937,0.462,8.677,1.319
				c2.74-0.857,5.655-1.319,8.677-1.319c16.045,0,29.052,13.007,29.052,29.052C444.728,340.413,431.721,353.42,415.676,353.42z"/>
			
				<linearGradient id="SVGID_00000043449330253611457930000003203315758412352937_" gradientUnits="userSpaceOnUse" x1="363.2018" y1="324.368" x2="459.6748" y2="324.368">
				<stop  offset="0" style="stop-color:#100C6D"/>
				<stop  offset="1" style="stop-color:#D60469"/>
			</linearGradient>
			<path style="fill:url(#SVGID_00000043449330253611457930000003203315758412352937_);" d="M411.438,264.435
				c-27.579,6.009-48.237,30.552-48.237,59.933c0,29.381,20.657,53.924,48.237,59.933c27.579-6.009,48.236-30.552,48.236-59.933
				C459.675,294.987,439.018,270.444,411.438,264.435z M453.607,324.368c0,16.045-13.007,29.052-29.052,29.052
				c-4.721,0-9.175-1.133-13.117-3.132c-3.941,1.998-8.395,3.132-13.117,3.132c-16.045,0-29.052-13.007-29.052-29.052
				c0-16.045,13.007-29.052,29.052-29.052c4.721,0,9.175,1.133,13.117,3.132c3.941-1.999,8.395-3.132,13.117-3.132
				C440.6,295.316,453.607,308.323,453.607,324.368z"/>
		</g>
	</g>
	<g>
		<g>
			<g>
				<text transform="matrix(1 0 0 1 39.5766 412.66)" style="fill:#282626; font-family:'Montserrat-Bold'; font-size:13.8052px;">COMPANY NAME</text>
			</g>
			<g>
				
					<text transform="matrix(1 0 0 1 65.3601 424.1855)" style="fill:#686868; font-family:'Montserrat-Light'; font-size:9.6426px;">TAGLINE HERE</text>
			</g>
		</g>
		<g>
			
				<linearGradient id="SVGID_00000151502638257462405210000013420220292570161586_" gradientUnits="userSpaceOnUse" x1="117.2042" y1="355.7289" x2="142.8053" y2="301.2235">
				<stop  offset="0" style="stop-color:#100C6D"/>
				<stop  offset="1" style="stop-color:#D60469"/>
			</linearGradient>
			<path style="fill:url(#SVGID_00000151502638257462405210000013420220292570161586_);" d="M131.897,270.98
				c-10.259,5.82-18.672,14.504-24.155,24.974c13.134,2.789,22.989,14.449,22.989,28.414c0,13.965-9.855,25.625-22.989,28.414
				c5.483,10.47,13.896,19.154,24.155,24.974c18.586-10.543,31.134-30.494,31.134-53.388S150.483,281.523,131.897,270.98z"/>
			
				<linearGradient id="SVGID_00000149342743783861567770000008938842141092443270_" gradientUnits="userSpaceOnUse" x1="76.1683" y1="360.9814" x2="108.6718" y2="291.7803">
				<stop  offset="0" style="stop-color:#DF1861"/>
				<stop  offset="1" style="stop-color:#FCCF00"/>
			</linearGradient>
			<path style="fill:url(#SVGID_00000149342743783861567770000008938842141092443270_);" d="M97.086,353.056
				c-13.863-2.202-24.46-14.206-24.46-28.688c0-14.482,10.598-26.486,24.46-28.688c6.428-12.127,16.802-21.832,29.413-27.419
				c-7.591-3.363-15.984-5.246-24.821-5.246c-33.884,0-61.353,27.469-61.353,61.353c0,33.884,27.469,61.353,61.353,61.353
				c8.837,0,17.23-1.883,24.821-5.246C113.888,374.888,103.514,365.183,97.086,353.056z"/>
			
				<linearGradient id="SVGID_00000106866137353717751520000018046334444699778950_" gradientUnits="userSpaceOnUse" x1="109.3361" y1="350.0184" x2="128.5368" y2="309.1394">
				<stop  offset="0" style="stop-color:#FCCF00"/>
				<stop  offset="1" style="stop-color:#3E0B6C"/>
			</linearGradient>
			<path style="opacity:0.4;fill:url(#SVGID_00000106866137353717751520000018046334444699778950_);" d="M143.934,324.368
				c0-18.476-11.863-34.172-28.383-39.914c-3.014,3.512-5.643,7.364-7.809,11.5c13.134,2.789,22.989,14.449,22.989,28.414
				c0,13.965-9.855,25.625-22.989,28.414c2.166,4.136,4.796,7.988,7.809,11.5C132.072,358.54,143.934,342.844,143.934,324.368z"/>
			
				<linearGradient id="SVGID_00000072265586180184594980000001256184202975167901_" gradientUnits="userSpaceOnUse" x1="79.628" y1="347.8206" x2="101.4388" y2="301.3847">
				<stop  offset="0" style="stop-color:#DF1861"/>
				<stop  offset="1" style="stop-color:#F08527"/>
			</linearGradient>
			<path style="opacity:0.4;fill:url(#SVGID_00000072265586180184594980000001256184202975167901_);" d="M59.422,324.368
				c0,23.337,18.919,42.256,42.256,42.256c1.664,0,3.303-0.107,4.917-0.294c-3.725-3.968-6.938-8.423-9.509-13.275
				c-13.863-2.202-24.46-14.206-24.46-28.688c0-14.482,10.598-26.486,24.46-28.688c2.572-4.852,5.784-9.307,9.509-13.275
				c-1.614-0.187-3.253-0.294-4.917-0.294C78.341,282.112,59.422,301.031,59.422,324.368z"/>
		</g>
	</g>
	<g>
		<g>
			<g>
				
					<text transform="matrix(1 0 0 1 187.8982 220.3408)" style="fill:#282626; font-family:'Montserrat-Bold'; font-size:13.8052px;">COMPANY NAME</text>
			</g>
			<g>
				
					<text transform="matrix(1 0 0 1 213.6816 231.8663)" style="fill:#686868; font-family:'Montserrat-Light'; font-size:9.6426px;">TAGLINE HERE</text>
			</g>
		</g>
		<g>
			
				<linearGradient id="SVGID_00000062182897076477508980000014395530233732745374_" gradientUnits="userSpaceOnUse" x1="361.7099" y1="345.867" x2="361.7099" y2="223.5723" gradientTransform="matrix(-0.2869 -0.9579 0.9579 -0.2869 82.6255 562.3607)">
				<stop  offset="0" style="stop-color:#DF1861"/>
				<stop  offset="1" style="stop-color:#FCCF00"/>
			</linearGradient>
			<path style="fill:url(#SVGID_00000062182897076477508980000014395530233732745374_);" d="M191.227,152.272
				c9.723,32.459,43.918,50.891,76.378,41.168c32.46-9.723,50.891-43.918,41.168-76.378c-9.723-32.459-43.918-50.891-76.378-41.168
				C199.936,85.617,181.504,119.813,191.227,152.272z M277.831,126.331c4.604,15.37-4.124,31.563-19.494,36.167
				c-15.37,4.604-31.563-4.124-36.167-19.494c-4.604-15.37,4.124-31.563,19.494-36.167
				C257.034,102.232,273.227,110.96,277.831,126.331z"/>
			
				<linearGradient id="SVGID_00000032642873272195784340000015442298656084572570_" gradientUnits="userSpaceOnUse" x1="89.048" y1="287.4044" x2="190.0505" y2="287.4044" gradientTransform="matrix(-0.1399 0.9902 -0.9902 -0.1399 532.6871 37.3809)">
				<stop  offset="0" style="stop-color:#3A58AE"/>
				<stop  offset="1" style="stop-color:#3FC0E0"/>
			</linearGradient>
			<path style="fill:url(#SVGID_00000032642873272195784340000015442298656084572570_);" d="M213.904,184.28
				c-2.749-8.549-3.659-17.836-2.318-27.325c1.315-9.305,4.658-17.82,9.511-25.175c0,0,0,0,0,0c0.04-0.392,0.081-0.785,0.136-1.178
				c2.245-15.887,16.944-26.947,32.831-24.702c7.252,1.025,13.492,4.649,17.926,9.792c-8.945-16.551-25.353-28.79-45.411-31.624
				c-3.508-0.496-6.985-0.667-10.411-0.569c-14.136,9.355-24.36,24.479-26.918,42.584c-3.285,23.247,6.926,45.282,24.665,58.205
				C213.912,184.285,213.908,184.283,213.904,184.28z"/>
			
				<linearGradient id="SVGID_00000137104658635167467930000013271727493565931932_" gradientUnits="userSpaceOnUse" x1="111.31" y1="340.1163" x2="212.3191" y2="340.1163" gradientTransform="matrix(-0.5939 0.8045 -0.8045 -0.5939 600.551 196.8998)">
				<stop  offset="0" style="stop-color:#3FC0E0"/>
				<stop  offset="1" style="stop-color:#3A58AE"/>
			</linearGradient>
			<path style="opacity:0.4;fill:url(#SVGID_00000137104658635167467930000013271727493565931932_);" d="M194.654,161.148
				c1.647-8.828,5.263-17.43,10.954-25.14c5.581-7.56,12.572-13.462,20.338-17.624c0,0,0,0,0,0c0.221-0.326,0.444-0.652,0.68-0.972
				c9.529-12.909,27.719-15.649,40.628-6.119c5.892,4.35,9.658,10.506,11.113,17.138c0.001-18.814-8.613-37.382-24.911-49.413
				c-2.85-2.104-5.828-3.908-8.888-5.451c-16.884,1.507-33.07,9.951-43.929,24.661c-13.944,18.889-15.439,43.129-5.979,62.932
				C194.658,161.156,194.656,161.152,194.654,161.148z"/>
			
				<linearGradient id="SVGID_00000132769790546266183220000018417176466840910757_" gradientUnits="userSpaceOnUse" x1="127.488" y1="358.1151" x2="228.4896" y2="358.1151" gradientTransform="matrix(-0.7536 0.6574 -0.6574 -0.7536 602.9037 274.0373)">
				<stop  offset="0" style="stop-color:#3A58AE"/>
				<stop  offset="1" style="stop-color:#3FC0E0"/>
			</linearGradient>
			<path style="fill:url(#SVGID_00000132769790546266183220000018417176466840910757_);" d="M190.242,148.576
				c3.514-8.264,8.901-15.883,16.123-22.183c7.081-6.177,15.181-10.43,23.663-12.818c0,0,0,0,0,0
				c0.286-0.271,0.574-0.541,0.874-0.802c12.091-10.547,30.443-9.296,40.991,2.795c4.814,5.519,7.163,12.343,7.152,19.133
				c4.062-18.37-0.34-38.36-13.657-53.626c-2.329-2.67-4.847-5.074-7.502-7.241c-16.811-2.173-34.438,2.577-48.217,14.597
				c-17.693,15.434-24.385,38.779-19.423,60.158C190.245,148.585,190.244,148.581,190.242,148.576z"/>
			
				<linearGradient id="SVGID_00000039849237292913580390000010698557669062655668_" gradientUnits="userSpaceOnUse" x1="165.5521" y1="380.8468" x2="266.5601" y2="380.8468" gradientTransform="matrix(-0.9441 0.3296 -0.3296 -0.9441 569.0739 404.2874)">
				<stop  offset="0" style="stop-color:#3FC0E0"/>
				<stop  offset="1" style="stop-color:#3A58AE"/>
			</linearGradient>
			<path style="opacity:0.4;fill:url(#SVGID_00000039849237292913580390000010698557669062655668_);" d="M189.36,125.329
				c6.338-6.362,14.174-11.428,23.222-14.586c8.872-3.097,17.973-4.029,26.734-3.087c0,0,0,0,0,0
				c0.367-0.145,0.734-0.288,1.11-0.419c15.149-5.288,31.716,2.706,37.004,17.855c2.414,6.915,2.053,14.122-0.486,20.42
				c10.609-15.537,13.965-35.729,7.289-54.855c-1.168-3.345-2.609-6.513-4.267-9.513c-14.794-8.275-32.922-10.429-50.185-4.403
				c-22.167,7.737-37.069,26.913-40.423,48.602C189.358,125.338,189.359,125.333,189.36,125.329z"/>
			
				<linearGradient id="SVGID_00000159460063904285301310000012641198872617852066_" gradientUnits="userSpaceOnUse" x1="185.9238" y1="385.0812" x2="286.9255" y2="385.0812" gradientTransform="matrix(-0.9885 0.1515 -0.1515 -0.9885 535.2106 459.1849)">
				<stop  offset="0" style="stop-color:#3A58AE"/>
				<stop  offset="1" style="stop-color:#3FC0E0"/>
			</linearGradient>
			<path style="fill:url(#SVGID_00000159460063904285301310000012641198872617852066_);" d="M192.087,114.405
				c7.394-5.097,16.024-8.645,25.497-10.097c9.289-1.423,18.407-0.676,26.848,1.85c0,0,0,0,0,0c0.387-0.075,0.775-0.149,1.168-0.209
				c15.86-2.43,30.687,8.456,33.118,24.316c1.109,7.24-0.563,14.259-4.209,19.988c13.27-13.337,20.259-32.576,17.191-52.599
				c-0.537-3.502-1.375-6.881-2.457-10.133c-13.033-10.84-30.462-16.27-48.535-13.5c-23.208,3.556-41.363,19.686-48.624,40.397
				C192.084,114.413,192.085,114.409,192.087,114.405z"/>
			
				<linearGradient id="SVGID_00000128447824965068117140000000706724326748206779_" gradientUnits="userSpaceOnUse" x1="241.4539" y1="380.512" x2="342.4639" y2="380.512" gradientTransform="matrix(-0.9468 -0.3217 0.3217 -0.9468 407.3257 567.68)">
				<stop  offset="0" style="stop-color:#3FC0E0"/>
				<stop  offset="1" style="stop-color:#3A58AE"/>
			</linearGradient>
			<path style="opacity:0.4;fill:url(#SVGID_00000128447824965068117140000000706724326748206779_);" d="M207.969,89.969
				c8.911-1.11,18.205-0.276,27.279,2.807c8.897,3.023,16.642,7.893,22.965,14.03c0,0,0,0,0,0c0.378,0.112,0.756,0.225,1.133,0.353
				c15.192,5.162,23.324,21.662,18.162,36.854c-2.356,6.935-7.078,12.391-12.957,15.791c17.927-5.709,33.004-19.553,39.521-38.734
				c1.14-3.354,1.955-6.739,2.496-10.123c-6.561-15.63-19.519-28.49-36.831-34.372c-22.23-7.553-45.78-1.62-61.778,13.404
				C207.962,89.975,207.966,89.972,207.969,89.969z"/>
			
				<linearGradient id="SVGID_00000139264870698969847550000015220102656507465644_" gradientUnits="userSpaceOnUse" x1="258.8303" y1="372.4745" x2="359.838" y2="372.4745" gradientTransform="matrix(-0.8819 -0.4714 0.4714 -0.8819 353.9236 588.6132)">
				<stop  offset="0" style="stop-color:#3A58AE"/>
				<stop  offset="1" style="stop-color:#3FC0E0"/>
			</linearGradient>
			<path style="fill:url(#SVGID_00000139264870698969847550000015220102656507465644_);" d="M215.793,83.73
				c8.973,0.354,18.008,2.688,26.46,7.205c8.288,4.43,15.138,10.494,20.379,17.577c0,0,0,0,0,0c0.355,0.172,0.709,0.345,1.06,0.533
				c14.151,7.563,19.491,25.166,11.928,39.316c-3.452,6.459-8.999,11.075-15.352,13.474c18.616-2.719,35.744-13.927,45.293-31.793
				c1.67-3.124,3.024-6.331,4.108-9.583c-3.932-16.489-14.627-31.284-30.753-39.903c-20.706-11.067-44.907-9.042-63.135,3.181
				C215.785,83.736,215.789,83.733,215.793,83.73z"/>
			
				<linearGradient id="SVGID_00000042697889113788864830000013773202770480926853_" gradientUnits="userSpaceOnUse" x1="306.5545" y1="322.5632" x2="407.5569" y2="322.5632" gradientTransform="matrix(-0.4529 -0.8916 0.8916 -0.4529 141.2699 586.2599)">
				<stop  offset="0" style="stop-color:#3FC0E0"/>
				<stop  offset="1" style="stop-color:#3A58AE"/>
			</linearGradient>
			<path style="opacity:0.4;fill:url(#SVGID_00000042697889113788864830000013773202770480926853_);" d="M251.136,73.32
				c7.153,5.43,13.221,12.518,17.562,21.062c4.256,8.378,6.397,17.273,6.636,26.081c0,0,0,0,0,0
				c0.192,0.344,0.384,0.689,0.564,1.044c7.267,14.305,1.562,31.793-12.743,39.06c-6.53,3.317-13.721,3.924-20.302,2.251
				c16.817,8.435,37.277,9.059,55.337-0.116c3.159-1.605,6.106-3.457,8.857-5.501c6.222-15.768,5.93-34.022-2.351-50.323
				c-10.634-20.932-31.631-33.135-53.573-33.557C251.127,73.32,251.131,73.32,251.136,73.32z"/>
			
				<linearGradient id="SVGID_00000099654308903555671830000001501241698129861514_" gradientUnits="userSpaceOnUse" x1="312.6634" y1="306.4568" x2="413.6639" y2="306.4568" gradientTransform="matrix(-0.3109 -0.9505 0.9505 -0.3109 90.5432 565.0675)">
				<stop  offset="0" style="stop-color:#350B6C"/>
				<stop  offset="1" style="stop-color:#D60469"/>
			</linearGradient>
			<path style="fill:url(#SVGID_00000099654308903555671830000001501241698129861514_);" d="M260.529,74.219
				c6.236,6.462,11.146,14.397,14.125,23.506c2.921,8.932,3.673,18.049,2.559,26.79c0,0,0,0,0,0c0.137,0.369,0.274,0.74,0.397,1.118
				c4.988,15.25-3.332,31.656-18.582,36.644c-6.961,2.277-14.16,1.773-20.407-0.889c15.325,10.914,35.447,14.668,54.701,8.37
				c3.367-1.101,6.564-2.48,9.596-4.078c8.566-14.628,11.077-32.71,5.393-50.088c-7.298-22.315-26.176-37.593-47.795-41.374
				C260.52,74.218,260.524,74.219,260.529,74.219z"/>
			<g>
				
					<linearGradient id="SVGID_00000069372489624825328640000006211498516061935803_" gradientUnits="userSpaceOnUse" x1="272.0729" y1="150.052" x2="276.5057" y2="150.052">
					<stop  offset="0" style="stop-color:#3FC0E0"/>
					<stop  offset="1" style="stop-color:#3A58AE"/>
				</linearGradient>
				<path style="fill:url(#SVGID_00000069372489624825328640000006211498516061935803_);" d="M272.073,153.554
					c1.825-2.132,3.31-4.493,4.433-7.004C275.372,149.076,273.88,151.437,272.073,153.554z"/>
				
					<linearGradient id="SVGID_00000046338837925743960380000015894519904461778089_" gradientUnits="userSpaceOnUse" x1="271.2854" y1="154.019" x2="272.0301" y2="154.019">
					<stop  offset="0" style="stop-color:#3FC0E0"/>
					<stop  offset="1" style="stop-color:#3A58AE"/>
				</linearGradient>
				<path style="fill:url(#SVGID_00000046338837925743960380000015894519904461778089_);" d="M271.285,154.433
					c0.253-0.272,0.503-0.547,0.745-0.827C271.789,153.887,271.538,154.16,271.285,154.433z"/>
				
					<linearGradient id="SVGID_00000158751770625784054720000015792702031368897183_" gradientUnits="userSpaceOnUse" x1="270.4483" y1="154.9936" x2="271.0473" y2="154.9936">
					<stop  offset="0" style="stop-color:#3FC0E0"/>
					<stop  offset="1" style="stop-color:#3A58AE"/>
				</linearGradient>
				<path style="fill:url(#SVGID_00000158751770625784054720000015792702031368897183_);" d="M271.047,154.692
					c-0.195,0.205-0.398,0.404-0.599,0.604C270.65,155.096,270.852,154.896,271.047,154.692z"/>
				
					<linearGradient id="SVGID_00000030464840617269456100000000968997311632721303_" gradientUnits="userSpaceOnUse" x1="263.6889" y1="160.1632" x2="264.1325" y2="160.1632">
					<stop  offset="0" style="stop-color:#3FC0E0"/>
					<stop  offset="1" style="stop-color:#3A58AE"/>
				</linearGradient>
				<path style="fill:url(#SVGID_00000030464840617269456100000000968997311632721303_);" d="M263.689,160.282
					c0.148-0.079,0.296-0.156,0.444-0.238C263.986,160.125,263.837,160.203,263.689,160.282z"/>
				
					<linearGradient id="SVGID_00000062883174028987731780000011069437122710619300_" gradientUnits="userSpaceOnUse" x1="265.0367" y1="159.4429" x2="265.2816" y2="159.4429">
					<stop  offset="0" style="stop-color:#3FC0E0"/>
					<stop  offset="1" style="stop-color:#3A58AE"/>
				</linearGradient>
				<path style="fill:url(#SVGID_00000062883174028987731780000011069437122710619300_);" d="M265.282,159.369
					c-0.081,0.05-0.163,0.098-0.245,0.148c0.057-0.034,0.114-0.065,0.171-0.099C265.232,159.402,265.256,159.385,265.282,159.369z"
					/>
				
					<linearGradient id="SVGID_00000018212995680476360000000001604727170273616541_" gradientUnits="userSpaceOnUse" x1="262.0623" y1="160.8747" x2="262.9643" y2="160.8747">
					<stop  offset="0" style="stop-color:#3FC0E0"/>
					<stop  offset="1" style="stop-color:#3A58AE"/>
				</linearGradient>
				<path style="fill:url(#SVGID_00000018212995680476360000000001604727170273616541_);" d="M262.062,161.088
					c0.302-0.138,0.603-0.278,0.902-0.427C262.667,160.809,262.366,160.95,262.062,161.088z"/>
				
					<linearGradient id="SVGID_00000052064456696399997920000014848595531300536969_" gradientUnits="userSpaceOnUse" x1="266.3587" y1="158.6185" x2="266.5087" y2="158.6185">
					<stop  offset="0" style="stop-color:#3FC0E0"/>
					<stop  offset="1" style="stop-color:#3A58AE"/>
				</linearGradient>
				<path style="fill:url(#SVGID_00000052064456696399997920000014848595531300536969_);" d="M266.359,158.669
					c0.05-0.034,0.1-0.067,0.15-0.101C266.459,158.602,266.408,158.635,266.359,158.669z"/>
				
					<linearGradient id="SVGID_00000079457282326606626970000009059882470243055787_" gradientUnits="userSpaceOnUse" x1="277.8306" y1="142.8571" x2="277.9032" y2="142.8571">
					<stop  offset="0" style="stop-color:#3FC0E0"/>
					<stop  offset="1" style="stop-color:#3A58AE"/>
				</linearGradient>
				<path style="fill:url(#SVGID_00000079457282326606626970000009059882470243055787_);" d="M277.831,142.974
					c0.023-0.078,0.05-0.155,0.073-0.233C277.88,142.819,277.854,142.896,277.831,142.974z"/>
				
					<linearGradient id="SVGID_00000049919375708964201590000010878784931187244716_" gradientUnits="userSpaceOnUse" x1="269.5514" y1="155.9435" x2="269.9978" y2="155.9435">
					<stop  offset="0" style="stop-color:#3FC0E0"/>
					<stop  offset="1" style="stop-color:#3A58AE"/>
				</linearGradient>
				<path style="fill:url(#SVGID_00000049919375708964201590000010878784931187244716_);" d="M269.551,156.148
					c0.149-0.136,0.3-0.27,0.446-0.408C269.852,155.878,269.7,156.012,269.551,156.148z"/>
				
					<linearGradient id="SVGID_00000158708491921043732280000008844315232159487418_" gradientUnits="userSpaceOnUse" x1="268.5821" y1="156.8671" x2="268.8843" y2="156.8671">
					<stop  offset="0" style="stop-color:#3FC0E0"/>
					<stop  offset="1" style="stop-color:#3A58AE"/>
				</linearGradient>
				<path style="fill:url(#SVGID_00000158708491921043732280000008844315232159487418_);" d="M268.582,156.992
					c0.101-0.084,0.203-0.166,0.302-0.25C268.785,156.827,268.683,156.908,268.582,156.992z"/>
				
					<linearGradient id="SVGID_00000065754576596852675610000012047211077926056091_" gradientUnits="userSpaceOnUse" x1="267.5236" y1="157.7603" x2="267.7171" y2="157.7603">
					<stop  offset="0" style="stop-color:#3FC0E0"/>
					<stop  offset="1" style="stop-color:#3A58AE"/>
				</linearGradient>
				<path style="fill:url(#SVGID_00000065754576596852675610000012047211077926056091_);" d="M267.524,157.833
					c0.064-0.048,0.13-0.096,0.194-0.145C267.653,157.737,267.588,157.784,267.524,157.833z"/>
				
					<linearGradient id="SVGID_00000031190946218257943230000007125271211719881900_" gradientUnits="userSpaceOnUse" x1="276.5334" y1="145.8932" x2="277.0308" y2="145.8932">
					<stop  offset="0" style="stop-color:#3FC0E0"/>
					<stop  offset="1" style="stop-color:#3A58AE"/>
				</linearGradient>
				<path style="fill:url(#SVGID_00000031190946218257943230000007125271211719881900_);" d="M276.533,146.485
					c0.174-0.391,0.341-0.786,0.497-1.184C276.874,145.7,276.708,146.094,276.533,146.485z"/>
				
					<linearGradient id="SVGID_00000008834407035409598740000017812468118112913854_" gradientUnits="userSpaceOnUse" x1="310.969" y1="128.8757" x2="311.1527" y2="128.8757">
					<stop  offset="0" style="stop-color:#3FC0E0"/>
					<stop  offset="1" style="stop-color:#3A58AE"/>
				</linearGradient>
				<path style="fill:url(#SVGID_00000008834407035409598740000017812468118112913854_);" d="M310.969,127.894
					c0.072,0.654,0.133,1.309,0.184,1.964C311.101,129.203,311.042,128.549,310.969,127.894z"/>
				
					<linearGradient id="SVGID_00000011722638701588693410000003983910274862866859_" gradientUnits="userSpaceOnUse" x1="311.2296" y1="132.1183" x2="311.3262" y2="132.1183">
					<stop  offset="0" style="stop-color:#3FC0E0"/>
					<stop  offset="1" style="stop-color:#3A58AE"/>
				</linearGradient>
				<path style="fill:url(#SVGID_00000011722638701588693410000003983910274862866859_);" d="M311.23,130.937
					c0.047,0.788,0.08,1.576,0.097,2.363C311.309,132.513,311.278,131.726,311.23,130.937z"/>
				
					<linearGradient id="SVGID_00000049942377901523613110000012038234366246823073_" gradientUnits="userSpaceOnUse" x1="311.3081" y1="135.3224" x2="311.3417" y2="135.3224">
					<stop  offset="0" style="stop-color:#3FC0E0"/>
					<stop  offset="1" style="stop-color:#3A58AE"/>
				</linearGradient>
				<path style="fill:url(#SVGID_00000049942377901523613110000012038234366246823073_);" d="M311.308,136.657
					c0.029-0.887,0.04-1.777,0.03-2.669C311.347,134.878,311.338,135.768,311.308,136.657z"/>
				
					<linearGradient id="SVGID_00000106114257268524415290000014900150519383942292_" gradientUnits="userSpaceOnUse" x1="255.1476" y1="162.243" x2="261.761" y2="162.243">
					<stop  offset="0" style="stop-color:#3FC0E0"/>
					<stop  offset="1" style="stop-color:#3A58AE"/>
				</linearGradient>
				<path style="fill:url(#SVGID_00000106114257268524415290000014900150519383942292_);" d="M261.761,161.229
					c-0.884,0.39-1.795,0.741-2.733,1.048c-1.288,0.421-2.583,0.746-3.88,0.981C257.391,162.855,259.611,162.183,261.761,161.229z"
					/>
				
					<linearGradient id="SVGID_00000070095640591662395010000015942245583605775524_" gradientUnits="userSpaceOnUse" x1="310.5529" y1="125.596" x2="310.7746" y2="125.596">
					<stop  offset="0" style="stop-color:#3FC0E0"/>
					<stop  offset="1" style="stop-color:#3A58AE"/>
				</linearGradient>
				<path style="fill:url(#SVGID_00000070095640591662395010000015942245583605775524_);" d="M310.553,124.842
					c0.081,0.502,0.153,1.005,0.222,1.508C310.705,125.847,310.635,125.345,310.553,124.842z"/>
				
					<linearGradient id="SVGID_00000167359957494310993790000013148400946355514282_" gradientUnits="userSpaceOnUse" x1="308.2185" y1="115.6712" x2="308.4352" y2="115.6712">
					<stop  offset="0" style="stop-color:#3FC0E0"/>
					<stop  offset="1" style="stop-color:#3A58AE"/>
				</linearGradient>
				<path style="fill:url(#SVGID_00000167359957494310993790000013148400946355514282_);" d="M308.435,116.014
					c-0.045-0.141-0.08-0.282-0.125-0.422c-0.029-0.089-0.062-0.175-0.091-0.263C308.294,115.556,308.362,115.786,308.435,116.014z"
					/>
				
					<linearGradient id="SVGID_00000041270279064034158360000015166296509322885041_" gradientUnits="userSpaceOnUse" x1="309.9714" y1="122.2884" x2="310.1858" y2="122.2884">
					<stop  offset="0" style="stop-color:#3FC0E0"/>
					<stop  offset="1" style="stop-color:#3A58AE"/>
				</linearGradient>
				<path style="fill:url(#SVGID_00000041270279064034158360000015166296509322885041_);" d="M309.971,121.757
					c0.076,0.354,0.145,0.709,0.214,1.063C310.116,122.465,310.048,122.111,309.971,121.757z"/>
				
					<linearGradient id="SVGID_00000104702479055426954440000013061718777473179317_" gradientUnits="userSpaceOnUse" x1="277.212" y1="124.9986" x2="277.5596" y2="124.9986">
					<stop  offset="0" style="stop-color:#3FC0E0"/>
					<stop  offset="1" style="stop-color:#3A58AE"/>
				</linearGradient>
				<path style="fill:url(#SVGID_00000104702479055426954440000013061718777473179317_);" d="M277.213,124.504
					c-0.001,0.004-0.001,0.007-0.001,0.011c0,0,0,0,0,0c0.12,0.323,0.237,0.649,0.348,0.978
					C277.449,125.162,277.336,124.832,277.213,124.504z"/>
				
					<linearGradient id="SVGID_00000106124298233304198300000000818880134815968399_" gradientUnits="userSpaceOnUse" x1="277.6311" y1="126.3393" x2="278.0105" y2="126.3393">
					<stop  offset="0" style="stop-color:#3FC0E0"/>
					<stop  offset="1" style="stop-color:#3A58AE"/>
				</linearGradient>
				<path style="fill:url(#SVGID_00000106124298233304198300000000818880134815968399_);" d="M277.631,125.705
					c0.137,0.422,0.263,0.845,0.379,1.268C277.894,126.549,277.768,126.126,277.631,125.705z"/>
				
					<linearGradient id="SVGID_00000007405173201359162280000003004346563428122519_" gradientUnits="userSpaceOnUse" x1="309.2087" y1="118.979" x2="309.3951" y2="118.979">
					<stop  offset="0" style="stop-color:#3FC0E0"/>
					<stop  offset="1" style="stop-color:#3A58AE"/>
				</linearGradient>
				<path style="fill:url(#SVGID_00000007405173201359162280000003004346563428122519_);" d="M309.209,118.618
					c0.065,0.241,0.124,0.482,0.186,0.723C309.333,119.099,309.274,118.858,309.209,118.618z"/>
				
					<linearGradient id="SVGID_00000088819407873502309600000001666601386087669147_" gradientUnits="userSpaceOnUse" x1="279.0497" y1="134.5361" x2="279.0512" y2="134.5361">
					<stop  offset="0" style="stop-color:#3FC0E0"/>
					<stop  offset="1" style="stop-color:#3A58AE"/>
				</linearGradient>
				<path style="fill:url(#SVGID_00000088819407873502309600000001666601386087669147_);" d="M279.051,134.465
					c0,0.048-0.002,0.095-0.001,0.142C279.05,134.56,279.051,134.512,279.051,134.465z"/>
				
					<linearGradient id="SVGID_00000070829257628394312830000004158674517777618057_" gradientUnits="userSpaceOnUse" x1="309.5931" y1="147.8567" x2="310.1662" y2="147.8567">
					<stop  offset="0" style="stop-color:#3FC0E0"/>
					<stop  offset="1" style="stop-color:#3A58AE"/>
				</linearGradient>
				<path style="fill:url(#SVGID_00000070829257628394312830000004158674517777618057_);" d="M309.593,149.152
					c0.21-0.858,0.4-1.722,0.573-2.59C309.994,147.429,309.802,148.292,309.593,149.152z"/>
				
					<linearGradient id="SVGID_00000044898217504470530750000006313821791144640956_" gradientUnits="userSpaceOnUse" x1="252.6837" y1="163.5621" x2="253.2363" y2="163.5621">
					<stop  offset="0" style="stop-color:#3FC0E0"/>
					<stop  offset="1" style="stop-color:#3A58AE"/>
				</linearGradient>
				<path style="fill:url(#SVGID_00000044898217504470530750000006313821791144640956_);" d="M252.684,163.592
					c0.184-0.017,0.368-0.04,0.553-0.06C253.052,163.553,252.868,163.575,252.684,163.592z"/>
				
					<linearGradient id="SVGID_00000155134395593375929230000000365470063194998152_" gradientUnits="userSpaceOnUse" x1="251.4531" y1="163.6711" x2="251.72" y2="163.6711">
					<stop  offset="0" style="stop-color:#3FC0E0"/>
					<stop  offset="1" style="stop-color:#3A58AE"/>
				</linearGradient>
				<path style="fill:url(#SVGID_00000155134395593375929230000000365470063194998152_);" d="M251.453,163.68
					c0.089-0.004,0.178-0.012,0.267-0.017C251.631,163.668,251.542,163.675,251.453,163.68z"/>
				
					<linearGradient id="SVGID_00000087384645663759880940000015680721584995964556_" gradientUnits="userSpaceOnUse" x1="270.3524" y1="76.9003" x2="270.9295" y2="76.9003">
					<stop  offset="0" style="stop-color:#3FC0E0"/>
					<stop  offset="1" style="stop-color:#3A58AE"/>
				</linearGradient>
				<path style="fill:url(#SVGID_00000087384645663759880940000015680721584995964556_);" d="M270.352,76.794
					c0.193,0.068,0.384,0.143,0.577,0.213C270.737,76.937,270.546,76.862,270.352,76.794z"/>
				
					<linearGradient id="SVGID_00000180360099043577786820000002012708005144221076_" gradientUnits="userSpaceOnUse" x1="253.9128" y1="163.3805" x2="254.8345" y2="163.3805">
					<stop  offset="0" style="stop-color:#3FC0E0"/>
					<stop  offset="1" style="stop-color:#3A58AE"/>
				</linearGradient>
				<path style="fill:url(#SVGID_00000180360099043577786820000002012708005144221076_);" d="M253.913,163.452
					c0.308-0.041,0.615-0.092,0.922-0.143C254.527,163.361,254.22,163.41,253.913,163.452z"/>
				
					<linearGradient id="SVGID_00000008110935192723628720000008301546841642696844_" gradientUnits="userSpaceOnUse" x1="260.529" y1="75.4108" x2="269.7785" y2="75.4108">
					<stop  offset="0" style="stop-color:#3FC0E0"/>
					<stop  offset="1" style="stop-color:#3A58AE"/>
				</linearGradient>
				<path style="fill:url(#SVGID_00000008110935192723628720000008301546841642696844_);" d="M269.779,76.602
					c-3.008-1.027-6.098-1.83-9.25-2.382c0.005,0.005,0.01,0.011,0.015,0.016C263.678,74.784,266.765,75.578,269.779,76.602z"/>
				
					<linearGradient id="SVGID_00000020400416419155271400000001302227306195411079_" gradientUnits="userSpaceOnUse" x1="250.2165" y1="163.7137" x2="250.2855" y2="163.7137">
					<stop  offset="0" style="stop-color:#3FC0E0"/>
					<stop  offset="1" style="stop-color:#3A58AE"/>
				</linearGradient>
				<path style="fill:url(#SVGID_00000020400416419155271400000001302227306195411079_);" d="M250.285,163.713
					c-0.023,0-0.046,0.001-0.069,0.001C250.239,163.714,250.263,163.713,250.285,163.713z"/>
				
					<linearGradient id="SVGID_00000009565798939083308940000014960370229335188373_" gradientUnits="userSpaceOnUse" x1="310.2453" y1="144.7534" x2="310.7172" y2="144.7534">
					<stop  offset="0" style="stop-color:#3FC0E0"/>
					<stop  offset="1" style="stop-color:#3A58AE"/>
				</linearGradient>
				<path style="fill:url(#SVGID_00000009565798939083308940000014960370229335188373_);" d="M310.245,146.159
					c0.179-0.932,0.336-1.869,0.472-2.812C310.582,144.289,310.424,145.226,310.245,146.159z"/>
				
					<linearGradient id="SVGID_00000072995639351327681140000009450080735546365834_" gradientUnits="userSpaceOnUse" x1="238.6207" y1="162.6693" x2="308.6644" y2="162.6693">
					<stop  offset="0" style="stop-color:#3FC0E0"/>
					<stop  offset="1" style="stop-color:#3A58AE"/>
				</linearGradient>
				<path style="fill:url(#SVGID_00000072995639351327681140000009450080735546365834_);" d="M300.301,158.71
					c-17.259,10.607-37.702,11.64-55.146,4.594c0.012,0.002,0.024,0.003,0.036,0.005c-2.267-0.384-4.472-1.027-6.569-1.921
					c15.325,10.914,35.447,14.668,54.701,8.37c3.367-1.101,6.564-2.48,9.596-4.078c2.423-4.138,4.342-8.558,5.747-13.154
					C306.093,154.779,303.312,156.859,300.301,158.71z"/>
				
					<linearGradient id="SVGID_00000076571681154041877190000009511836433847478460_" gradientUnits="userSpaceOnUse" x1="308.8042" y1="150.9402" x2="309.4278" y2="150.9402">
					<stop  offset="0" style="stop-color:#3FC0E0"/>
					<stop  offset="1" style="stop-color:#3A58AE"/>
				</linearGradient>
				<path style="fill:url(#SVGID_00000076571681154041877190000009511836433847478460_);" d="M308.804,152.071
					c0.223-0.749,0.429-1.503,0.624-2.261C309.235,150.567,309.026,151.321,308.804,152.071z"/>
				
					<linearGradient id="SVGID_00000062177314920931879590000017626927793534345898_" gradientUnits="userSpaceOnUse" x1="311.113" y1="138.4915" x2="311.2934" y2="138.4915">
					<stop  offset="0" style="stop-color:#3FC0E0"/>
					<stop  offset="1" style="stop-color:#3A58AE"/>
				</linearGradient>
				<path style="fill:url(#SVGID_00000062177314920931879590000017626927793534345898_);" d="M311.113,139.919
					c0.082-0.948,0.142-1.899,0.18-2.854C311.255,138.018,311.196,138.969,311.113,139.919z"/>
				
					<linearGradient id="SVGID_00000060748346098813462280000017432958738417276830_" gradientUnits="userSpaceOnUse" x1="310.7548" y1="141.6328" x2="311.0895" y2="141.6328">
					<stop  offset="0" style="stop-color:#3FC0E0"/>
					<stop  offset="1" style="stop-color:#3A58AE"/>
				</linearGradient>
				<path style="fill:url(#SVGID_00000060748346098813462280000017432958738417276830_);" d="M310.755,143.084
					c0.135-0.963,0.246-1.931,0.335-2.903C311.001,141.152,310.889,142.12,310.755,143.084z"/>
				
					<linearGradient id="SVGID_00000112607187694875255720000011774452633248022153_" gradientUnits="userSpaceOnUse" x1="307.0889" y1="113.0812" x2="307.7385" y2="113.0812">
					<stop  offset="0" style="stop-color:#3FC0E0"/>
					<stop  offset="1" style="stop-color:#3A58AE"/>
				</linearGradient>
				<path style="fill:url(#SVGID_00000112607187694875255720000011774452633248022153_);" d="M307.089,112.219
					c0.226,0.573,0.442,1.148,0.65,1.725C307.531,113.363,307.313,112.789,307.089,112.219z"/>
				
					<linearGradient id="SVGID_00000148640128987487657860000010561247313824968322_" gradientUnits="userSpaceOnUse" x1="278.881" y1="131.868" x2="278.9428" y2="131.868">
					<stop  offset="0" style="stop-color:#3FC0E0"/>
					<stop  offset="1" style="stop-color:#3A58AE"/>
				</linearGradient>
				<path style="fill:url(#SVGID_00000148640128987487657860000010561247313824968322_);" d="M278.943,132.213
					c-0.019-0.23-0.037-0.461-0.062-0.691C278.906,131.753,278.923,131.983,278.943,132.213z"/>
				
					<linearGradient id="SVGID_00000076582659816224148460000008636337499436821680_" gradientUnits="userSpaceOnUse" x1="278.6798" y1="130.5071" x2="278.8116" y2="130.5071">
					<stop  offset="0" style="stop-color:#3FC0E0"/>
					<stop  offset="1" style="stop-color:#3A58AE"/>
				</linearGradient>
				<path style="fill:url(#SVGID_00000076582659816224148460000008636337499436821680_);" d="M278.812,130.977
					c-0.04-0.313-0.081-0.626-0.132-0.939C278.731,130.351,278.771,130.664,278.812,130.977z"/>
				
					<linearGradient id="SVGID_00000062907022630027839080000011258527459903701175_" gradientUnits="userSpaceOnUse" x1="278.4012" y1="129.1309" x2="278.6202" y2="129.1309">
					<stop  offset="0" style="stop-color:#3FC0E0"/>
					<stop  offset="1" style="stop-color:#3A58AE"/>
				</linearGradient>
				<path style="fill:url(#SVGID_00000062907022630027839080000011258527459903701175_);" d="M278.62,129.701
					c-0.066-0.381-0.137-0.761-0.219-1.14C278.483,128.941,278.554,129.321,278.62,129.701z"/>
				
					<linearGradient id="SVGID_00000099621173031265344050000013369278897059445901_" gradientUnits="userSpaceOnUse" x1="260.5148" y1="74.2186" x2="260.529" y2="74.2186">
					<stop  offset="0" style="stop-color:#3FC0E0"/>
					<stop  offset="1" style="stop-color:#3A58AE"/>
				</linearGradient>
				<path style="fill:url(#SVGID_00000099621173031265344050000013369278897059445901_);" d="M260.529,74.219
					c-0.005-0.001-0.009-0.001-0.014-0.002C260.52,74.218,260.524,74.219,260.529,74.219
					C260.529,74.22,260.529,74.219,260.529,74.219z"/>
				
					<linearGradient id="SVGID_00000106105060650903605420000004437188434553439106_" gradientUnits="userSpaceOnUse" x1="279.0041" y1="133.2103" x2="279.0206" y2="133.2103">
					<stop  offset="0" style="stop-color:#3FC0E0"/>
					<stop  offset="1" style="stop-color:#3A58AE"/>
				</linearGradient>
				<path style="fill:url(#SVGID_00000106105060650903605420000004437188434553439106_);" d="M279.021,133.42
					c-0.006-0.14-0.009-0.28-0.017-0.42C279.012,133.141,279.014,133.28,279.021,133.42z"/>
				
					<linearGradient id="SVGID_00000108308996949268742160000003232676360207234974_" gradientUnits="userSpaceOnUse" x1="278.0491" y1="127.741" x2="278.358" y2="127.741">
					<stop  offset="0" style="stop-color:#3FC0E0"/>
					<stop  offset="1" style="stop-color:#3A58AE"/>
				</linearGradient>
				<path style="fill:url(#SVGID_00000108308996949268742160000003232676360207234974_);" d="M278.358,128.372
					c-0.094-0.422-0.196-0.842-0.309-1.262C278.163,127.53,278.264,127.951,278.358,128.372z"/>
				
					<linearGradient id="SVGID_00000101810384751267038250000014398981440549373588_" gradientUnits="userSpaceOnUse" x1="294.6785" y1="100.452" x2="305.3893" y2="100.452">
					<stop  offset="0" style="stop-color:#3FC0E0"/>
					<stop  offset="1" style="stop-color:#3A58AE"/>
				</linearGradient>
				<path style="fill:url(#SVGID_00000101810384751267038250000014398981440549373588_);" d="M305.389,108.291
					c-2.785-5.868-6.422-11.128-10.711-15.678c2.807,2.988,5.358,6.299,7.589,9.929
					C303.423,104.423,304.459,106.343,305.389,108.291z"/>
				
					<linearGradient id="SVGID_00000034769022065007960220000012744654750108832398_" gradientUnits="userSpaceOnUse" x1="277.2328" y1="144.3932" x2="277.4962" y2="144.3932">
					<stop  offset="0" style="stop-color:#3FC0E0"/>
					<stop  offset="1" style="stop-color:#3A58AE"/>
				</linearGradient>
				<path style="fill:url(#SVGID_00000034769022065007960220000012744654750108832398_);" d="M277.233,144.754
					c0.089-0.24,0.181-0.479,0.263-0.722C277.413,144.275,277.322,144.514,277.233,144.754z"/>
				
					<linearGradient id="SVGID_00000163773702666966147920000002609143563546219672_" gradientUnits="userSpaceOnUse" x1="293.7467" y1="91.9535" x2="294.3493" y2="91.9535">
					<stop  offset="0" style="stop-color:#3FC0E0"/>
					<stop  offset="1" style="stop-color:#3A58AE"/>
				</linearGradient>
				<path style="fill:url(#SVGID_00000163773702666966147920000002609143563546219672_);" d="M293.747,91.648
					c0.201,0.204,0.405,0.404,0.603,0.611C294.151,92.052,293.947,91.852,293.747,91.648z"/>
				
					<linearGradient id="SVGID_00000180341997878085617220000005978044923444642482_" gradientUnits="userSpaceOnUse" x1="305.6094" y1="109.9881" x2="306.6902" y2="109.9881">
					<stop  offset="0" style="stop-color:#3FC0E0"/>
					<stop  offset="1" style="stop-color:#3A58AE"/>
				</linearGradient>
				<path style="fill:url(#SVGID_00000180341997878085617220000005978044923444642482_);" d="M305.609,108.76
					c0.38,0.814,0.739,1.633,1.081,2.456C306.348,110.385,305.985,109.568,305.609,108.76z"/>
			</g>
		</g>
	</g>
</g>
</svg>
