<?xml version="1.0" encoding="utf-8"?>
<!-- Generator: Adobe Illustrator 27.5.0, SVG Export Plug-In . SVG Version: 6.00 Build 0)  -->
<svg version="1.1" xmlns="http://www.w3.org/2000/svg" xmlns:xlink="http://www.w3.org/1999/xlink" x="0px" y="0px"
	 viewBox="0 0 500 500" style="enable-background:new 0 0 500 500;" xml:space="preserve">
<g id="BACKGROUND">
	<rect style="fill:#FFFFFF;" width="500" height="500"/>
</g>
<g id="OBJECTS">
	<g>
		<g>
			<g>
				<linearGradient id="SVGID_1_" gradientUnits="userSpaceOnUse" x1="307.6605" y1="119.9737" x2="408.1612" y2="119.9737">
					<stop  offset="0" style="stop-color:#CC332B"/>
					<stop  offset="1" style="stop-color:#E1A133"/>
				</linearGradient>
				<path style="fill:url(#SVGID_1_);" d="M357.852,170.236c-12.701,0-24.75-4.716-34.117-13.398
					c-20.327-18.838-21.539-50.701-2.701-71.029c9.126-9.847,21.54-15.551,34.956-16.061c13.407-0.515,26.227,4.235,36.074,13.361
					c9.847,9.125,15.551,21.539,16.061,34.955c0.51,13.415-4.235,26.227-13.36,36.074l0,0c-9.126,9.847-21.54,15.551-34.956,16.061
					C359.155,170.224,358.502,170.236,357.852,170.236z M357.945,70.431c-0.642,0-1.284,0.012-1.929,0.036
					c-13.223,0.503-25.46,6.125-34.455,15.831c-18.569,20.037-17.374,51.444,2.662,70.012c9.706,8.995,22.341,13.669,35.557,13.169
					c13.224-0.503,25.46-6.125,34.455-15.831l0,0c8.995-9.706,13.673-22.333,13.17-35.557c-0.503-13.223-6.125-25.46-15.831-34.455
					C382.341,75.081,370.463,70.431,357.945,70.431z"/>
			</g>
			<g>
				
					<linearGradient id="SVGID_00000042729341379611212240000017023478468290588816_" gradientUnits="userSpaceOnUse" x1="344.3102" y1="61.764" x2="411.5693" y2="138.5345">
					<stop  offset="0" style="stop-color:#722E8E"/>
					<stop  offset="1" style="stop-color:#C80087"/>
				</linearGradient>
				<path style="fill:url(#SVGID_00000042729341379611212240000017023478468290588816_);" d="M403.951,165.581
					c-0.712,0-1.425-0.258-1.989-0.78c-1.186-1.1-1.256-2.952-0.158-4.138c22.436-24.21,20.992-62.158-3.216-84.594
					c-24.21-22.438-62.159-20.992-84.594,3.216c-1.1,1.186-2.952,1.256-4.138,0.158c-1.186-1.1-1.256-2.952-0.158-4.138
					c24.63-26.576,66.292-28.162,92.869-3.532c26.578,24.631,28.162,66.292,3.531,92.869
					C405.523,165.266,404.737,165.581,403.951,165.581z"/>
			</g>
			<g>
				
					<linearGradient id="SVGID_00000180361708297449401170000000555365724804863895_" gradientUnits="userSpaceOnUse" x1="305.0699" y1="95.023" x2="360.8272" y2="95.023">
					<stop  offset="0" style="stop-color:#722E8E"/>
					<stop  offset="1" style="stop-color:#C80087"/>
				</linearGradient>
				<path style="fill:url(#SVGID_00000180361708297449401170000000555365724804863895_);" d="M307.998,122.902
					c-1.617,0-2.927-1.31-2.928-2.927c-0.003-13.355,4.997-26.108,14.08-35.91c9.963-10.749,24.086-16.917,38.748-16.92h0.001
					c1.617,0,2.928,1.31,2.928,2.927c0,1.618-1.31,2.929-2.927,2.929c-13.038,0.003-25.597,5.486-34.454,15.044
					c-8.077,8.716-12.523,20.055-12.52,31.929C310.926,121.59,309.615,122.901,307.998,122.902L307.998,122.902z"/>
			</g>
			
				<ellipse transform="matrix(0.8053 -0.5928 0.5928 0.8053 -1.45 235.5325)" style="fill:#F0F0F0;" cx="357.899" cy="119.974" rx="29.891" ry="29.891"/>
			<g>
				
					<linearGradient id="SVGID_00000168111381376825284670000017858157169833373850_" gradientUnits="userSpaceOnUse" x1="368.597" y1="158.8076" x2="318.3225" y2="96.6439">
					<stop  offset="0" style="stop-color:#722E8E"/>
					<stop  offset="1" style="stop-color:#C80087"/>
				</linearGradient>
				<path style="fill:url(#SVGID_00000168111381376825284670000017858157169833373850_);" d="M357.861,160.464
					c-10.231,0-19.938-3.799-27.484-10.792c-7.932-7.352-12.527-17.352-12.938-28.159c-0.411-10.807,3.411-21.127,10.763-29.06
					c1.099-1.185,2.952-1.256,4.138-0.158c1.186,1.1,1.257,2.951,0.158,4.138c-6.289,6.785-9.558,15.613-9.207,24.857
					c0.351,9.244,4.281,17.798,11.067,24.086c14.007,12.982,35.963,12.147,48.943-1.86c1.1-1.186,2.952-1.256,4.138-0.158
					c1.186,1.1,1.256,2.952,0.158,4.138c-7.352,7.932-17.352,12.528-28.159,12.938C358.911,160.454,358.385,160.464,357.861,160.464
					z"/>
			</g>
			<g>
				
					<linearGradient id="SVGID_00000116202057855497950940000013202060425641906834_" gradientUnits="userSpaceOnUse" x1="355" y1="82.4129" x2="360.798" y2="82.4129">
					<stop  offset="0" style="stop-color:#722E8E"/>
					<stop  offset="1" style="stop-color:#C80087"/>
				</linearGradient>
				<path style="fill:url(#SVGID_00000116202057855497950940000013202060425641906834_);" d="M359.348,79.903
					c1.386,0.8,1.861,2.573,1.061,3.959c-0.8,1.386-2.573,1.861-3.96,1.061c-1.386-0.8-1.861-2.573-1.061-3.959
					C356.189,79.577,357.962,79.102,359.348,79.903z"/>
				
					<linearGradient id="SVGID_00000003099850741120495240000002699811655301799348_" gradientUnits="userSpaceOnUse" x1="336.2198" y1="87.4452" x2="342.0169" y2="87.4452">
					<stop  offset="0" style="stop-color:#722E8E"/>
					<stop  offset="1" style="stop-color:#C80087"/>
				</linearGradient>
				<path style="fill:url(#SVGID_00000003099850741120495240000002699811655301799348_);" d="M339.118,84.547
					c1.601,0,2.898,1.298,2.898,2.899s-1.298,2.898-2.898,2.898s-2.899-1.298-2.899-2.898S337.518,84.547,339.118,84.547z"/>
				
					<linearGradient id="SVGID_00000054266927352727227850000006617803913568873390_" gradientUnits="userSpaceOnUse" x1="387.5289" y1="138.7547" x2="393.3269" y2="138.7547">
					<stop  offset="0" style="stop-color:#722E8E"/>
					<stop  offset="1" style="stop-color:#C80087"/>
				</linearGradient>
				<path style="fill:url(#SVGID_00000054266927352727227850000006617803913568873390_);" d="M388.979,136.245
					c1.386-0.8,3.159-0.325,3.96,1.061c0.8,1.386,0.325,3.159-1.061,3.959c-1.386,0.8-3.159,0.325-3.96-1.061
					C387.117,138.818,387.592,137.045,388.979,136.245z"/>
				
					<linearGradient id="SVGID_00000145752745432960483490000016578030768787926406_" gradientUnits="userSpaceOnUse" x1="392.5611" y1="119.9741" x2="398.3592" y2="119.9741">
					<stop  offset="0" style="stop-color:#722E8E"/>
					<stop  offset="1" style="stop-color:#C80087"/>
				</linearGradient>
				<path style="fill:url(#SVGID_00000145752745432960483490000016578030768787926406_);" d="M392.95,118.525
					c0.801-1.386,2.573-1.861,3.96-1.061c1.386,0.8,1.861,2.573,1.061,3.96c-0.801,1.386-2.573,1.861-3.96,1.061
					C392.624,121.684,392.149,119.911,392.95,118.525z"/>
				
					<linearGradient id="SVGID_00000158724615593726154170000011675055804114480000_" gradientUnits="userSpaceOnUse" x1="387.5294" y1="101.1936" x2="393.3264" y2="101.1936">
					<stop  offset="0" style="stop-color:#722E8E"/>
					<stop  offset="1" style="stop-color:#C80087"/>
				</linearGradient>
				<path style="fill:url(#SVGID_00000158724615593726154170000011675055804114480000_);" d="M387.529,101.193
					c0-1.601,1.298-2.898,2.898-2.898s2.898,1.298,2.898,2.898s-1.298,2.899-2.898,2.899S387.529,102.794,387.529,101.193z"/>
				
					<linearGradient id="SVGID_00000090278023050527560270000003358212130836934312_" gradientUnits="userSpaceOnUse" x1="373.7805" y1="87.4452" x2="379.5786" y2="87.4452">
					<stop  offset="0" style="stop-color:#722E8E"/>
					<stop  offset="1" style="stop-color:#C80087"/>
				</linearGradient>
				<path style="fill:url(#SVGID_00000090278023050527560270000003358212130836934312_);" d="M374.169,88.894
					c-0.801-1.386-0.326-3.159,1.061-3.959c1.386-0.8,3.159-0.325,3.96,1.061c0.8,1.386,0.325,3.159-1.061,3.959
					C376.742,90.756,374.97,90.281,374.169,88.894z"/>
			</g>
			<g>
				
					<linearGradient id="SVGID_00000062188089380451981300000012549097001176313515_" gradientUnits="userSpaceOnUse" x1="355.0004" y1="182.7623" x2="360.7975" y2="182.7623">
					<stop  offset="0" style="stop-color:#722E8E"/>
					<stop  offset="1" style="stop-color:#C80087"/>
				</linearGradient>
				<path style="fill:url(#SVGID_00000062188089380451981300000012549097001176313515_);" d="M360.797,182.762
					c0,1.601-1.298,2.899-2.898,2.899S355,184.363,355,182.762s1.298-2.898,2.899-2.898S360.797,181.161,360.797,182.762z"/>
				
					<linearGradient id="SVGID_00000147900440352031848130000009558802236702512290_" gradientUnits="userSpaceOnUse" x1="371.2502" y1="180.6229" x2="377.0488" y2="180.6229">
					<stop  offset="0" style="stop-color:#722E8E"/>
					<stop  offset="1" style="stop-color:#C80087"/>
				</linearGradient>
				<path style="fill:url(#SVGID_00000147900440352031848130000009558802236702512290_);" d="M376.949,179.873
					c0.414,1.546-0.503,3.136-2.05,3.55c-1.546,0.414-3.136-0.503-3.55-2.05c-0.414-1.546,0.503-3.136,2.05-3.55
					C374.946,177.409,376.535,178.326,376.949,179.873z"/>
				
					<linearGradient id="SVGID_00000101067871139160960780000015534963671740218496_" gradientUnits="userSpaceOnUse" x1="386.3935" y1="174.3504" x2="392.1916" y2="174.3504">
					<stop  offset="0" style="stop-color:#722E8E"/>
					<stop  offset="1" style="stop-color:#C80087"/>
				</linearGradient>
				<path style="fill:url(#SVGID_00000101067871139160960780000015534963671740218496_);" d="M391.803,172.901
					c0.8,1.386,0.325,3.159-1.061,3.96c-1.386,0.8-3.159,0.325-3.959-1.061c-0.8-1.386-0.326-3.159,1.061-3.96
					C389.23,171.04,391.002,171.515,391.803,172.901z"/>
				
					<linearGradient id="SVGID_00000108994500465851486130000014703401331621518464_" gradientUnits="userSpaceOnUse" x1="300.6247" y1="88.5816" x2="306.4227" y2="88.5816">
					<stop  offset="0" style="stop-color:#722E8E"/>
					<stop  offset="1" style="stop-color:#C80087"/>
				</linearGradient>
				<path style="fill:url(#SVGID_00000108994500465851486130000014703401331621518464_);" d="M304.973,86.071
					c1.386,0.801,1.861,2.573,1.061,3.96c-0.8,1.386-2.573,1.861-3.96,1.061c-1.386-0.8-1.861-2.573-1.061-3.959
					C301.814,85.746,303.587,85.271,304.973,86.071z"/>
				
					<linearGradient id="SVGID_00000143585839264050149600000013823509176188009883_" gradientUnits="userSpaceOnUse" x1="294.3519" y1="103.7246" x2="300.1505" y2="103.7246">
					<stop  offset="0" style="stop-color:#722E8E"/>
					<stop  offset="1" style="stop-color:#C80087"/>
				</linearGradient>
				<path style="fill:url(#SVGID_00000143585839264050149600000013823509176188009883_);" d="M298.001,100.925
					c1.546,0.414,2.464,2.004,2.05,3.55c-0.414,1.546-2.004,2.464-3.55,2.05c-1.546-0.414-2.464-2.004-2.05-3.55
					C294.866,101.428,296.455,100.51,298.001,100.925z"/>
				
					<linearGradient id="SVGID_00000170960496462603809060000002364218114124808092_" gradientUnits="userSpaceOnUse" x1="292.2132" y1="119.9752" x2="298.0103" y2="119.9752">
					<stop  offset="0" style="stop-color:#722E8E"/>
					<stop  offset="1" style="stop-color:#C80087"/>
				</linearGradient>
				<path style="fill:url(#SVGID_00000170960496462603809060000002364218114124808092_);" d="M295.112,117.077
					c1.601,0,2.898,1.298,2.898,2.898c0,1.601-1.298,2.899-2.898,2.899s-2.899-1.298-2.899-2.899
					C292.213,118.374,293.511,117.077,295.112,117.077z"/>
				
					<linearGradient id="SVGID_00000031191414187401606090000000840123183251428262_" gradientUnits="userSpaceOnUse" x1="294.3519" y1="136.2257" x2="300.1505" y2="136.2257">
					<stop  offset="0" style="stop-color:#722E8E"/>
					<stop  offset="1" style="stop-color:#C80087"/>
				</linearGradient>
				<path style="fill:url(#SVGID_00000031191414187401606090000000840123183251428262_);" d="M296.501,133.426
					c1.546-0.414,3.136,0.503,3.55,2.05c0.414,1.546-0.503,3.136-2.05,3.55c-1.546,0.414-3.136-0.503-3.55-2.049
					C294.037,135.43,294.955,133.84,296.501,133.426z"/>
				
					<linearGradient id="SVGID_00000024694001816919091710000006460957430468313997_" gradientUnits="userSpaceOnUse" x1="300.6247" y1="151.3687" x2="306.4227" y2="151.3687">
					<stop  offset="0" style="stop-color:#722E8E"/>
					<stop  offset="1" style="stop-color:#C80087"/>
				</linearGradient>
				<path style="fill:url(#SVGID_00000024694001816919091710000006460957430468313997_);" d="M302.074,148.859
					c1.386-0.8,3.159-0.325,3.96,1.061c0.8,1.386,0.325,3.159-1.061,3.959c-1.386,0.8-3.159,0.326-3.959-1.061
					C300.213,151.432,300.688,149.659,302.074,148.859z"/>
				
					<linearGradient id="SVGID_00000091712908481364922950000003602898943372997051_" gradientUnits="userSpaceOnUse" x1="310.6032" y1="164.3724" x2="316.4002" y2="164.3724">
					<stop  offset="0" style="stop-color:#722E8E"/>
					<stop  offset="1" style="stop-color:#C80087"/>
				</linearGradient>
				<path style="fill:url(#SVGID_00000091712908481364922950000003602898943372997051_);" d="M311.452,162.323
					c1.132-1.132,2.967-1.132,4.099,0c1.132,1.132,1.132,2.967,0,4.099c-1.132,1.132-2.967,1.132-4.099,0
					C310.32,165.29,310.32,163.455,311.452,162.323z"/>
				
					<linearGradient id="SVGID_00000013156552373672935290000013511852580082949541_" gradientUnits="userSpaceOnUse" x1="323.6064" y1="174.3504" x2="329.4044" y2="174.3504">
					<stop  offset="0" style="stop-color:#722E8E"/>
					<stop  offset="1" style="stop-color:#C80087"/>
				</linearGradient>
				<path style="fill:url(#SVGID_00000013156552373672935290000013511852580082949541_);" d="M323.995,172.901
					c0.8-1.386,2.573-1.861,3.959-1.061c1.386,0.8,1.861,2.573,1.061,3.96c-0.8,1.386-2.573,1.861-3.96,1.061
					C323.67,176.06,323.195,174.288,323.995,172.901z"/>
				
					<linearGradient id="SVGID_00000166672225343268142140000003107916249896491654_" gradientUnits="userSpaceOnUse" x1="338.7492" y1="180.6229" x2="344.5477" y2="180.6229">
					<stop  offset="0" style="stop-color:#722E8E"/>
					<stop  offset="1" style="stop-color:#C80087"/>
				</linearGradient>
				<path style="fill:url(#SVGID_00000166672225343268142140000003107916249896491654_);" d="M338.849,179.873
					c0.414-1.546,2.004-2.464,3.55-2.05c1.546,0.414,2.464,2.004,2.05,3.55c-0.414,1.546-2.004,2.464-3.55,2.05
					C339.352,183.008,338.434,181.419,338.849,179.873z"/>
			</g>
			
				<linearGradient id="SVGID_00000109724069595267430670000013487805434509070012_" gradientUnits="userSpaceOnUse" x1="333.7433" y1="119.976" x2="382.0572" y2="119.976">
				<stop  offset="0" style="stop-color:#722E8E"/>
				<stop  offset="1" style="stop-color:#C80087"/>
			</linearGradient>
			<path style="fill:url(#SVGID_00000109724069595267430670000013487805434509070012_);" d="M374.32,102.255
				c-4.637-4.298-10.51-6.425-16.37-6.435v24.036h-24.206c-0.03,6.529,2.568,13.049,7.734,17.837
				c9.786,9.069,25.071,8.488,34.14-1.298C384.687,126.609,384.106,111.324,374.32,102.255z"/>
			
				<linearGradient id="SVGID_00000049214531517138685370000011550145530308473268_" gradientUnits="userSpaceOnUse" x1="342.8251" y1="110.8361" x2="362.1243" y2="110.8361">
				<stop  offset="0" style="stop-color:#CC332B"/>
				<stop  offset="1" style="stop-color:#E1A133"/>
			</linearGradient>
			<path style="fill:url(#SVGID_00000049214531517138685370000011550145530308473268_);" d="M359.334,116.016V98.912
				c0-0.795-0.645-1.439-1.439-1.439c-0.794,0-1.439,0.644-1.439,1.439v17.107c-1.169,0.427-2.088,1.347-2.514,2.517h-9.678
				c-0.794,0-1.439,0.644-1.439,1.439s0.645,1.439,1.439,1.439h9.678c0.59,1.622,2.131,2.786,3.957,2.786
				c2.333,0,4.225-1.892,4.225-4.225C362.124,118.147,360.958,116.605,359.334,116.016z"/>
		</g>
		<g>
			<text transform="matrix(1 0 0 1 283.1279 215.4579)" style="font-family:'Montserrat-ExtraBold'; font-size:19.7679px;">LOREM IPSUM</text>
			<text transform="matrix(1 0 0 1 312.1113 230.912)" style="font-family:'Montserrat-Regular'; font-size:7.4547px;">YOUR TAGLINE HERE</text>
		</g>
	</g>
	<g>
		<g>
			<path style="fill:#FFFFFF;" d="M202.216,335.921c0,35.306-28.621,63.927-63.926,63.927c-35.306,0-63.927-28.621-63.927-63.927
				s28.621-63.927,63.927-63.927c20.648,0,39.009,9.789,50.697,24.98c2.215,2.879,4.191,5.953,5.897,9.191
				c1.312,2.49,2.464,5.077,3.444,7.748C200.842,320.774,202.216,328.187,202.216,335.921z"/>
			
				<linearGradient id="SVGID_00000065034813670760299040000009236819824777767091_" gradientUnits="userSpaceOnUse" x1="73.4033" y1="335.9215" x2="203.175" y2="335.9215">
				<stop  offset="0" style="stop-color:#722E8E"/>
				<stop  offset="1" style="stop-color:#C80087"/>
			</linearGradient>
			<path style="fill:url(#SVGID_00000065034813670760299040000009236819824777767091_);" d="M138.289,400.808
				c-35.778,0-64.886-29.108-64.886-64.887s29.108-64.886,64.886-64.886c20.305,0,39.06,9.241,51.457,25.354
				c2.255,2.93,4.268,6.069,5.985,9.328c1.336,2.536,2.512,5.182,3.495,7.866c2.62,7.143,3.948,14.659,3.948,22.338
				C203.175,371.699,174.067,400.808,138.289,400.808z M138.289,272.954c-34.72,0-62.967,28.247-62.967,62.967
				c0,34.721,28.247,62.968,62.967,62.968c34.72,0,62.967-28.247,62.967-62.968c0-7.452-1.289-14.746-3.831-21.677
				c-0.954-2.603-2.095-5.171-3.391-7.632c-1.666-3.162-3.62-6.207-5.808-9.053C176.195,281.922,157.994,272.954,138.289,272.954z"
				/>
			
				<linearGradient id="SVGID_00000082333323835517498950000004883794573835914932_" gradientUnits="userSpaceOnUse" x1="93.7499" y1="335.9212" x2="182.8283" y2="335.9212">
				<stop  offset="0" style="stop-color:#722E8E"/>
				<stop  offset="1" style="stop-color:#C80087"/>
			</linearGradient>
			<path style="fill:url(#SVGID_00000082333323835517498950000004883794573835914932_);" d="M182.828,335.921
				c0,24.598-19.941,44.539-44.539,44.539c-24.598,0-44.539-19.941-44.539-44.539s19.941-44.539,44.539-44.539
				c14.386,0,27.179,6.82,35.322,17.404c1.544,2.006,2.92,4.148,4.108,6.403c0.914,1.735,1.717,3.537,2.399,5.398
				C181.871,325.368,182.828,330.533,182.828,335.921z"/>
			<g>
				
					<linearGradient id="SVGID_00000088117742646990667770000013168909168978356366_" gradientUnits="userSpaceOnUse" x1="87.3995" y1="335.9211" x2="189.1786" y2="335.9211">
					<stop  offset="0" style="stop-color:#722E8E"/>
					<stop  offset="1" style="stop-color:#C80087"/>
				</linearGradient>
				<path style="fill:url(#SVGID_00000088117742646990667770000013168909168978356366_);" d="M138.289,386.81
					c-28.06,0-50.889-22.829-50.889-50.889c0-28.06,22.829-50.889,50.889-50.889c15.925,0,30.635,7.248,40.357,19.885
					c1.767,2.296,3.346,4.758,4.694,7.316c1.047,1.985,1.969,4.061,2.741,6.168c2.055,5.603,3.097,11.497,3.097,17.52
					C189.179,363.982,166.349,386.81,138.289,386.81z M138.289,287.204c-26.863,0-48.717,21.855-48.717,48.717
					c0,26.863,21.855,48.717,48.717,48.717c26.864,0,48.718-21.855,48.718-48.717c0-5.767-0.997-11.409-2.963-16.772
					c-0.74-2.017-1.622-4.003-2.624-5.904c-1.29-2.449-2.802-4.805-4.494-7.004C167.617,294.142,153.534,287.204,138.289,287.204z"
					/>
			</g>
			<g>
				
					<linearGradient id="SVGID_00000043435302903082608820000007408307269205334920_" gradientUnits="userSpaceOnUse" x1="137.1781" y1="278.9463" x2="139.3992" y2="278.9463">
					<stop  offset="0" style="stop-color:#CC332B"/>
					<stop  offset="1" style="stop-color:#E1A133"/>
				</linearGradient>
				<path style="fill:url(#SVGID_00000043435302903082608820000007408307269205334920_);" d="M138.289,275.501
					c-0.613,0-1.11,0.498-1.11,1.111v4.669c0,0.613,0.498,1.11,1.11,1.11s1.111-0.498,1.111-1.11v-4.669
					C139.399,275.999,138.901,275.501,138.289,275.501z"/>
				
					<linearGradient id="SVGID_00000171679605008119388390000003293121773665155767_" gradientUnits="userSpaceOnUse" x1="137.1781" y1="392.8961" x2="139.3992" y2="392.8961">
					<stop  offset="0" style="stop-color:#CC332B"/>
					<stop  offset="1" style="stop-color:#E1A133"/>
				</linearGradient>
				<path style="fill:url(#SVGID_00000171679605008119388390000003293121773665155767_);" d="M138.289,389.451
					c-0.613,0-1.11,0.498-1.11,1.111v4.669c0,0.613,0.498,1.111,1.11,1.111s1.111-0.498,1.111-1.111v-4.669
					C139.399,389.949,138.901,389.451,138.289,389.451z"/>
				
					<linearGradient id="SVGID_00000026857494319218595860000017487977737717831348_" gradientUnits="userSpaceOnUse" x1="121.8284" y1="280.8882" x2="125.2579" y2="280.8882">
					<stop  offset="0" style="stop-color:#CC332B"/>
					<stop  offset="1" style="stop-color:#E1A133"/>
				</linearGradient>
				<path style="fill:url(#SVGID_00000026857494319218595860000017487977737717831348_);" d="M124.011,278.345
					c-0.159-0.592-0.771-0.943-1.36-0.784c-0.592,0.159-0.943,0.767-0.785,1.359l1.209,4.511c0.133,0.496,0.582,0.823,1.071,0.823
					c0.095,0,0.193-0.012,0.289-0.038c0.592-0.159,0.943-0.767,0.785-1.359L124.011,278.345z"/>
				
					<linearGradient id="SVGID_00000021108198081043206700000004406382409212438703_" gradientUnits="userSpaceOnUse" x1="151.3203" y1="390.9548" x2="154.7497" y2="390.9548">
					<stop  offset="0" style="stop-color:#CC332B"/>
					<stop  offset="1" style="stop-color:#E1A133"/>
				</linearGradient>
				<path style="fill:url(#SVGID_00000021108198081043206700000004406382409212438703_);" d="M153.503,388.412
					c-0.158-0.592-0.77-0.945-1.36-0.785c-0.592,0.159-0.943,0.767-0.785,1.359l1.208,4.511c0.133,0.496,0.582,0.823,1.072,0.823
					c0.095,0,0.192-0.012,0.289-0.038c0.592-0.159,0.943-0.767,0.785-1.359L153.503,388.412z"/>
				
					<linearGradient id="SVGID_00000125585565742821426230000002763597005013296797_" gradientUnits="userSpaceOnUse" x1="107.5242" y1="286.5795" x2="112.079" y2="286.5795">
					<stop  offset="0" style="stop-color:#CC332B"/>
					<stop  offset="1" style="stop-color:#E1A133"/>
				</linearGradient>
				<path style="fill:url(#SVGID_00000125585565742821426230000002763597005013296797_);" d="M109.596,284.003
					c-0.306-0.531-0.987-0.714-1.516-0.407c-0.531,0.306-0.714,0.986-0.407,1.516l2.334,4.043c0.205,0.356,0.579,0.556,0.962,0.556
					c0.188,0,0.38-0.048,0.554-0.149c0.531-0.306,0.714-0.986,0.407-1.516L109.596,284.003z"/>
				
					<linearGradient id="SVGID_00000150792290570981126670000014533880821629144993_" gradientUnits="userSpaceOnUse" x1="164.4992" y1="385.2625" x2="169.0539" y2="385.2625">
					<stop  offset="0" style="stop-color:#CC332B"/>
					<stop  offset="1" style="stop-color:#E1A133"/>
				</linearGradient>
				<path style="fill:url(#SVGID_00000150792290570981126670000014533880821629144993_);" d="M166.571,382.686
					c-0.306-0.531-0.988-0.715-1.516-0.407c-0.531,0.306-0.713,0.986-0.406,1.516l2.334,4.043c0.205,0.356,0.579,0.556,0.962,0.556
					c0.188,0,0.38-0.048,0.554-0.149c0.531-0.306,0.714-0.986,0.407-1.516L166.571,382.686z"/>
				
					<linearGradient id="SVGID_00000182497703398217861980000004096325675643671445_" gradientUnits="userSpaceOnUse" x1="95.2408" y1="295.6337" x2="100.763" y2="295.6337">
					<stop  offset="0" style="stop-color:#CC332B"/>
					<stop  offset="1" style="stop-color:#E1A133"/>
				</linearGradient>
				<path style="fill:url(#SVGID_00000182497703398217861980000004096325675643671445_);" d="M97.137,293.198
					c-0.434-0.433-1.137-0.433-1.571,0c-0.433,0.434-0.433,1.137,0,1.571l3.301,3.301c0.217,0.217,0.501,0.325,0.785,0.325
					c0.284,0,0.569-0.108,0.785-0.325c0.433-0.434,0.433-1.137,0-1.571L97.137,293.198z"/>
				
					<linearGradient id="SVGID_00000035497089041073464260000002752731387431560340_" gradientUnits="userSpaceOnUse" x1="175.8151" y1="376.2088" x2="181.3373" y2="376.2088">
					<stop  offset="0" style="stop-color:#CC332B"/>
					<stop  offset="1" style="stop-color:#E1A133"/>
				</linearGradient>
				<path style="fill:url(#SVGID_00000035497089041073464260000002752731387431560340_);" d="M177.711,373.773
					c-0.434-0.434-1.137-0.434-1.571,0c-0.434,0.434-0.434,1.137,0,1.571l3.301,3.301c0.217,0.217,0.501,0.325,0.785,0.325
					c0.284,0,0.569-0.108,0.785-0.325c0.434-0.434,0.434-1.137,0-1.571L177.711,373.773z"/>
				
					<linearGradient id="SVGID_00000018214295393461677390000002571844849022516152_" gradientUnits="userSpaceOnUse" x1="85.8156" y1="307.4336" x2="92.08" y2="307.4336">
					<stop  offset="0" style="stop-color:#CC332B"/>
					<stop  offset="1" style="stop-color:#E1A133"/>
				</linearGradient>
				<path style="fill:url(#SVGID_00000018214295393461677390000002571844849022516152_);" d="M91.524,307.64l-4.043-2.335
					c-0.529-0.308-1.21-0.125-1.516,0.407c-0.307,0.531-0.125,1.209,0.407,1.516l4.043,2.335c0.174,0.101,0.365,0.149,0.554,0.149
					c0.383,0,0.757-0.199,0.962-0.556C92.238,308.625,92.056,307.947,91.524,307.64z"/>
				
					<linearGradient id="SVGID_00000124880234278812779030000010939873854069278614_" gradientUnits="userSpaceOnUse" x1="184.4982" y1="364.4084" x2="190.7625" y2="364.4084">
					<stop  offset="0" style="stop-color:#CC332B"/>
					<stop  offset="1" style="stop-color:#E1A133"/>
				</linearGradient>
				<path style="fill:url(#SVGID_00000124880234278812779030000010939873854069278614_);" d="M190.207,364.615l-4.043-2.335
					c-0.528-0.308-1.209-0.126-1.516,0.406c-0.307,0.531-0.125,1.209,0.406,1.516l4.043,2.335c0.174,0.101,0.366,0.149,0.554,0.149
					c0.383,0,0.757-0.199,0.962-0.556C190.92,365.6,190.738,364.922,190.207,364.615z"/>
				
					<linearGradient id="SVGID_00000120527668312104984440000016574873003830188938_" gradientUnits="userSpaceOnUse" x1="79.8903" y1="321.1752" x2="86.621" y2="321.1752">
					<stop  offset="0" style="stop-color:#CC332B"/>
					<stop  offset="1" style="stop-color:#E1A133"/>
				</linearGradient>
				<path style="fill:url(#SVGID_00000120527668312104984440000016574873003830188938_);" d="M80.713,321.643l4.511,1.209
					c0.096,0.026,0.193,0.038,0.288,0.038c0.49,0,0.939-0.327,1.071-0.823c0.159-0.593-0.192-1.202-0.785-1.36l-4.511-1.208
					c-0.588-0.157-1.201,0.192-1.359,0.785C79.77,320.876,80.121,321.484,80.713,321.643z"/>
				
					<linearGradient id="SVGID_00000152243456944958393590000009037534937625212823_" gradientUnits="userSpaceOnUse" x1="189.9572" y1="350.6679" x2="196.6879" y2="350.6679">
					<stop  offset="0" style="stop-color:#CC332B"/>
					<stop  offset="1" style="stop-color:#E1A133"/>
				</linearGradient>
				<path style="fill:url(#SVGID_00000152243456944958393590000009037534937625212823_);" d="M195.865,350.199l-4.511-1.208
					c-0.59-0.157-1.201,0.193-1.359,0.785c-0.159,0.593,0.192,1.202,0.785,1.36l4.511,1.208c0.096,0.026,0.192,0.038,0.288,0.038
					c0.49,0,0.939-0.327,1.072-0.823C196.808,350.967,196.457,350.358,195.865,350.199z"/>
				
					<linearGradient id="SVGID_00000063626994804210050300000006661568901163483794_" gradientUnits="userSpaceOnUse" x1="77.8694" y1="335.9212" x2="84.7589" y2="335.9212">
					<stop  offset="0" style="stop-color:#CC332B"/>
					<stop  offset="1" style="stop-color:#E1A133"/>
				</linearGradient>
				<path style="fill:url(#SVGID_00000063626994804210050300000006661568901163483794_);" d="M84.759,335.921
					c0-0.613-0.498-1.111-1.111-1.111H78.98c-0.613,0-1.11,0.498-1.11,1.111c0,0.613,0.498,1.111,1.11,1.111h4.668
					C84.261,337.032,84.759,336.534,84.759,335.921z"/>
				
					<linearGradient id="SVGID_00000178913114895727761930000015494954068436394131_" gradientUnits="userSpaceOnUse" x1="191.8193" y1="335.9212" x2="198.7087" y2="335.9212">
					<stop  offset="0" style="stop-color:#CC332B"/>
					<stop  offset="1" style="stop-color:#E1A133"/>
				</linearGradient>
				<path style="fill:url(#SVGID_00000178913114895727761930000015494954068436394131_);" d="M197.598,334.811h-4.668
					c-0.613,0-1.111,0.498-1.111,1.111c0,0.613,0.498,1.111,1.111,1.111h4.668c0.613,0,1.111-0.498,1.111-1.111
					C198.709,335.308,198.211,334.811,197.598,334.811z"/>
				
					<linearGradient id="SVGID_00000169548761924324400470000007541395899961980037_" gradientUnits="userSpaceOnUse" x1="79.8903" y1="350.6678" x2="86.621" y2="350.6678">
					<stop  offset="0" style="stop-color:#CC332B"/>
					<stop  offset="1" style="stop-color:#E1A133"/>
				</linearGradient>
				<path style="fill:url(#SVGID_00000169548761924324400470000007541395899961980037_);" d="M86.583,349.776
					c-0.159-0.592-0.769-0.942-1.359-0.785l-4.511,1.208c-0.592,0.159-0.943,0.767-0.785,1.36c0.133,0.496,0.582,0.823,1.071,0.823
					c0.095,0,0.192-0.012,0.288-0.038l4.511-1.208C86.39,350.977,86.741,350.368,86.583,349.776z"/>
				
					<linearGradient id="SVGID_00000023983785049914037460000003232518284995791538_" gradientUnits="userSpaceOnUse" x1="189.9572" y1="321.1751" x2="196.6879" y2="321.1751">
					<stop  offset="0" style="stop-color:#CC332B"/>
					<stop  offset="1" style="stop-color:#E1A133"/>
				</linearGradient>
				<path style="fill:url(#SVGID_00000023983785049914037460000003232518284995791538_);" d="M189.995,322.067
					c0.133,0.496,0.582,0.823,1.071,0.823c0.095,0,0.192-0.012,0.288-0.038l4.511-1.209c0.592-0.159,0.943-0.767,0.785-1.36
					c-0.158-0.592-0.767-0.942-1.359-0.785l-4.511,1.208C190.188,320.865,189.837,321.474,189.995,322.067z"/>
				
					<linearGradient id="SVGID_00000041988305421613317610000000514429247867056826_" gradientUnits="userSpaceOnUse" x1="85.8156" y1="364.4085" x2="92.08" y2="364.4085">
					<stop  offset="0" style="stop-color:#CC332B"/>
					<stop  offset="1" style="stop-color:#E1A133"/>
				</linearGradient>
				<path style="fill:url(#SVGID_00000041988305421613317610000000514429247867056826_);" d="M90.415,362.28l-4.043,2.335
					c-0.531,0.307-0.714,0.986-0.407,1.516c0.205,0.356,0.579,0.556,0.962,0.556c0.188,0,0.38-0.048,0.554-0.149l4.043-2.335
					c0.531-0.307,0.713-0.986,0.407-1.516C91.625,362.155,90.943,361.972,90.415,362.28z"/>
				
					<linearGradient id="SVGID_00000150783667391168535130000003920912461268300735_" gradientUnits="userSpaceOnUse" x1="184.4982" y1="307.4336" x2="190.7625" y2="307.4336">
					<stop  offset="0" style="stop-color:#CC332B"/>
					<stop  offset="1" style="stop-color:#E1A133"/>
				</linearGradient>
				<path style="fill:url(#SVGID_00000150783667391168535130000003920912461268300735_);" d="M185.609,309.712
					c0.188,0,0.38-0.048,0.554-0.149l4.043-2.335c0.531-0.307,0.714-0.986,0.407-1.516c-0.306-0.531-0.987-0.714-1.516-0.407
					l-4.043,2.335c-0.531,0.307-0.713,0.986-0.406,1.516C184.853,309.512,185.226,309.712,185.609,309.712z"/>
				
					<linearGradient id="SVGID_00000094614367845655440910000008428552728470274451_" gradientUnits="userSpaceOnUse" x1="95.2408" y1="376.2088" x2="100.763" y2="376.2088">
					<stop  offset="0" style="stop-color:#CC332B"/>
					<stop  offset="1" style="stop-color:#E1A133"/>
				</linearGradient>
				<path style="fill:url(#SVGID_00000094614367845655440910000008428552728470274451_);" d="M98.867,373.773l-3.301,3.301
					c-0.433,0.434-0.433,1.137,0,1.571c0.217,0.217,0.501,0.325,0.785,0.325c0.284,0,0.569-0.108,0.785-0.325l3.301-3.301
					c0.433-0.434,0.433-1.137,0-1.571C100.004,373.339,99.301,373.339,98.867,373.773z"/>
				
					<linearGradient id="SVGID_00000088833482011669454290000015629172987700078747_" gradientUnits="userSpaceOnUse" x1="175.8151" y1="295.6337" x2="181.3373" y2="295.6337">
					<stop  offset="0" style="stop-color:#CC332B"/>
					<stop  offset="1" style="stop-color:#E1A133"/>
				</linearGradient>
				<path style="fill:url(#SVGID_00000088833482011669454290000015629172987700078747_);" d="M179.441,293.198l-3.301,3.301
					c-0.434,0.434-0.434,1.137,0,1.571c0.217,0.217,0.501,0.325,0.785,0.325c0.284,0,0.569-0.108,0.785-0.325l3.301-3.301
					c0.434-0.434,0.434-1.137,0-1.571C180.579,292.764,179.875,292.764,179.441,293.198z"/>
				
					<linearGradient id="SVGID_00000042006303027285519770000005993008864303448244_" gradientUnits="userSpaceOnUse" x1="107.5242" y1="385.2625" x2="112.079" y2="385.2625">
					<stop  offset="0" style="stop-color:#CC332B"/>
					<stop  offset="1" style="stop-color:#E1A133"/>
				</linearGradient>
				<path style="fill:url(#SVGID_00000042006303027285519770000005993008864303448244_);" d="M111.523,382.28
					c-0.529-0.309-1.21-0.125-1.516,0.407l-2.334,4.043c-0.307,0.531-0.125,1.21,0.407,1.516c0.174,0.102,0.366,0.149,0.554,0.149
					c0.383,0,0.757-0.199,0.962-0.556l2.334-4.043C112.237,383.266,112.055,382.586,111.523,382.28z"/>
				
					<linearGradient id="SVGID_00000036945020806005696960000006047796177224410246_" gradientUnits="userSpaceOnUse" x1="164.4992" y1="286.5795" x2="169.0539" y2="286.5795">
					<stop  offset="0" style="stop-color:#CC332B"/>
					<stop  offset="1" style="stop-color:#E1A133"/>
				</linearGradient>
				<path style="fill:url(#SVGID_00000036945020806005696960000006047796177224410246_);" d="M168.498,283.596
					c-0.529-0.308-1.21-0.124-1.516,0.407l-2.334,4.043c-0.307,0.531-0.125,1.21,0.406,1.516c0.174,0.101,0.366,0.149,0.554,0.149
					c0.383,0,0.757-0.199,0.962-0.556l2.334-4.043C169.212,284.582,169.03,283.902,168.498,283.596z"/>
				
					<linearGradient id="SVGID_00000137090443105313369700000011481729567186313110_" gradientUnits="userSpaceOnUse" x1="121.8284" y1="390.955" x2="125.2579" y2="390.955">
					<stop  offset="0" style="stop-color:#CC332B"/>
					<stop  offset="1" style="stop-color:#E1A133"/>
				</linearGradient>
				<path style="fill:url(#SVGID_00000137090443105313369700000011481729567186313110_);" d="M124.435,387.628
					c-0.595-0.159-1.201,0.193-1.36,0.785l-1.209,4.511c-0.159,0.592,0.193,1.201,0.785,1.359c0.097,0.026,0.193,0.038,0.289,0.038
					c0.49,0,0.939-0.327,1.072-0.823l1.208-4.511C125.378,388.395,125.027,387.786,124.435,387.628z"/>
				
					<linearGradient id="SVGID_00000176748737190770101620000014454597163355071895_" gradientUnits="userSpaceOnUse" x1="151.3203" y1="280.8884" x2="154.7497" y2="280.8884">
					<stop  offset="0" style="stop-color:#CC332B"/>
					<stop  offset="1" style="stop-color:#E1A133"/>
				</linearGradient>
				<path style="fill:url(#SVGID_00000176748737190770101620000014454597163355071895_);" d="M153.927,277.561
					c-0.594-0.158-1.202,0.192-1.36,0.784l-1.208,4.511c-0.159,0.592,0.192,1.201,0.785,1.359c0.097,0.026,0.193,0.038,0.289,0.038
					c0.49,0,0.939-0.327,1.072-0.823l1.208-4.511C154.87,278.328,154.519,277.72,153.927,277.561z"/>
			</g>
			<circle style="fill:#FFFFFF;" cx="138.289" cy="313.537" r="7.013"/>
			<path style="fill:#FFFFFF;" d="M207.596,285.06c-2.632-2.316-6.667-2.027-9.149,0.448l-49.402,49.273l-7.798,7.777
				c-1.197,1.193-3.134,1.192-4.328-0.003l-5.387-5.387l-14.044-14.044c-2.571-2.571-6.739-2.571-9.31,0h0
				c-1.285,1.286-1.928,2.97-1.928,4.655c0,1.685,0.643,3.37,1.928,4.655l8.45,8.45l17.462,17.462
				c1.37,1.37,3.193,2.002,4.987,1.912c1.791,0.09,3.611-0.54,4.981-1.906l63.848-63.681C210.582,292,210.48,287.599,207.596,285.06
				z"/>
			
				<linearGradient id="SVGID_00000092450407445588448560000005261551065843783352_" gradientUnits="userSpaceOnUse" x1="105.2901" y1="321.8692" x2="210.7979" y2="321.8692">
				<stop  offset="0" style="stop-color:#722E8E"/>
				<stop  offset="1" style="stop-color:#C80087"/>
			</linearGradient>
			<path style="fill:url(#SVGID_00000092450407445588448560000005261551065843783352_);" d="M139.407,361.226
				c-0.11,0-0.221-0.003-0.331-0.007c-2.122,0.085-4.176-0.706-5.665-2.194l-25.912-25.912c-1.424-1.424-2.209-3.318-2.209-5.333
				c0-2.014,0.785-3.908,2.209-5.332c1.424-1.425,3.319-2.21,5.333-2.21c2.015,0,3.909,0.785,5.333,2.21l19.431,19.431
				c0.819,0.818,2.152,0.819,2.973,0.002l57.199-57.05c2.897-2.888,7.492-3.103,10.46-0.49c1.588,1.399,2.499,3.328,2.565,5.435
				c0.065,2.077-0.742,4.109-2.212,5.575l-63.848,63.682C143.324,360.438,141.401,361.226,139.407,361.226z M139.076,359.298
				l0.048,0.002c1.581,0.082,3.139-0.512,4.256-1.626l63.848-63.682c1.113-1.109,1.698-2.586,1.649-4.158
				c-0.049-1.57-0.729-3.01-1.914-4.054l0,0c-2.213-1.949-5.655-1.771-7.838,0.408l-57.199,57.05
				c-1.569,1.564-4.119,1.563-5.684-0.004l-19.431-19.431c-1.062-1.062-2.475-1.648-3.977-1.648s-2.914,0.586-3.977,1.648
				c-1.062,1.062-1.647,2.474-1.647,3.976c0,1.503,0.585,2.915,1.647,3.977l25.912,25.912c1.118,1.117,2.664,1.707,4.26,1.632
				L139.076,359.298z"/>
		</g>
		<g>
			<text transform="matrix(1 0 0 1 67.3294 429.0472)" style="font-family:'Montserrat-ExtraBold'; font-size:19.7679px;">LOREM IPSUM</text>
			<text transform="matrix(1 0 0 1 96.3133 444.5013)" style="font-family:'Montserrat-Regular'; font-size:7.4547px;">YOUR TAGLINE HERE</text>
		</g>
	</g>
	<g>
		<g>
			<g>
				
					<linearGradient id="SVGID_00000031927291146135366980000012435128478634910628_" gradientUnits="userSpaceOnUse" x1="355.4788" y1="341.8905" x2="338.0115" y2="322.3061">
					<stop  offset="0" style="stop-color:#722E8E"/>
					<stop  offset="1" style="stop-color:#C80087"/>
				</linearGradient>
				<path style="fill:url(#SVGID_00000031927291146135366980000012435128478634910628_);" d="M331.389,326.614l22.33,28.705
					c2.792,3.589,8.332,3.2,10.595-0.744l7.278-10.043l-36.203-22.385C332.499,320.371,329.306,323.936,331.389,326.614z"/>
				
					<linearGradient id="SVGID_00000091727222188252372350000010611123228631977632_" gradientUnits="userSpaceOnUse" x1="415.9636" y1="288.0949" x2="352.4822" y2="352.0396">
					<stop  offset="0" style="stop-color:#722E8E"/>
					<stop  offset="1" style="stop-color:#C80087"/>
				</linearGradient>
				<path style="fill:url(#SVGID_00000091727222188252372350000010611123228631977632_);" d="M410.003,292.081l-45.79,62.527
					c-2.271,3.958-7.839,4.331-10.618,0.71l-8.266-10.771l62.005-54.434C408.686,288.66,410.991,290.359,410.003,292.081z"/>
			</g>
			<g>
				
					<linearGradient id="SVGID_00000176761438594393719930000005616370010611400124_" gradientUnits="userSpaceOnUse" x1="354.2754" y1="383.4926" x2="360.7048" y2="383.4926">
					<stop  offset="0" style="stop-color:#722E8E"/>
					<stop  offset="1" style="stop-color:#C80087"/>
				</linearGradient>
				<path style="fill:url(#SVGID_00000176761438594393719930000005616370010611400124_);" d="M360.705,386.599
					c0,1.775-1.439,3.215-3.215,3.215c-1.775,0-3.215-1.439-3.215-3.215c0-0.603,3.215-9.427,3.215-9.427
					S360.705,385.996,360.705,386.599z"/>
				
					<linearGradient id="SVGID_00000141456726786467614050000005536540296266672266_" gradientUnits="userSpaceOnUse" x1="354.2754" y1="283.5981" x2="360.7048" y2="283.5981">
					<stop  offset="0" style="stop-color:#722E8E"/>
					<stop  offset="1" style="stop-color:#C80087"/>
				</linearGradient>
				<path style="fill:url(#SVGID_00000141456726786467614050000005536540296266672266_);" d="M360.705,280.492
					c0-1.775-1.439-3.215-3.215-3.215c-1.775,0-3.215,1.439-3.215,3.215c0,0.603,3.215,9.427,3.215,9.427
					S360.705,281.095,360.705,280.492z"/>
			</g>
			<g>
				
					<linearGradient id="SVGID_00000123433249325487114020000002848491109905413506_" gradientUnits="userSpaceOnUse" x1="331.8532" y1="288.1268" x2="339.0529" y2="288.1268">
					<stop  offset="0" style="stop-color:#722E8E"/>
					<stop  offset="1" style="stop-color:#C80087"/>
				</linearGradient>
				<path style="fill:url(#SVGID_00000123433249325487114020000002848491109905413506_);" d="M337.982,284.104
					c-0.75-1.609-2.663-2.305-4.272-1.555c-1.609,0.75-2.305,2.663-1.555,4.272c0.255,0.547,6.898,7.186,6.898,7.186
					S338.237,284.651,337.982,284.104z"/>
			</g>
			<g>
				
					<linearGradient id="SVGID_00000010274162611883888960000017430203850629784727_" gradientUnits="userSpaceOnUse" x1="313.6339" y1="300.8657" x2="324.0705" y2="300.8657">
					<stop  offset="0" style="stop-color:#722E8E"/>
					<stop  offset="1" style="stop-color:#C80087"/>
				</linearGradient>
				<path style="fill:url(#SVGID_00000010274162611883888960000017430203850629784727_);" d="M318.915,296.98
					c-1.36-1.141-3.388-0.964-4.529,0.396c-1.141,1.36-0.964,3.388,0.396,4.529c0.462,0.388,9.288,3.597,9.288,3.597
					S319.377,297.368,318.915,296.98z"/>
			</g>
			<g>
				
					<linearGradient id="SVGID_00000004509132048651000180000015515095608919500418_" gradientUnits="userSpaceOnUse" x1="303.0287" y1="319.7687" x2="315.3505" y2="319.7687">
					<stop  offset="0" style="stop-color:#722E8E"/>
					<stop  offset="1" style="stop-color:#C80087"/>
				</linearGradient>
				<path style="fill:url(#SVGID_00000004509132048651000180000015515095608919500418_);" d="M307.076,316.709
					c-1.715-0.46-3.478,0.558-3.937,2.273s0.558,3.478,2.273,3.937c0.583,0.156,9.938-0.665,9.938-0.665
					S307.659,316.865,307.076,316.709z"/>
			</g>
			<g>
				
					<linearGradient id="SVGID_00000140704429116056565770000010083427764118653109_" gradientUnits="userSpaceOnUse" x1="400.4535" y1="324.3104" x2="412.9529" y2="324.3104">
					<stop  offset="0" style="stop-color:#722E8E"/>
					<stop  offset="1" style="stop-color:#C80087"/>
				</linearGradient>
				<path style="fill:url(#SVGID_00000140704429116056565770000010083427764118653109_);" d="M409.179,321.167
					c1.748-0.308,3.416,0.859,3.724,2.608c0.308,1.748-0.859,3.416-2.608,3.724c-0.594,0.105-9.842-1.529-9.842-1.529
					S408.585,321.272,409.179,321.167z"/>
				
					<linearGradient id="SVGID_00000033370136071776065250000017880065279415420589_" gradientUnits="userSpaceOnUse" x1="302.0273" y1="342.7802" x2="314.5267" y2="342.7802">
					<stop  offset="0" style="stop-color:#722E8E"/>
					<stop  offset="1" style="stop-color:#C80087"/>
				</linearGradient>
				<path style="fill:url(#SVGID_00000033370136071776065250000017880065279415420589_);" d="M304.684,339.592
					c-1.749,0.308-2.916,1.976-2.608,3.724c0.308,1.748,1.976,2.916,3.724,2.608c0.594-0.105,8.726-4.803,8.726-4.803
					S305.279,339.487,304.684,339.592z"/>
			</g>
			<g>
				
					<linearGradient id="SVGID_00000142154128048983704180000007662115163098208391_" gradientUnits="userSpaceOnUse" x1="310.8162" y1="362.8794" x2="321.7537" y2="362.8794">
					<stop  offset="0" style="stop-color:#722E8E"/>
					<stop  offset="1" style="stop-color:#C80087"/>
				</linearGradient>
				<path style="fill:url(#SVGID_00000142154128048983704180000007662115163098208391_);" d="M312.187,361.342
					c-1.454,1.018-1.808,3.023-0.789,4.477c1.018,1.454,3.023,1.808,4.477,0.789c0.494-0.346,5.879-8.041,5.879-8.041
					S312.681,360.996,312.187,361.342z"/>
			</g>
			<g>
				
					<linearGradient id="SVGID_00000122700164953456083200000000094243035715482303_" gradientUnits="userSpaceOnUse" x1="379.3032" y1="290.0741" x2="387.2321" y2="290.0741">
					<stop  offset="0" style="stop-color:#722E8E"/>
					<stop  offset="1" style="stop-color:#C80087"/>
				</linearGradient>
				<path style="fill:url(#SVGID_00000122700164953456083200000000094243035715482303_);" d="M381.233,285.992
					c0.888-1.538,2.854-2.064,4.391-1.177c1.538,0.888,2.064,2.854,1.177,4.391c-0.302,0.522-7.498,6.557-7.498,6.557
					S380.931,286.515,381.233,285.992z"/>
				
					<linearGradient id="SVGID_00000083062157762245541440000010591114785559786643_" gradientUnits="userSpaceOnUse" x1="327.7481" y1="377.0165" x2="335.677" y2="377.0165">
					<stop  offset="0" style="stop-color:#722E8E"/>
					<stop  offset="1" style="stop-color:#C80087"/>
				</linearGradient>
				<path style="fill:url(#SVGID_00000083062157762245541440000010591114785559786643_);" d="M328.179,377.884
					c-0.888,1.538-0.361,3.504,1.177,4.391c1.538,0.888,3.504,0.361,4.391-1.177c0.302-0.522,1.93-9.772,1.93-9.772
					S328.481,377.361,328.179,377.884z"/>
			</g>
			
				<linearGradient id="SVGID_00000039092014862627177790000012222341468641018555_" gradientUnits="userSpaceOnUse" x1="360.2448" y1="294.9382" x2="368.1734" y2="294.9382" gradientTransform="matrix(0.2613 0.9653 -0.9653 0.2613 595.7224 -81.5692)">
				<stop  offset="0" style="stop-color:#722E8E"/>
				<stop  offset="1" style="stop-color:#C80087"/>
			</linearGradient>
			<path style="fill:url(#SVGID_00000039092014862627177790000012222341468641018555_);" d="M409.595,344.039
				c1.716,0.455,2.738,2.215,2.283,3.931c-0.455,1.716-2.215,2.738-3.931,2.283c-0.583-0.155-8.288-5.524-8.288-5.524
				S409.012,343.884,409.595,344.039z"/>
			
				<linearGradient id="SVGID_00000137091037878502309460000001097924264325554560_" gradientUnits="userSpaceOnUse" x1="357.2678" y1="301.4" x2="365.1966" y2="301.4" gradientTransform="matrix(-0.1756 0.9845 -0.9845 -0.1756 755.9194 63.8491)">
				<stop  offset="0" style="stop-color:#722E8E"/>
				<stop  offset="1" style="stop-color:#C80087"/>
			</linearGradient>
			<path style="fill:url(#SVGID_00000137091037878502309460000001097924264325554560_);" d="M400.135,365.27
				c1.358,1.144,1.531,3.172,0.387,4.53c-1.144,1.358-3.172,1.531-4.53,0.387c-0.461-0.389-5.138-8.533-5.138-8.533
				S399.673,364.882,400.135,365.27z"/>
			
				<linearGradient id="SVGID_00000072271024419234030150000003664282568701450419_" gradientUnits="userSpaceOnUse" x1="357.4151" y1="308.2971" x2="365.344" y2="308.2971" gradientTransform="matrix(-0.5727 0.8198 -0.8198 -0.5727 838.0674 259.8756)">
				<stop  offset="0" style="stop-color:#722E8E"/>
				<stop  offset="1" style="stop-color:#C80087"/>
			</linearGradient>
			<path style="fill:url(#SVGID_00000072271024419234030150000003664282568701450419_);" d="M382.875,380.242
				c0.752,1.608,0.058,3.522-1.55,4.274c-1.608,0.752-3.522,0.058-4.274-1.55c-0.256-0.547-1.081-9.902-1.081-9.902
				S382.619,379.696,382.875,380.242z"/>
			<g>
				
					<linearGradient id="SVGID_00000143599411516250087490000014921364164440493198_" gradientUnits="userSpaceOnUse" x1="355.694" y1="272.8315" x2="359.2862" y2="272.8315">
					<stop  offset="0" style="stop-color:#CC332B"/>
					<stop  offset="1" style="stop-color:#E1A133"/>
				</linearGradient>
				<circle style="fill:url(#SVGID_00000143599411516250087490000014921364164440493198_);" cx="357.49" cy="272.832" r="1.796"/>
				
					<linearGradient id="SVGID_00000080202329803954813510000007274711576156499647_" gradientUnits="userSpaceOnUse" x1="355.694" y1="394.2591" x2="359.2862" y2="394.2591">
					<stop  offset="0" style="stop-color:#CC332B"/>
					<stop  offset="1" style="stop-color:#E1A133"/>
				</linearGradient>
				<path style="fill:url(#SVGID_00000080202329803954813510000007274711576156499647_);" d="M357.49,392.463
					c-0.992,0-1.796,0.804-1.796,1.796s0.804,1.796,1.796,1.796s1.796-0.804,1.796-1.796S358.482,392.463,357.49,392.463z"/>
				
					<linearGradient id="SVGID_00000064315688740623546570000011349852257819106688_" gradientUnits="userSpaceOnUse" x1="381.3977" y1="388.1674" x2="384.99" y2="388.1674">
					<stop  offset="0" style="stop-color:#CC332B"/>
					<stop  offset="1" style="stop-color:#E1A133"/>
				</linearGradient>
				<path style="fill:url(#SVGID_00000064315688740623546570000011349852257819106688_);" d="M383.194,386.371
					c-0.992,0-1.796,0.804-1.796,1.796c0,0.992,0.804,1.796,1.796,1.796c0.992,0,1.796-0.804,1.796-1.796
					C384.99,387.175,384.186,386.371,383.194,386.371z"/>
				
					<linearGradient id="SVGID_00000111159125032764861420000005661522392589429157_" gradientUnits="userSpaceOnUse" x1="402.1985" y1="372.5669" x2="405.7907" y2="372.5669">
					<stop  offset="0" style="stop-color:#CC332B"/>
					<stop  offset="1" style="stop-color:#E1A133"/>
				</linearGradient>
				<path style="fill:url(#SVGID_00000111159125032764861420000005661522392589429157_);" d="M403.995,370.771
					c-0.992,0-1.796,0.804-1.796,1.796s0.804,1.796,1.796,1.796s1.796-0.804,1.796-1.796S404.987,370.771,403.995,370.771z"/>
				
					<linearGradient id="SVGID_00000053547260616008559930000015027219167833043331_" gradientUnits="userSpaceOnUse" x1="414.3818" y1="349.686" x2="417.974" y2="349.686">
					<stop  offset="0" style="stop-color:#CC332B"/>
					<stop  offset="1" style="stop-color:#E1A133"/>
				</linearGradient>
				<path style="fill:url(#SVGID_00000053547260616008559930000015027219167833043331_);" d="M416.178,347.89
					c-0.992,0-1.796,0.804-1.796,1.796s0.804,1.796,1.796,1.796s1.796-0.804,1.796-1.796S417.17,347.89,416.178,347.89z"/>
				
					<linearGradient id="SVGID_00000047020905854159809250000004483259443578854031_" gradientUnits="userSpaceOnUse" x1="330.0348" y1="278.5199" x2="333.6279" y2="278.5199">
					<stop  offset="0" style="stop-color:#CC332B"/>
					<stop  offset="1" style="stop-color:#E1A133"/>
				</linearGradient>
				<path style="fill:url(#SVGID_00000047020905854159809250000004483259443578854031_);" d="M331.072,276.892
					c-0.899,0.419-1.288,1.488-0.869,2.387c0.419,0.899,1.488,1.288,2.387,0.869c0.899-0.419,1.288-1.488,0.869-2.387
					C333.04,276.862,331.971,276.473,331.072,276.892z"/>
				
					<linearGradient id="SVGID_00000112600511715402939000000009861244737287871629_" gradientUnits="userSpaceOnUse" x1="309.1844" y1="294.5192" x2="312.7768" y2="294.5192">
					<stop  offset="0" style="stop-color:#CC332B"/>
					<stop  offset="1" style="stop-color:#E1A133"/>
				</linearGradient>
				<path style="fill:url(#SVGID_00000112600511715402939000000009861244737287871629_);" d="M309.605,293.365
					c-0.638,0.76-0.539,1.893,0.221,2.531c0.76,0.638,1.893,0.538,2.531-0.221c0.638-0.76,0.538-1.893-0.221-2.53
					C311.375,292.506,310.242,292.605,309.605,293.365z"/>
				
					<linearGradient id="SVGID_00000057143959916558499890000005356209563648768443_" gradientUnits="userSpaceOnUse" x1="297.0485" y1="317.8314" x2="300.6417" y2="317.8314">
					<stop  offset="0" style="stop-color:#CC332B"/>
					<stop  offset="1" style="stop-color:#E1A133"/>
				</linearGradient>
				<path style="fill:url(#SVGID_00000057143959916558499890000005356209563648768443_);" d="M299.31,316.096
					c-0.958-0.257-1.943,0.312-2.2,1.27c-0.257,0.958,0.312,1.943,1.27,2.2c0.958,0.257,1.943-0.312,2.2-1.27
					C300.837,317.338,300.268,316.353,299.31,316.096z"/>
				
					<linearGradient id="SVGID_00000002343882318963629470000003885489977315893637_" gradientUnits="userSpaceOnUse" x1="295.9023" y1="344.0881" x2="299.4951" y2="344.0881">
					<stop  offset="0" style="stop-color:#CC332B"/>
					<stop  offset="1" style="stop-color:#E1A133"/>
				</linearGradient>
				<path style="fill:url(#SVGID_00000002343882318963629470000003885489977315893637_);" d="M297.387,342.319
					c-0.977,0.172-1.629,1.104-1.457,2.081c0.172,0.977,1.104,1.629,2.081,1.457c0.977-0.172,1.629-1.104,1.457-2.081
					C299.295,342.799,298.364,342.147,297.387,342.319z"/>
				
					<linearGradient id="SVGID_00000114766954239214933300000003672011431806138257_" gradientUnits="userSpaceOnUse" x1="415.4851" y1="323.0024" x2="419.078" y2="323.0024">
					<stop  offset="0" style="stop-color:#CC332B"/>
					<stop  offset="1" style="stop-color:#E1A133"/>
				</linearGradient>
				<path style="fill:url(#SVGID_00000114766954239214933300000003672011431806138257_);" d="M419.05,322.69
					c-0.172-0.977-1.104-1.629-2.081-1.457c-0.977,0.172-1.629,1.104-1.457,2.081c0.172,0.977,1.104,1.629,2.081,1.457
					C418.57,324.599,419.223,323.668,419.05,322.69z"/>
				
					<linearGradient id="SVGID_00000124135237206840279270000011053243112826762658_" gradientUnits="userSpaceOnUse" x1="305.96" y1="368.3693" x2="309.5526" y2="368.3693">
					<stop  offset="0" style="stop-color:#CC332B"/>
					<stop  offset="1" style="stop-color:#E1A133"/>
				</linearGradient>
				<path style="fill:url(#SVGID_00000124135237206840279270000011053243112826762658_);" d="M306.726,366.898
					c-0.813,0.569-1.01,1.689-0.441,2.502c0.569,0.813,1.689,1.01,2.502,0.441c0.813-0.569,1.01-1.689,0.441-2.501
					C308.659,366.526,307.539,366.329,306.726,366.898z"/>
				
					<linearGradient id="SVGID_00000106830444675441314160000001059135618096561561_" gradientUnits="userSpaceOnUse" x1="325.3367" y1="386.125" x2="328.9297" y2="386.125">
					<stop  offset="0" style="stop-color:#CC332B"/>
					<stop  offset="1" style="stop-color:#E1A133"/>
				</linearGradient>
				<path style="fill:url(#SVGID_00000106830444675441314160000001059135618096561561_);" d="M328.031,384.569
					c-0.859-0.496-1.958-0.202-2.454,0.657s-0.202,1.958,0.658,2.454c0.859,0.496,1.957,0.202,2.453-0.657
					C329.185,386.164,328.89,385.065,328.031,384.569z"/>
				
					<linearGradient id="SVGID_00000139286629221140565440000000921807466246347424_" gradientUnits="userSpaceOnUse" x1="386.0505" y1="280.9656" x2="389.6434" y2="280.9656">
					<stop  offset="0" style="stop-color:#CC332B"/>
					<stop  offset="1" style="stop-color:#E1A133"/>
				</linearGradient>
				<path style="fill:url(#SVGID_00000139286629221140565440000000921807466246347424_);" d="M388.745,279.41
					c-0.859-0.496-1.958-0.202-2.454,0.658c-0.496,0.859-0.202,1.957,0.658,2.453c0.859,0.496,1.957,0.202,2.453-0.657
					S389.604,279.906,388.745,279.41z"/>
			</g>
		</g>
		<g>
			<text transform="matrix(1 0 0 1 282.7187 429.0472)" style="font-family:'Montserrat-ExtraBold'; font-size:19.7679px;">LOREM IPSUM</text>
			<text transform="matrix(1 0 0 1 311.7031 444.5013)" style="font-family:'Montserrat-Regular'; font-size:7.4547px;">YOUR TAGLINE HERE</text>
		</g>
	</g>
	<g>
		<g>
			<text transform="matrix(1 0 0 1 67.3294 215.4579)" style="font-family:'Montserrat-ExtraBold'; font-size:19.7679px;">LOREM IPSUM</text>
			<text transform="matrix(1 0 0 1 96.3128 230.912)" style="font-family:'Montserrat-Regular'; font-size:7.4547px;">YOUR TAGLINE HERE</text>
		</g>
		<g>
			<g>
				
					<ellipse transform="matrix(0.0647 -0.9979 0.9979 0.0647 2.6253 245.7657)" style="fill:#F0F0F0;" cx="132.427" cy="121.482" rx="54.62" ry="45.489"/>
				<g>
					
						<linearGradient id="SVGID_00000002350123973970349670000012338090440671936702_" gradientUnits="userSpaceOnUse" x1="94.0573" y1="86.1504" x2="155.6845" y2="86.1504">
						<stop  offset="0" style="stop-color:#722E8E"/>
						<stop  offset="1" style="stop-color:#C80087"/>
					</linearGradient>
					<path style="fill:url(#SVGID_00000002350123973970349670000012338090440671936702_);" d="M95.496,101.776
						c-0.184,0-0.37-0.035-0.55-0.11c-0.734-0.304-1.083-1.145-0.779-1.88c7.806-18.86,24.115-30.307,41.561-29.186
						c6.867,0.446,13.56,2.883,19.356,7.046c0.646,0.464,0.793,1.363,0.329,2.008c-0.463,0.645-1.363,0.794-2.008,0.329
						c-5.435-3.904-11.445-6.095-17.864-6.511c-16.196-1.058-31.389,9.71-38.716,27.414
						C96.597,101.441,96.061,101.776,95.496,101.776z"/>
				</g>
				<g>
					
						<linearGradient id="SVGID_00000163053005065485027630000006588336589900267705_" gradientUnits="userSpaceOnUse" x1="101.4378" y1="130.5824" x2="175.1708" y2="130.5824">
						<stop  offset="0" style="stop-color:#722E8E"/>
						<stop  offset="1" style="stop-color:#C80087"/>
					</linearGradient>
					<path style="fill:url(#SVGID_00000163053005065485027630000006588336589900267705_);" d="M131.469,172.44
						c-0.778,0-1.559-0.025-2.344-0.076c-10.392-0.674-20.106-5.835-27.354-14.53c-0.509-0.61-0.426-1.518,0.184-2.027
						c0.611-0.508,1.518-0.426,2.027,0.184c6.738,8.083,15.733,12.878,25.329,13.501c0.722,0.047,1.444,0.07,2.16,0.07
						c21.005,0.002,39.037-19.901,40.698-45.501c0.781-12.038-2.18-23.794-8.338-33.103c-0.439-0.663-0.257-1.556,0.406-1.994
						c0.664-0.438,1.556-0.256,1.994,0.406c6.502,9.83,9.631,22.216,8.81,34.878C173.282,151.367,153.977,172.44,131.469,172.44z"/>
				</g>
				
					<linearGradient id="SVGID_00000119113964813385765850000002627510593419210940_" gradientUnits="userSpaceOnUse" x1="86.9381" y1="119.3364" x2="197.3066" y2="119.3364">
					<stop  offset="0" style="stop-color:#722E8E"/>
					<stop  offset="1" style="stop-color:#C80087"/>
				</linearGradient>
				<path style="fill:url(#SVGID_00000119113964813385765850000002627510593419210940_);" d="M148.944,54.126
					c-25.976-3.923-50.88,12.393-62.006,38.247c10.961-19.738,31.406-31.658,52.65-28.449c28.347,4.281,47.382,33.876,42.514,66.102
					c-4.867,32.225-31.793,54.878-60.14,50.597c-5.196-0.785-10.075-2.427-14.555-4.773c6.432,4.443,13.8,7.482,21.839,8.697
					c31.68,4.785,61.772-20.532,67.212-56.546C201.897,91.986,180.625,58.911,148.944,54.126z"/>
				
					<linearGradient id="SVGID_00000028301941582088773350000004922197618818597001_" gradientUnits="userSpaceOnUse" x1="124.7032" y1="104.5516" x2="158.8271" y2="104.5516">
					<stop  offset="0" style="stop-color:#CC332B"/>
					<stop  offset="1" style="stop-color:#E1A133"/>
				</linearGradient>
				<polygon style="fill:url(#SVGID_00000028301941582088773350000004922197618818597001_);" points="124.703,123.169 
					143.099,95.386 141.693,90.704 158.827,85.934 156.415,104.015 152.088,102.953 				"/>
				
					<linearGradient id="SVGID_00000148641347914195740700000011107402758402973326_" gradientUnits="userSpaceOnUse" x1="121.4272" y1="143.3427" x2="131.6243" y2="143.3427">
					<stop  offset="0" style="stop-color:#CC332B"/>
					<stop  offset="1" style="stop-color:#E1A133"/>
				</linearGradient>
				<polygon style="fill:url(#SVGID_00000148641347914195740700000011107402758402973326_);" points="124.665,125.966 
					123.533,148.718 121.427,152.218 126.602,160.72 131.624,151.76 129.402,148.984 				"/>
			</g>
			
				<linearGradient id="SVGID_00000114052830515721139980000006631037144785251457_" gradientUnits="userSpaceOnUse" x1="80.7686" y1="136.0681" x2="103.4105" y2="136.0681">
				<stop  offset="0" style="stop-color:#722E8E"/>
				<stop  offset="1" style="stop-color:#C80087"/>
			</linearGradient>
			<path style="fill:url(#SVGID_00000114052830515721139980000006631037144785251457_);" d="M85.491,102.446
				c0,0-14.644,40.463,17.919,67.245C103.41,169.691,68.343,151.193,85.491,102.446z"/>
		</g>
	</g>
</g>
</svg>
