<?xml version="1.0" encoding="utf-8"?>
<!-- Generator: Adobe Illustrator 27.5.0, SVG Export Plug-In . SVG Version: 6.00 Build 0)  -->
<svg version="1.1" id="Layer_1" xmlns="http://www.w3.org/2000/svg" xmlns:xlink="http://www.w3.org/1999/xlink" x="0px" y="0px"
	 viewBox="0 0 4000 4000" style="enable-background:new 0 0 4000 4000;" xml:space="preserve">
<g>
	<rect style="fill-rule:evenodd;clip-rule:evenodd;fill:#FFFFFF;" width="4000" height="4000"/>
	<g>
		<defs>
			<path id="SVGID_1_" d="M1929.966,1630.363c35.185,144.989,146.161,259.535,289.963,299.294
				c143.802,39.746,297.844-1.529,402.507-107.866c104.663-106.323,143.488-261.01,101.46-404.168
				c-105.307-312.631-379.984-537.599-707.231-579.255c-327.244-41.669-649.534,107.299-829.814,383.557
				c-180.295,276.271-186.897,631.257-17.003,914.026c-66.932-202.42,9.739-424.594,187.253-542.673
				C1534.614,1475.213,1769.149,1490.395,1929.966,1630.363"/>
		</defs>
		<clipPath id="SVGID_00000158710674754299408170000004616220490903096737_">
			<use xlink:href="#SVGID_1_"  style="overflow:visible;"/>
		</clipPath>
		
			<linearGradient id="SVGID_00000145763411734172437510000009528532496905089423_" gradientUnits="userSpaceOnUse" x1="2421.606" y1="1477.1267" x2="968.0717" y2="1447.9789">
			<stop  offset="0" style="stop-color:#FFCE4B"/>
			<stop  offset="1" style="stop-color:#C31656"/>
		</linearGradient>
		
			<rect x="999.953" y="796.698" style="clip-path:url(#SVGID_00000158710674754299408170000004616220490903096737_);fill:url(#SVGID_00000145763411734172437510000009528532496905089423_);" width="1765.97" height="1339.253"/>
	</g>
	<g>
		<defs>
			<path id="SVGID_00000063635349975491206030000009767302547189149860_" d="M1650.216,2203.622
				c-43.318-231.861,70.319-464.736,279.75-573.26c-160.817-139.968-395.352-155.149-572.866-37.084
				c-177.514,118.079-254.184,340.253-187.253,542.673c139.585,302.708,437.709,501.042,770.846,512.836
				c60.092,2.125,119.477-1.883,177.396-11.598C1883.61,2611.606,1693.543,2435.493,1650.216,2203.622"/>
		</defs>
		<clipPath id="SVGID_00000043442193491983018720000002530244030827876750_">
			<use xlink:href="#SVGID_00000063635349975491206030000009767302547189149860_"  style="overflow:visible;"/>
		</clipPath>
		
			<linearGradient id="SVGID_00000178168163268359099790000011233090552997797768_" gradientUnits="userSpaceOnUse" x1="1227.0093" y1="1744.8662" x2="1925.396" y2="2324.3403">
			<stop  offset="0" style="stop-color:#0D4B78"/>
			<stop  offset="1" style="stop-color:#EC05D9"/>
		</linearGradient>
		
			<rect x="1102.916" y="1475.213" style="clip-path:url(#SVGID_00000043442193491983018720000002530244030827876750_);fill:url(#SVGID_00000178168163268359099790000011233090552997797768_);" width="1015.174" height="1175.7"/>
	</g>
	<g>
		<defs>
			<path id="SVGID_00000170972727466652192090000007306878360291729551_" d="M1929.966,1630.363
				c-209.431,108.524-323.069,341.399-279.75,573.26c43.327,231.87,233.394,407.984,467.874,433.567
				c263.174-44.137,496.11-206.055,627.776-445.454c20.584-34.884,20.979-78.096,1.053-113.347
				c-19.926-35.266-57.154-57.208-97.652-57.564c-40.495-0.356-78.106,20.941-98.652,55.837
				c-76.25,119.686-212.448,187.384-353.892,175.891c-141.444-11.49-264.927-100.287-320.854-230.713
				C1819.952,1891.4,1840.774,1740.744,1929.966,1630.363"/>
		</defs>
		<clipPath id="SVGID_00000138554174225364808100000018289324060728851085_">
			<use xlink:href="#SVGID_00000170972727466652192090000007306878360291729551_"  style="overflow:visible;"/>
		</clipPath>
		
			<linearGradient id="SVGID_00000041276315985404696700000001286131292758262704_" gradientUnits="userSpaceOnUse" x1="1668.8943" y1="2064.304" x2="2777.3147" y2="2212.9673">
			<stop  offset="0" style="stop-color:#002223"/>
			<stop  offset="1" style="stop-color:#18EAF1"/>
		</linearGradient>
		
			<rect x="1606.897" y="1630.363" style="clip-path:url(#SVGID_00000138554174225364808100000018289324060728851085_);fill:url(#SVGID_00000041276315985404696700000001286131292758262704_);" width="1159.946" height="1006.826"/>
	</g>
	<defs>
		<filter id="Adobe_OpacityMaskFilter" filterUnits="userSpaceOnUse" x="1046.878" y="831.452" width="1677.018" height="1304.5">
			<feColorMatrix  type="matrix" values="1 0 0 0 0  0 1 0 0 0  0 0 1 0 0  0 0 0 1 0"/>
		</filter>
	</defs>
	
		<mask maskUnits="userSpaceOnUse" x="1046.878" y="831.452" width="1677.018" height="1304.5" id="SVGID_00000159453027923939149180000003188762795009541560_">
		<g style="filter:url(#Adobe_OpacityMaskFilter);">
			
				<linearGradient id="SVGID_00000176044874595997724080000016729352862366230457_" gradientUnits="userSpaceOnUse" x1="-6792.5049" y1="4830.4536" x2="-8377.418" y2="5054.3047" gradientTransform="matrix(1 0 0 1 9805.6973 -3506.0417)">
				<stop  offset="0" style="stop-color:#FFFFFF"/>
				<stop  offset="1" style="stop-color:#000000"/>
			</linearGradient>
			
				<rect x="1046.879" y="831.451" style="fill:url(#SVGID_00000176044874595997724080000016729352862366230457_);" width="1677.02" height="1304.5"/>
		</g>
	</mask>
	
		<path style="mask:url(#SVGID_00000159453027923939149180000003188762795009541560_);fill-rule:evenodd;clip-rule:evenodd;fill:#FFF000;" d="
		M1680.819,1218.517c353.854-168.626,776.216-88.005,1043.077,199.106c-105.307-312.631-379.984-537.599-707.231-579.255
		c-327.244-41.669-649.534,107.299-829.814,383.557c-180.295,276.271-186.897,631.257-17.003,914.026
		c-45.518-137.661-24.619-284.457,49.244-401.435C1296.021,1512.854,1458.811,1324.314,1680.819,1218.517"/>
	<defs>
		
			<filter id="Adobe_OpacityMaskFilter_00000047060480943331625800000014427621226965775525_" filterUnits="userSpaceOnUse" x="1145.88" y="1514.067" width="784.087" height="768.817">
			<feColorMatrix  type="matrix" values="1 0 0 0 0  0 1 0 0 0  0 0 1 0 0  0 0 0 1 0"/>
		</filter>
	</defs>
	
		<mask maskUnits="userSpaceOnUse" x="1145.88" y="1514.067" width="784.087" height="768.817" id="SVGID_00000181060832090505439270000009020397841169899151_">
		<g style="filter:url(#Adobe_OpacityMaskFilter_00000047060480943331625800000014427621226965775525_);">
			
				<linearGradient id="SVGID_00000079480442714458278690000007602830469995077553_" gradientUnits="userSpaceOnUse" x1="-8063.4531" y1="5041.23" x2="-8706.0732" y2="5893.248" gradientTransform="matrix(1 0 0 1 9838.5742 -3457.2463)">
				<stop  offset="0" style="stop-color:#FFFFFF"/>
				<stop  offset="1" style="stop-color:#000000"/>
			</linearGradient>
			
				<rect x="1145.878" y="1514.067" style="fill:url(#SVGID_00000079480442714458278690000007602830469995077553_);" width="784.085" height="768.817"/>
		</g>
	</mask>
	
		<path style="mask:url(#SVGID_00000181060832090505439270000009020397841169899151_);fill-rule:evenodd;clip-rule:evenodd;fill:#1E003D;" d="
		M1375.979,1732.557c147.249-142.483,365.59-182.761,553.987-102.194c-160.817-139.968-395.352-155.149-572.866-37.084
		c-56.789,37.777-103.26,86.207-138.009,141.237c-73.863,116.978-94.762,263.775-49.244,401.435
		c24.084,52.225,52.884,101.343,85.769,146.933C1181.292,2091.939,1228.728,1875.042,1375.979,1732.557"/>
	<defs>
		
			<filter id="Adobe_OpacityMaskFilter_00000157296937951836686500000014821687025819398310_" filterUnits="userSpaceOnUse" x="1220.939" y="1589.359" width="709.027" height="1036.053">
			<feColorMatrix  type="matrix" values="1 0 0 0 0  0 1 0 0 0  0 0 1 0 0  0 0 0 1 0"/>
		</filter>
	</defs>
	
		<mask maskUnits="userSpaceOnUse" x="1220.939" y="1589.359" width="709.027" height="1036.053" id="SVGID_00000035503990598606204460000008590552455810830990_">
		<g style="filter:url(#Adobe_OpacityMaskFilter_00000157296937951836686500000014821687025819398310_);">
			
				<linearGradient id="SVGID_00000175292541777880412690000017099019578836998529_" gradientUnits="userSpaceOnUse" x1="-8378.4307" y1="6017.3813" x2="-8230.3994" y2="5089.5405" gradientTransform="matrix(1 0 0 1 9863.501 -3343.4951)">
				<stop  offset="0" style="stop-color:#FFFFFF"/>
				<stop  offset="1" style="stop-color:#000000"/>
			</linearGradient>
			
				<rect x="1220.938" y="1589.359" style="fill:url(#SVGID_00000175292541777880412690000017099019578836998529_);" width="709.028" height="1036.053"/>
		</g>
	</mask>
	
		<path style="mask:url(#SVGID_00000035503990598606204460000008590552455810830990_);fill-rule:evenodd;clip-rule:evenodd;fill:#D93C78;" d="
		M1581.732,2498.255c-136.701-146.436-176.37-358.726-101.772-544.644c74.598-185.919,250-311.914,450.006-323.249
		c-188.397-80.567-406.738-40.289-553.987,102.194c-147.252,142.485-194.687,359.382-120.363,550.327
		c123.959,171.843,305.948,293.551,512.001,342.527C1698.33,2597.745,1634.616,2554.906,1581.732,2498.255"/>
	<defs>
		
			<filter id="Adobe_OpacityMaskFilter_00000062887705967930327470000002276874041093878205_" filterUnits="userSpaceOnUse" x="1641.082" y="1630.363" width="590.978" height="1006.826">
			<feColorMatrix  type="matrix" values="1 0 0 0 0  0 1 0 0 0  0 0 1 0 0  0 0 0 1 0"/>
		</filter>
	</defs>
	
		<mask maskUnits="userSpaceOnUse" x="1641.082" y="1630.363" width="590.978" height="1006.826" id="SVGID_00000026139995181017159470000010317152509910191015_">
		<g style="filter:url(#Adobe_OpacityMaskFilter_00000062887705967930327470000002276874041093878205_);">
			
				<linearGradient id="SVGID_00000073703166153982302260000008773130585589284995_" gradientUnits="userSpaceOnUse" x1="-8665.8066" y1="4463.562" x2="-7693.0132" y2="6102.5522" gradientTransform="matrix(1 0 0 1 10003.0273 -3339.5837)">
				<stop  offset="0" style="stop-color:#FFFFFF"/>
				<stop  offset="1" style="stop-color:#000000"/>
			</linearGradient>
			
				<rect x="1641.079" y="1630.363" style="fill:url(#SVGID_00000073703166153982302260000008773130585589284995_);" width="590.977" height="1006.826"/>
		</g>
	</mask>
	
		<path style="mask:url(#SVGID_00000026139995181017159470000010317152509910191015_);fill-rule:evenodd;clip-rule:evenodd;fill:#1E003D;" d="
		M2232.059,2610.188c-225.434-17.696-417.222-171.218-483.844-387.307c-66.623-216.09,5.42-450.953,181.751-592.518
		c-209.431,108.524-323.069,341.399-279.75,573.26c43.327,231.87,233.394,407.984,467.874,433.567
		C2156.809,2630.696,2194.875,2621.652,2232.059,2610.188"/>
	<defs>
		
			<filter id="Adobe_OpacityMaskFilter_00000129886062204726226750000001717251244595627676_" filterUnits="userSpaceOnUse" x="1804.087" y="1630.363" width="957.501" height="824.472">
			<feColorMatrix  type="matrix" values="1 0 0 0 0  0 1 0 0 0  0 0 1 0 0  0 0 0 1 0"/>
		</filter>
	</defs>
	
		<mask maskUnits="userSpaceOnUse" x="1804.087" y="1630.363" width="957.501" height="824.472" id="SVGID_00000081614970163157099280000002508772934735605950_">
		<g style="filter:url(#Adobe_OpacityMaskFilter_00000129886062204726226750000001717251244595627676_);">
			
				<linearGradient id="SVGID_00000067954640971718802230000006511653114145841340_" gradientUnits="userSpaceOnUse" x1="-6883.0142" y1="5352.8325" x2="-8529.3242" y2="5518.9004" gradientTransform="matrix(1 0 0 1 10057.1611 -3400.1426)">
				<stop  offset="0" style="stop-color:#FFFFFF"/>
				<stop  offset="1" style="stop-color:#000000"/>
			</linearGradient>
			
				<rect x="1804.087" y="1630.363" style="fill:url(#SVGID_00000067954640971718802230000006511653114145841340_);" width="957.502" height="824.472"/>
		</g>
	</mask>
	
		<path style="mask:url(#SVGID_00000081614970163157099280000002508772934735605950_);fill-rule:evenodd;clip-rule:evenodd;fill:#47EADF;" d="
		M2318.278,2454.451c198.451-7.796,373.006-133.503,443.305-319.248c0.182-19.571-4.699-39.188-14.665-56.814
		c-19.926-35.266-57.154-57.208-97.652-57.564c-40.495-0.356-78.106,20.941-98.652,55.837
		c-76.25,119.686-212.448,187.384-353.892,175.891c-141.444-11.49-264.927-100.287-320.854-230.713
		c-55.916-130.439-35.094-281.095,54.099-391.477c-132.349,148.078-163.328,360.944-78.673,540.601
		C1935.95,2350.622,2119.827,2462.246,2318.278,2454.451"/>
	<path style="fill-rule:evenodd;clip-rule:evenodd;fill:#FCE2A6;" d="M2325.948,1441.462c80.752,0,146.217,65.463,146.217,146.216
		c0,80.753-65.464,146.217-146.217,146.217s-146.217-65.463-146.217-146.217C2179.731,1506.925,2245.195,1441.462,2325.948,1441.462
		"/>
	<path style="fill-rule:evenodd;clip-rule:evenodd;fill:#FCE2A6;" d="M2508.269,1441.462c19.938,0,36.102,16.163,36.102,36.103
		c0,19.938-16.165,36.102-36.102,36.102c-19.94,0-36.102-16.164-36.102-36.102
		C2472.167,1457.625,2488.329,1441.462,2508.269,1441.462"/>
	<path style="fill:#303030;" d="M2825.056,3019v-91.272c0-16.912-4.184-29.728-12.551-38.444
		c-8.369-8.717-19.964-13.075-34.785-13.075c-9.589,0-18.132,1.875-25.627,5.665c-7.499,3.793-14.3,9.328-20.399,16.738
		c-3.661-7.233-8.851-12.729-15.562-16.605c-6.713-3.879-14.688-5.798-23.931-5.798c-5.055,0-9.631,0.609-13.73,1.829
		c-4.094,1.266-7.802,2.921-11.113,5.013c-3.314,2.137-6.319,4.534-9.022,7.238c-2.702,2.746-5.187,5.578-7.455,8.587v-20.053
		h-39.751V3019h39.751v-78.021c0-9.371,2.135-16.476,6.408-21.226c4.27-4.794,10.154-7.191,17.653-7.191
		c7.496,0,13.25,2.397,17.259,7.191c4.011,4.75,6.016,11.855,6.016,21.226V3019h39.751v-78.021c0-9.371,2.135-16.476,6.407-21.226
		c4.273-4.794,10.157-7.191,17.653-7.191s13.25,2.397,17.261,7.191c4.008,4.75,6.017,11.855,6.017,21.226V3019H2825.056z
		 M2575.562,3019v-140.178h-39.749v78.021c0,9.371-2.226,16.475-6.669,21.229c-4.449,4.794-10.507,7.191-18.179,7.191
		c-7.669,0-13.597-2.397-17.782-7.191c-4.185-4.754-6.278-11.858-6.278-21.229v-78.021h-39.749v90.75
		c0,16.212,4.137,28.942,12.418,38.181c8.281,9.242,20.008,13.863,35.179,13.863c5.055,0,9.589-0.612,13.597-1.832
		c4.011-1.263,7.669-2.919,10.986-5.013c3.311-2.135,6.32-4.531,9.022-7.234c2.702-2.746,5.184-5.579,7.454-8.587V3019H2575.562z
		 M2419.695,2976.371v-0.523c0-6.452-1.309-11.945-3.923-16.475c-2.614-4.535-5.928-8.369-9.939-11.507
		c-4.008-3.138-8.543-5.798-13.6-7.978c-5.052-2.179-10.022-4.053-14.906-5.623c-3.832-1.219-7.451-2.439-10.851-3.659
		c-3.399-1.223-6.408-2.486-9.022-3.793c-2.617-1.306-4.708-2.702-6.275-4.185c-1.57-1.482-2.355-3.181-2.355-5.1v-0.521
		c0-2.79,1.22-5.101,3.661-6.932c2.441-1.828,6.102-2.747,10.983-2.747c5.058,0,10.898,1.178,17.523,3.532
		c6.625,2.353,13.424,5.534,20.399,9.547l15.165-27.46c-7.669-5.056-16.082-9.026-25.237-11.901
		c-9.151-2.876-18.173-4.315-27.065-4.315c-7.148,0-13.815,0.961-20.008,2.876c-6.187,1.918-11.595,4.797-16.211,8.631
		c-4.623,3.835-8.281,8.5-10.983,13.992c-2.705,5.492-4.058,11.812-4.058,18.962v0.522c0,6.799,1.267,12.552,3.793,17.26
		c2.529,4.707,5.799,8.674,9.807,11.898c4.011,3.225,8.501,5.842,13.468,7.846c4.97,2.005,9.898,3.707,14.777,5.1
		c3.837,1.219,7.499,2.353,10.986,3.401c3.485,1.047,6.581,2.134,9.284,3.269c2.702,1.133,4.837,2.486,6.407,4.055
		c1.567,1.57,2.353,3.398,2.353,5.492v0.523c0,3.138-1.35,5.665-4.052,7.583c-2.702,1.917-6.931,2.879-12.686,2.879
		c-6.622,0-13.73-1.397-21.314-4.186c-7.584-2.789-15.212-6.974-22.884-12.553l-17,26.153c9.416,7.321,19.311,12.683,29.686,16.083
		c10.375,3.399,20.529,5.101,30.468,5.101c7.496,0,14.515-0.917,21.049-2.746c6.54-1.832,12.25-4.578,17.132-8.238
		c4.884-3.663,8.672-8.328,11.374-13.992C2418.345,2990.975,2419.695,2984.216,2419.695,2976.371z M2247.874,2949.173
		c0,5.97-0.914,11.333-2.746,16.041c-1.829,4.75-4.317,8.846-7.455,12.247c-3.137,3.444-6.755,6.06-10.851,7.932
		c-4.099,1.832-8.501,2.747-13.206,2.747c-4.708,0-9.11-0.915-13.209-2.747c-4.096-1.872-7.669-4.488-10.722-7.932
		c-3.049-3.401-5.49-7.54-7.322-12.381c-1.829-4.793-2.747-10.109-2.747-15.907v-0.522c0-5.797,0.917-11.117,2.747-15.91
		c1.832-4.837,4.273-8.98,7.322-12.38c3.052-3.441,6.625-6.058,10.722-7.932c4.099-1.828,8.501-2.746,13.209-2.746
		c4.705,0,9.107,0.917,13.206,2.746c4.096,1.875,7.713,4.491,10.851,7.932c3.138,3.4,5.625,7.543,7.455,12.38
		c1.832,4.793,2.746,10.113,2.746,15.91V2949.173z M2287.628,2949.173v-0.522c0-11.681-1.791-22.014-5.364-30.99
		c-3.573-8.979-8.325-16.565-14.253-22.752c-5.925-6.19-12.727-10.854-20.396-13.993c-7.675-3.138-15.606-4.707-23.802-4.707
		c-10.46,0-19.135,2.135-26.019,6.364c-6.89,4.229-12.774,9.634-17.653,16.213v-19.963h-39.754v182.022h39.754v-59.976
		c4.705,5.535,10.504,10.372,17.388,14.513c6.89,4.14,15.65,6.234,26.283,6.234c8.369,0,16.391-1.569,24.06-4.707
		c7.672-3.139,14.427-7.803,20.27-13.993c5.84-6.19,10.548-13.773,14.121-22.752
		C2285.837,2971.184,2287.628,2960.855,2287.628,2949.173z M2098.805,3019v-183.066h-40.272V3019H2098.805z M1939.538,3019v-91.272
		c0-16.912-4.185-29.728-12.551-38.444c-8.369-8.717-19.964-13.075-34.785-13.075c-9.589,0-18.132,1.875-25.628,5.665
		c-7.499,3.793-14.3,9.328-20.399,16.738c-3.661-7.233-8.851-12.729-15.562-16.605c-6.714-3.879-14.688-5.798-23.931-5.798
		c-5.055,0-9.63,0.609-13.73,1.829c-4.096,1.266-7.802,2.921-11.113,5.013c-3.314,2.137-6.319,4.534-9.022,7.238
		c-2.702,2.746-5.187,5.578-7.454,8.587v-20.053h-39.754V3019h39.754v-78.021c0-9.371,2.135-16.476,6.408-21.226
		c4.27-4.794,10.154-7.191,17.652-7.191c7.496,0,13.25,2.397,17.258,7.191c4.011,4.75,6.014,11.855,6.014,21.226V3019h39.754
		v-78.021c0-9.371,2.135-16.476,6.408-21.226c4.27-4.794,10.154-7.191,17.653-7.191c7.496,0,13.25,2.397,17.259,7.191
		c4.011,4.75,6.02,11.855,6.02,21.226V3019H1939.538z M1657.353,2937.927h-59.889c1.57-9.065,4.926-16.3,10.072-21.705
		c5.14-5.406,11.898-8.11,20.267-8.11s15.08,2.747,20.137,8.239C1652.995,2921.843,1656.135,2929.037,1657.353,2937.927z
		 M1696.06,2952.833v-0.522c0-9.936-1.353-19.484-4.052-28.636c-2.703-9.153-6.89-17.261-12.554-24.321
		c-5.667-7.062-12.771-12.686-21.317-16.869c-8.542-4.186-18.652-6.277-30.336-6.277c-10.286,0-19.658,1.919-28.115,5.752
		c-8.454,3.836-15.732,9.068-21.837,15.694c-6.102,6.623-10.851,14.382-14.253,23.275c-3.399,8.892-5.099,18.307-5.099,28.244v0.522
		c0,10.811,1.832,20.618,5.493,29.422c3.661,8.806,8.76,16.432,15.3,22.885c6.537,6.449,14.297,11.418,23.272,14.907
		c8.981,3.486,18.702,5.229,29.162,5.229c12.727,0,23.796-2.31,33.211-6.931c9.416-4.617,17.438-11.027,24.063-19.221
		l-22.752-20.137c-5.581,5.056-10.986,8.717-16.217,10.984c-5.228,2.267-11.157,3.401-17.782,3.401
		c-8.892,0-16.347-2.31-22.361-6.931c-6.013-4.621-9.98-11.463-11.898-20.529h97.549c0.171-1.918,0.303-3.577,0.391-4.97
		C1696.016,2956.408,1696.06,2954.751,1696.06,2952.833z M1540.454,2917.791v-41.583c-11.856-0.525-21.27,2.091-28.245,7.846
		c-6.975,5.755-12.468,13.424-16.476,23.014v-28.247h-39.754V3019h39.754v-51.781c0-16.911,3.79-29.378,11.377-37.396
		c7.581-8.022,18-12.031,31.25-12.031H1540.454z M1387.986,2949.695c0,5.233-0.829,10.156-2.488,14.777
		c-1.656,4.621-4.052,8.673-7.19,12.16c-3.138,3.488-6.931,6.233-11.377,8.238c-4.443,2.005-9.545,3.009-15.3,3.009
		c-5.575,0-10.589-1.048-15.035-3.139c-4.449-2.094-8.325-4.926-11.639-8.5c-3.311-3.574-5.84-7.673-7.581-12.29
		c-1.747-4.621-2.617-9.548-2.617-14.777v-0.522c0-5.232,0.826-10.157,2.482-14.776c1.658-4.621,4.058-8.674,7.196-12.161
		c3.138-3.488,6.928-6.233,11.374-8.238c4.446-2.005,9.545-3.008,15.3-3.008c5.405,0,10.372,1.047,14.906,3.138
		c4.531,2.094,8.454,4.926,11.768,8.5c3.314,3.574,5.843,7.67,7.584,12.29c1.747,4.621,2.617,9.548,2.617,14.778V2949.695z
		 M1427.214,2949.173v-0.522c0-10.113-1.917-19.57-5.755-28.378c-3.837-8.803-9.11-16.476-15.82-23.011
		c-6.714-6.539-14.691-11.682-23.931-15.432c-9.24-3.747-19.264-5.623-30.077-5.623c-10.983,0-21.096,1.919-30.333,5.752
		c-9.242,3.836-17.261,9.068-24.063,15.694c-6.799,6.623-12.118,14.339-15.953,23.145c-3.835,8.803-5.752,18.262-5.752,28.374v0.522
		c0,10.113,1.917,19.57,5.752,28.377c3.835,8.803,9.11,16.476,15.823,23.012c6.71,6.539,14.688,11.682,23.928,15.432
		c9.242,3.748,19.267,5.622,30.077,5.622c10.983,0,21.096-1.918,30.335-5.754c9.242-3.833,17.261-9.065,24.063-15.691
		c6.799-6.626,12.112-14.338,15.95-23.145C1425.296,2968.744,1427.214,2959.286,1427.214,2949.173z M1256.178,3019v-36.353h-91.271
		v-146.713h-40.278V3019H1256.178z"/>
	<path style="fill:#303030;" d="M2493.919,3162.875v-52.374h-11.371v32.248l-24.542-32.248h-10.622v52.374h11.372v-33.294
		l25.363,33.294H2493.919z M2395.902,3140.953h-13.915l6.961-16.985L2395.902,3140.953z M2416.854,3162.875l-22.446-52.748h-10.625
		l-22.449,52.748h11.748l4.79-11.747h22.149l4.787,11.747H2416.854z M2332.308,3155.468v-22.747h-22.746v9.953h11.595v7.53
		c-2.944,2.11-6.558,3.169-10.848,3.169c-2.346,0-4.476-0.414-6.399-1.235c-1.92-0.822-3.594-1.996-5.014-3.491
		c-1.42-1.498-2.52-3.255-3.291-5.288c-0.773-2.02-1.159-4.24-1.159-6.635v-0.148c0-2.245,0.385-4.364,1.159-6.335
		c0.771-1.983,1.847-3.704,3.217-5.177c1.373-1.47,2.97-2.657,4.787-3.527c1.82-0.874,3.779-1.31,5.875-1.31
		c1.494,0,2.867,0.124,4.114,0.374c1.25,0.25,2.408,0.6,3.479,1.048c1.07,0.448,2.108,0.998,3.105,1.647
		c0.997,0.648,1.994,1.395,2.994,2.245l7.257-8.753c-1.347-1.149-2.743-2.172-4.19-3.071c-1.447-0.895-2.99-1.643-4.637-2.242
		c-1.647-0.599-3.432-1.06-5.349-1.384c-1.923-0.324-4.055-0.488-6.399-0.488c-3.99,0-7.657,0.71-10.998,2.134
		c-3.344,1.421-6.237,3.367-8.681,5.835c-2.444,2.468-4.352,5.337-5.722,8.606c-1.373,3.265-2.058,6.77-2.058,10.511v0.148
		c0,3.892,0.673,7.485,2.02,10.777c1.347,3.289,3.229,6.134,5.649,8.528c2.42,2.394,5.314,4.266,8.681,5.613
		c3.367,1.347,7.096,2.02,11.186,2.02c4.787,0,9.04-0.812,12.756-2.433C2326.406,3159.722,2329.615,3157.762,2332.308,3155.468z
		 M2239.975,3136.835c0,2.246-0.385,4.352-1.161,6.323c-0.773,1.971-1.844,3.704-3.214,5.202c-1.373,1.494-3.032,2.668-4.979,3.515
		c-1.947,0.849-4.064,1.272-6.361,1.272c-2.344,0-4.473-0.435-6.396-1.309c-1.92-0.871-3.594-2.057-5.014-3.552
		c-1.42-1.498-2.52-3.243-3.291-5.239c-0.773-1.995-1.159-4.115-1.159-6.36v-0.148c0-2.245,0.385-4.352,1.159-6.323
		c0.771-1.97,1.847-3.704,3.217-5.202c1.37-1.495,3.017-2.668,4.934-3.515c1.923-0.849,4.058-1.272,6.402-1.272
		c2.294,0,4.414,0.436,6.361,1.31c1.944,0.87,3.626,2.057,5.049,3.552c1.423,1.498,2.517,3.244,3.291,5.24
		c0.776,1.995,1.161,4.114,1.161,6.36V3136.835z M2252.023,3136.688v-0.148c0-3.743-0.688-7.247-2.059-10.514
		c-1.373-3.268-3.293-6.11-5.763-8.529c-2.467-2.418-5.399-4.34-8.792-5.761c-3.391-1.424-7.108-2.134-11.148-2.134
		c-4.037,0-7.766,0.71-11.183,2.134c-3.42,1.421-6.36,3.367-8.831,5.835c-2.47,2.468-4.402,5.337-5.799,8.606
		c-1.394,3.265-2.094,6.77-2.094,10.511v0.148c0,3.744,0.685,7.246,2.058,10.515c1.37,3.266,3.291,6.109,5.761,8.529
		c2.467,2.418,5.399,4.34,8.79,5.761c3.391,1.423,7.11,2.133,11.151,2.133c4.04,0,7.769-0.71,11.186-2.133
		c3.414-1.421,6.358-3.368,8.828-5.835c2.47-2.468,4.399-5.337,5.796-8.606C2251.323,3143.933,2252.023,3140.428,2252.023,3136.688z
		 M2167.548,3162.875v-10.4h-26.113v-41.974h-11.521v52.374H2167.548z M2097.44,3147.387v-0.151c0-2.292-0.365-4.263-1.088-5.909
		c-0.723-1.647-1.806-3.079-3.229-4.303c-1.423-1.223-3.179-2.271-5.249-3.141c-2.07-0.874-4.44-1.658-7.096-2.357
		c-2.247-0.599-4.102-1.125-5.587-1.573c-1.47-0.448-2.632-0.923-3.49-1.421c-0.85-0.5-1.432-1.063-1.759-1.683
		c-0.323-0.624-0.488-1.359-0.488-2.208v-0.148c0-1.298,0.562-2.381,1.685-3.255c1.123-0.874,2.805-1.31,5.049-1.31
		c2.247,0,4.49,0.461,6.734,1.385c2.247,0.923,4.54,2.183,6.884,3.776l5.987-8.676c-2.694-2.147-5.649-3.793-8.869-4.939
		c-3.214-1.149-6.746-1.72-10.583-1.72c-2.694,0-5.167,0.374-7.396,1.121c-2.235,0.748-4.167,1.819-5.775,3.219
		c-1.605,1.395-2.855,3.054-3.752,4.972c-0.885,1.921-1.335,4.08-1.335,6.474v0.148c0,2.594,0.409,4.762,1.235,6.511
		c0.821,1.745,1.994,3.203,3.491,4.376c1.497,1.171,3.329,2.156,5.475,2.953c2.156,0.801,4.549,1.523,7.208,2.172
		c2.197,0.55,3.99,1.072,5.361,1.573c1.373,0.497,2.444,0.998,3.232,1.495c0.773,0.501,1.297,1.035,1.57,1.61
		c0.273,0.574,0.412,1.235,0.412,1.983v0.148c0,1.547-0.659,2.755-1.982,3.629c-1.323,0.874-3.182,1.309-5.575,1.309
		c-2.994,0-5.749-0.575-8.266-1.721c-2.52-1.149-4.976-2.693-7.369-4.639l-6.811,8.154c3.144,2.844,6.634,4.951,10.475,6.323
		c3.84,1.372,7.757,2.057,11.745,2.057c2.847,0,5.44-0.361,7.772-1.084c2.332-0.723,4.352-1.77,6.037-3.14
		c1.682-1.372,2.993-3.071,3.938-5.091C2096.964,3152.286,2097.44,3149.982,2097.44,3147.387z M2004.361,3162.875v-10.252h-28.43
		v-10.996h24.689v-10.252h-24.689v-10.625h28.057v-10.249h-39.431v52.374H2004.361z M1929.54,3162.875v-52.374h-12.418
		l-13.768,22.146l-13.768-22.146h-12.421v52.374h11.374v-33.968l14.589,22.146h0.3l14.738-22.372v34.193H1929.54z M1832.42,3136.835
		c0,2.246-0.385,4.352-1.162,6.323c-0.77,1.971-1.844,3.704-3.214,5.202c-1.373,1.494-3.032,2.668-4.975,3.515
		c-1.947,0.849-4.067,1.272-6.361,1.272c-2.344,0-4.476-0.435-6.399-1.309c-1.92-0.871-3.59-2.057-5.011-3.552
		c-1.423-1.498-2.52-3.243-3.293-5.239c-0.773-1.995-1.159-4.115-1.159-6.36v-0.148c0-2.245,0.385-4.352,1.159-6.323
		c0.773-1.97,1.847-3.704,3.22-5.202c1.37-1.495,3.017-2.668,4.934-3.515c1.92-0.849,4.055-1.272,6.399-1.272
		c2.294,0,4.414,0.436,6.36,1.31c1.944,0.87,3.626,2.057,5.052,3.552c1.42,1.498,2.517,3.244,3.288,5.24
		c0.776,1.995,1.162,4.114,1.162,6.36V3136.835z M1844.468,3136.688v-0.148c0-3.743-0.685-7.247-2.058-10.514
		c-1.37-3.268-3.293-6.11-5.764-8.529c-2.467-2.418-5.399-4.34-8.79-5.761c-3.393-1.424-7.108-2.134-11.148-2.134
		s-7.769,0.71-11.186,2.134c-3.417,1.421-6.358,3.367-8.831,5.835c-2.467,2.468-4.402,5.337-5.799,8.606
		c-1.394,3.265-2.094,6.77-2.094,10.511v0.148c0,3.744,0.685,7.246,2.058,10.515c1.37,3.266,3.293,6.109,5.761,8.529
		c2.467,2.418,5.399,4.34,8.792,5.761c3.391,1.423,7.107,2.133,11.148,2.133c4.04,0,7.769-0.71,11.186-2.133
		c3.417-1.421,6.361-3.368,8.828-5.835c2.47-2.468,4.402-5.337,5.799-8.606C1843.768,3143.933,1844.468,3140.428,1844.468,3136.688z
		 M1758.645,3147.387v-0.151c0-2.292-0.365-4.263-1.085-5.909c-0.723-1.647-1.808-3.079-3.229-4.303
		c-1.423-1.223-3.182-2.271-5.252-3.141c-2.067-0.874-4.437-1.658-7.096-2.357c-2.244-0.599-4.099-1.125-5.587-1.573
		c-1.47-0.448-2.632-0.923-3.49-1.421c-0.847-0.5-1.432-1.063-1.756-1.683c-0.326-0.624-0.488-1.359-0.488-2.208v-0.148
		c0-1.298,0.562-2.381,1.682-3.255c1.123-0.874,2.808-1.31,5.052-1.31c2.244,0,4.49,0.461,6.734,1.385
		c2.244,0.923,4.537,2.183,6.884,3.776l5.984-8.676c-2.694-2.147-5.649-3.793-8.866-4.939c-3.217-1.149-6.746-1.72-10.586-1.72
		c-2.694,0-5.164,0.374-7.396,1.121c-2.232,0.748-4.167,1.819-5.775,3.219c-1.606,1.395-2.852,3.054-3.752,4.972
		c-0.885,1.921-1.335,4.08-1.335,6.474v0.148c0,2.594,0.412,4.762,1.235,6.511c0.823,1.745,1.997,3.203,3.49,4.376
		c1.5,1.171,3.329,2.156,5.478,2.953c2.156,0.801,4.549,1.523,7.205,2.172c2.197,0.55,3.99,1.072,5.364,1.573
		c1.37,0.497,2.444,0.998,3.229,1.495c0.773,0.501,1.3,1.035,1.57,1.61c0.276,0.574,0.415,1.235,0.415,1.983v0.148
		c0,1.547-0.662,2.755-1.985,3.629c-1.32,0.874-3.182,1.309-5.573,1.309c-2.993,0-5.749-0.575-8.266-1.721
		c-2.523-1.149-4.979-2.693-7.372-4.639l-6.81,8.154c3.144,2.844,6.634,4.951,10.474,6.323c3.843,1.372,7.76,2.057,11.748,2.057
		c2.844,0,5.44-0.361,7.772-1.084c2.332-0.723,4.352-1.77,6.034-3.14c1.682-1.372,2.994-3.071,3.938-5.091
		C1758.172,3152.286,1758.645,3149.982,1758.645,3147.387z M1688.015,3162.875v-10.252h-28.43v-10.996h24.689v-10.252h-24.689
		v-10.625h28.056v-10.249h-39.431v52.374H1688.015z M1617.237,3110.501h-12.048l-10.851,35.465l-11.748-35.617h-9.875
		l-11.745,35.617l-10.854-35.465h-12.342l17.882,52.747h10.027l11.818-34.267l11.821,34.267h10.028L1617.237,3110.501z
		 M1490.337,3140.953h-13.915l6.96-16.985L1490.337,3140.953z M1511.289,3162.875l-22.446-52.748h-10.627l-22.446,52.748h11.748
		l4.79-11.747h22.146l4.787,11.747H1511.289z"/>
</g>
</svg>
