<?xml version="1.0" encoding="utf-8"?>
<!-- Generator: Adobe Illustrator 27.5.0, SVG Export Plug-In . SVG Version: 6.00 Build 0)  -->
<svg version="1.1" xmlns="http://www.w3.org/2000/svg" xmlns:xlink="http://www.w3.org/1999/xlink" x="0px" y="0px"
	 viewBox="0 0 500 500" style="enable-background:new 0 0 500 500;" xml:space="preserve">
<g id="BACKGROUND">
	<linearGradient id="SVGID_1_" gradientUnits="userSpaceOnUse" x1="85.1607" y1="28.6137" x2="392.8074" y2="441.7957">
		<stop  offset="0" style="stop-color:#E0E0E0"/>
		<stop  offset="0.9987" style="stop-color:#FFFFFF"/>
	</linearGradient>
	<rect x="0" y="0" style="fill:url(#SVGID_1_);" width="500" height="500"/>
</g>
<g id="OBJECTS">
	
		<text transform="matrix(1 0 0 1 133.9484 380.4368)" style="fill:#1F066C; font-family:'Raleway-ExtraBold'; font-size:31.8743px;">abstract logo</text>
	
		<text transform="matrix(0.7 0 0 0.7 185.0319 397.4534)" style="fill:#001886; font-family:'Raleway-Regular'; font-size:14.1804px; letter-spacing:4.286;">companyslogan</text>
	<g>
		
			<radialGradient id="SVGID_00000107582180415124217440000012747362032856673451_" cx="282.1638" cy="329.8925" r="94.3974" gradientTransform="matrix(1 0 0 0.1129 0 295.2645)" gradientUnits="userSpaceOnUse">
			<stop  offset="0" style="stop-color:#515151"/>
			<stop  offset="0.9997" style="stop-color:#FFFFFF;stop-opacity:0"/>
		</radialGradient>
		
			<ellipse style="fill:url(#SVGID_00000107582180415124217440000012747362032856673451_);" cx="251.876" cy="332.431" rx="134.88" ry="12.1"/>
		<g>
			
				<linearGradient id="SVGID_00000171679544754104735020000000214895268942147496_" gradientUnits="userSpaceOnUse" x1="324.8046" y1="281.1468" x2="346.4047" y2="167.147">
				<stop  offset="0" style="stop-color:#0059CF"/>
				<stop  offset="0.3091" style="stop-color:#0041B4"/>
				<stop  offset="0.7558" style="stop-color:#002393"/>
				<stop  offset="0.9996" style="stop-color:#001886"/>
			</linearGradient>
			<path style="fill:url(#SVGID_00000171679544754104735020000000214895268942147496_);" d="M351.655,147.647
				c10.649,23.367,12.59,50.718,3.327,76.833c-2.012,5.673-4.46,11.048-7.325,16.116c0.416,3.202,0.637,6.441,0.665,9.702l0,0
				c0.009,1.093-0.007,2.189-0.042,3.286c-0.003,0.09-0.005,0.18-0.008,0.27c-0.04,1.115-0.101,2.231-0.187,3.349
				c-0.001,0.012-0.002,0.023-0.003,0.035c-0.082,1.054-0.191,2.11-0.315,3.166c-0.019,0.161-0.037,0.322-0.057,0.483
				c-0.134,1.08-0.286,2.16-0.465,3.24c-0.007,0.043-0.016,0.086-0.023,0.129c-0.168,1.001-0.36,2.002-0.566,3.003
				c-0.047,0.225-0.093,0.45-0.142,0.675c-0.225,1.044-0.466,2.088-0.734,3.13c-0.013,0.051-0.029,0.103-0.042,0.154
				c-0.254,0.978-0.533,1.955-0.826,2.931c-0.078,0.258-0.156,0.517-0.236,0.775c-0.319,1.025-0.651,2.049-1.013,3.07
				c-2.589,7.3-6.121,13.979-10.404,19.993l-0.005,0.014c-13.884,19.416-35.69,31.568-59.144,33.488
				c-0.004,0.004-0.009,0.009-0.013,0.013c40.497-2.063,88.447-44.063,98.529-87.746l-0.002-0.002
				C382.123,210.838,373.412,175.765,351.655,147.647z"/>
			
				<linearGradient id="SVGID_00000116942978494546813720000011975852142881411475_" gradientUnits="userSpaceOnUse" x1="238.0587" y1="325.0676" x2="295.8317" y2="198.9432" gradientTransform="matrix(-0.4441 -0.896 0.896 -0.4441 118.1737 519.615)">
				<stop  offset="0" style="stop-color:#8137C2"/>
				<stop  offset="1" style="stop-color:#300054"/>
			</linearGradient>
			<path style="fill:url(#SVGID_00000116942978494546813720000011975852142881411475_);" d="M371.756,246.611
				c18.457-57.336-19.219-122.016-85.413-145.495c-10.766-3.819-21.633-6.319-32.386-7.569
				c-55.314-6.512-107.374,19.698-125.63,66.722c24.832-65.475,97.606-99.389,163.942-75.86c4.145,1.47,8.173,3.138,12.064,4.964
				C362.772,116.934,392.35,184.284,371.756,246.611z"/>
			
				<linearGradient id="SVGID_00000128470311955453817000000012188118183007034041_" gradientUnits="userSpaceOnUse" x1="202.0771" y1="147.7747" x2="303.6928" y2="299.0165" gradientTransform="matrix(0.9425 0.3343 -0.3343 0.9425 80.8287 -84.0666)">
				<stop  offset="3.018500e-04" style="stop-color:#C66FD7"/>
				<stop  offset="1" style="stop-color:#8137C2"/>
			</linearGradient>
			<path style="fill:url(#SVGID_00000128470311955453817000000012188118183007034041_);" d="M324.362,261.91
				c-11.722,33.048-40.858,54.933-73.433,58.988c1.038-0.412,2.086-0.853,3.106-1.303l0.019-0.009
				c13.915-6.182,26.066-16.238,34.706-29.371l0.005-0.014c3.496-5.322,6.423-11.148,8.651-17.429
				c9.504-26.795,3.999-55.281-12.14-76.28c-0.014-0.005-0.009-0.019-0.023-0.024c-8.191-10.63-19.106-19.327-32.179-24.904
				c-1.564-0.666-3.156-1.295-4.769-1.867c-33.43-11.857-69.484-0.373-90.312,25.973c17.358-39.283,60.237-60.578,101.768-51.087
				c0.057,0.02,0.113,0.04,0.175,0.046c3.496,0.921,6.998,2.004,10.492,3.244c2.419,0.858,4.799,1.782,7.121,2.78
				C319.132,169.829,339.973,217.898,324.362,261.91z"/>
			
				<linearGradient id="SVGID_00000167394444645896539800000007534484388773362866_" gradientUnits="userSpaceOnUse" x1="184.0105" y1="289.0993" x2="197.2686" y2="190.0127" gradientTransform="matrix(0.9425 0.3343 -0.3343 0.9425 80.8287 -84.0666)">
				<stop  offset="3.018500e-04" style="stop-color:#C66FD7"/>
				<stop  offset="1" style="stop-color:#8137C2"/>
			</linearGradient>
			<path style="fill:url(#SVGID_00000167394444645896539800000007534484388773362866_);" d="M157.992,195.669
				c-5.366,6.777-9.725,14.532-12.771,23.119c-4.576,12.902-5.67,26.179-3.785,38.825c-0.231-0.337-0.471-0.693-0.692-1.058
				c-8.477-19.252-10.131-40.273-3.136-59.994c11.195-31.562,41.713-51.731,77.697-55.516c14.243-1.494,29.358-0.417,44.456,3.536
				C218.229,135.091,175.35,156.386,157.992,195.669z"/>
			
				<linearGradient id="SVGID_00000072253496669550800950000002552511761582877341_" gradientUnits="userSpaceOnUse" x1="211.485" y1="294.6837" x2="320.9873" y2="294.6837" gradientTransform="matrix(0.9425 0.3343 -0.3343 0.9425 80.8287 -84.0666)">
				<stop  offset="3.018500e-04" style="stop-color:#FFC9E1"/>
				<stop  offset="1" style="stop-color:#8137C2"/>
			</linearGradient>
			<path style="fill:url(#SVGID_00000072253496669550800950000002552511761582877341_);" d="M288.54,290.566
				c-6.097,10.229-22.327,26.801-44.679,32.746c-3.569,0.948-7.268,1.228-10.922,0.617c-0.019,0.009-0.033,0.004-0.048-0.001
				c-6.596-3.136-12.594-7.063-17.928-11.647c-15.186-13.047-24.954-31.308-27.493-51.002c-0.099-0.529-0.193-1.072-0.268-1.624
				c-0.239-1.662-0.335-3.32-0.314-4.953c0.001-0.047,0.002-0.095-0.002-0.128c0.183-10.081,5.045-19.298,12.759-25.194
				c9.233,25.158,29.176,46.168,56.395,55.822C266.792,289.016,277.773,290.745,288.54,290.566z"/>
			
				<linearGradient id="SVGID_00000012435508614067883320000004896888158156697513_" gradientUnits="userSpaceOnUse" x1="225.2722" y1="244.6922" x2="286.3373" y2="283.1817" gradientTransform="matrix(0.9425 0.3343 -0.3343 0.9425 80.8287 -84.0666)">
				<stop  offset="3.018500e-04" style="stop-color:#FFC9E1"/>
				<stop  offset="1" style="stop-color:#8137C2"/>
			</linearGradient>
			<path style="fill:url(#SVGID_00000012435508614067883320000004896888158156697513_);" d="M288.76,290.215
				c-0.073,0.117-0.133,0.24-0.22,0.352c-10.766,0.179-21.748-1.55-32.5-5.364c-27.219-9.654-47.161-30.664-56.395-55.822
				c4.302-3.284,9.468-5.545,15.214-6.342c16.804-2.338,32.376,8.632,36.082,24.855c0.009,0.019,0.715,4.586,0.719,4.619
				C255.524,271.705,270.449,286.204,288.76,290.215z"/>
			
				<linearGradient id="SVGID_00000036215880406200966310000001781652146710430911_" gradientUnits="userSpaceOnUse" x1="227.3641" y1="302.9516" x2="351.8643" y2="178.7514">
				<stop  offset="0" style="stop-color:#FFC9E1"/>
				<stop  offset="1" style="stop-color:#8137C2"/>
			</linearGradient>
			<path style="fill:url(#SVGID_00000036215880406200966310000001781652146710430911_);" d="M347.474,239.273
				c-0.004-0.033-0.022-0.072-0.012-0.1c-0.068-0.438-1.013-6.619-1.077-7.023c-0.327-2.266-0.749-4.534-1.271-6.79
				c-0.018-0.038-0.046-0.096-0.036-0.124c-1.527-6.562-3.858-13.011-6.915-19.256c-0.004-0.033-0.013-0.052-0.008-0.067
				c-11.34-23.214-32.649-43.514-60.607-55.262c41.584,19.177,62.424,67.247,46.814,111.258
				c-11.647,32.838-40.492,54.647-72.817,58.9c-0.025-0.011-0.038-0.017-0.038-0.017c-21.19,2.507-39.81-11.484-39.81-11.484
				c16.594,14.497,30.392,21.526,51.824,22.355c0.098,0.005,0.196,0.006,0.293,0.01c0.545,0.02,1.093,0.037,1.649,0.049
				c0.984,0.026,1.965,0.033,2.945,0.023c0.393-0.001,0.782,0.001,1.181-0.004c-0.003-0.003-0.006-0.006-0.009-0.009
				c25.156-0.632,48.898-13.073,63.673-33.733l0.005-0.014c4.283-6.014,7.815-12.693,10.404-19.993
				C348.224,265.134,349.336,251.895,347.474,239.273z"/>
			
				<linearGradient id="SVGID_00000034062032413591432120000001268320613631386046_" gradientUnits="userSpaceOnUse" x1="341.1176" y1="239.2169" x2="186.4906" y2="191.8822" gradientTransform="matrix(0.9425 0.3343 -0.3343 0.9425 80.8287 -84.0666)">
				<stop  offset="0" style="stop-color:#0059CF"/>
				<stop  offset="0.9996" style="stop-color:#001886"/>
			</linearGradient>
			<path style="fill:url(#SVGID_00000034062032413591432120000001268320613631386046_);" d="M354.982,224.48
				c-2.012,5.673-4.46,11.048-7.325,16.116c-0.063-0.452-0.116-0.885-0.184-1.323c-0.004-0.033-0.022-0.072-0.012-0.1
				c-0.068-0.438-1.013-6.619-1.077-7.023c-0.327-2.266-0.749-4.534-1.271-6.79c-0.018-0.038-0.046-0.096-0.036-0.124
				c-1.527-6.562-3.858-13.011-6.915-19.256c-0.004-0.033-0.013-0.052-0.008-0.067c-7.132-14.602-18.199-28.036-32.381-38.927
				c-10.261-7.892-22.133-14.428-35.347-19.115c-18.604-6.599-37.521-8.674-55.123-6.826c-21.907,2.311-41.789,10.677-56.519,24.007
				c-9.455,8.56-16.798,19.159-21.178,31.509c-6.995,19.721-5.341,40.742,3.136,59.994c-0.346-0.505-0.688-1.024-1.01-1.553
				c-0.553-0.865-1.101-1.744-1.63-2.633c-0.502-0.831-0.989-1.657-1.467-2.511c-0.065-0.087-0.111-0.183-0.17-0.283
				c-0.432-0.758-0.859-1.531-1.266-2.313c-0.083-0.125-0.161-0.264-0.22-0.413c-0.463-0.849-0.908-1.708-1.333-2.575
				c-0.389-0.743-0.759-1.496-1.115-2.243c-0.959-2.012-1.85-4.033-2.671-6.076c-0.386-0.933-0.752-1.876-1.119-2.818
				c-0.764-2.023-1.475-4.059-2.105-6.098c-0.233-0.736-0.461-1.485-0.674-2.23c-0.063-0.182-0.126-0.363-0.17-0.554
				c-0.24-0.85-0.475-1.714-0.696-2.572c-0.225-0.892-0.45-1.784-0.647-2.666c-0.176-0.716-0.338-1.426-0.481-2.146
				c-0.118-0.52-0.222-1.035-0.312-1.544c-0.165-0.791-0.311-1.592-0.443-2.387c-0.162-0.981-0.323-1.962-0.457-2.933
				c-0.126-0.857-0.238-1.709-0.331-2.57c-0.047-0.271-0.075-0.552-0.103-0.833c-0.203-1.808-0.353-3.629-0.451-5.464
				c-0.053-0.974-0.095-1.977-0.114-2.955c-0.047-1.753-0.047-3.505,0.001-5.256c0.006-0.555,0.026-1.106,0.065-1.665
				c0.01-0.522,0.053-1.048,0.077-1.565c0.021-0.375,0.043-0.749,0.078-1.119c0.038-0.735,0.109-1.474,0.185-2.228
				c-0.009-0.019-0.013-0.053,0.002-0.095c0.078-0.848,0.175-1.706,0.272-2.563c0.029-0.261,0.063-0.535,0.11-0.805
				c0.095-0.763,0.205-1.52,0.328-2.273c0.012-0.123,0.024-0.246,0.055-0.379c0.109-0.71,0.226-1.401,0.363-2.101
				c0.07-0.421,0.145-0.857,0.233-1.287c0.053-0.284,0.106-0.568,0.178-0.861c0.132-0.686,0.283-1.381,0.448-2.071
				c0.177-0.813,0.368-1.621,0.593-2.434c0.171-0.751,0.375-1.507,0.594-2.258c0.322-1.176,0.676-2.356,1.06-3.526
				c0.293-0.915,0.6-1.826,0.921-2.731c0.321-0.905,0.656-1.806,1.006-2.701c8.714-22.456,25.137-40.155,45.95-51.821
				c15.031-8.43,32.375-13.729,50.751-15.334c19.77-1.764,40.731,0.702,61.315,8.003c27.247,9.664,49.652,26.291,65.313,46.531
				C362.304,171.014,364.245,198.365,354.982,224.48z"/>
			
				<linearGradient id="SVGID_00000098214570120745175540000012004808009675660164_" gradientUnits="userSpaceOnUse" x1="151.398" y1="232.6416" x2="255.7458" y2="157.1136" gradientTransform="matrix(0.9425 0.3343 -0.3343 0.9425 80.8287 -84.0666)">
				<stop  offset="2.840900e-04" style="stop-color:#44FFFF"/>
				<stop  offset="0.9996" style="stop-color:#0059CF"/>
			</linearGradient>
			<path style="fill:url(#SVGID_00000098214570120745175540000012004808009675660164_);" d="M305.775,166.987
				c-10.261-7.892-22.133-14.428-35.347-19.115c-18.604-6.599-37.521-8.674-55.123-6.826c-35.984,3.785-66.502,23.954-77.697,55.516
				c-6.995,19.721-5.341,40.742,3.136,59.994c-0.346-0.505-0.688-1.024-1.01-1.553c-0.553-0.865-1.101-1.744-1.63-2.633
				c-0.502-0.831-0.989-1.657-1.467-2.511c-0.065-0.087-0.111-0.183-0.17-0.283c-0.432-0.758-0.859-1.531-1.266-2.313
				c-0.083-0.125-0.161-0.264-0.22-0.413c-0.463-0.849-0.908-1.708-1.333-2.575c-0.389-0.743-0.759-1.496-1.115-2.243
				c-0.959-2.012-1.85-4.033-2.671-6.076c-0.386-0.933-0.752-1.876-1.119-2.818c-0.764-2.023-1.475-4.059-2.105-6.098
				c-0.233-0.736-0.461-1.485-0.674-2.23c-0.063-0.182-0.126-0.363-0.17-0.554c-0.24-0.85-0.475-1.714-0.696-2.572
				c-0.225-0.892-0.45-1.784-0.647-2.666c-0.176-0.716-0.338-1.426-0.481-2.146c-0.118-0.52-0.222-1.035-0.312-1.544
				c-0.165-0.791-0.311-1.592-0.443-2.387c-0.162-0.981-0.323-1.962-0.457-2.933c-0.126-0.857-0.238-1.709-0.331-2.57
				c-0.047-0.271-0.075-0.552-0.103-0.833c-0.203-1.808-0.353-3.629-0.451-5.464c-0.053-0.974-0.095-1.977-0.114-2.955
				c-0.047-1.753-0.047-3.505,0.001-5.256c0.006-0.555,0.026-1.106,0.065-1.665c0.01-0.522,0.053-1.048,0.077-1.565
				c0.021-0.375,0.043-0.749,0.078-1.119c0.038-0.735,0.109-1.474,0.185-2.228c-0.009-0.019-0.013-0.053,0.002-0.095
				c0.078-0.848,0.175-1.706,0.272-2.563c0.029-0.261,0.063-0.535,0.11-0.805c0.095-0.763,0.205-1.52,0.328-2.273
				c0.012-0.123,0.024-0.246,0.055-0.379c0.109-0.71,0.226-1.401,0.363-2.101c0.07-0.421,0.145-0.857,0.233-1.287
				c0.053-0.284,0.106-0.568,0.178-0.861c0.132-0.686,0.283-1.381,0.448-2.071c0.177-0.813,0.368-1.621,0.593-2.434
				c0.171-0.751,0.375-1.507,0.594-2.258c0.322-1.176,0.676-2.356,1.06-3.526c0.293-0.915,0.6-1.826,0.921-2.731
				c0.321-0.905,0.656-1.806,1.006-2.701c8.714-22.456,25.137-40.155,45.95-51.821c21.849-8.209,46.59-9.037,70.301-0.628
				C273.72,118.157,295.279,140.313,305.775,166.987z"/>
			
				<linearGradient id="SVGID_00000088113092327667310670000007475512841501029248_" gradientUnits="userSpaceOnUse" x1="156.3751" y1="373.1308" x2="310.3008" y2="339.6686" gradientTransform="matrix(-0.4441 -0.896 0.896 -0.4441 118.1737 519.615)">
				<stop  offset="0" style="stop-color:#8137C2"/>
				<stop  offset="1" style="stop-color:#300054"/>
			</linearGradient>
			<path style="fill:url(#SVGID_00000088113092327667310670000007475512841501029248_);" d="M371.756,246.611
				c18.457-57.336-19.219-122.016-85.413-145.495c-10.766-3.819-21.633-6.319-32.386-7.569c16.261-3.995,33.258-5.485,50.376-4.175
				C362.772,116.934,392.35,184.284,371.756,246.611z"/>
		</g>
	</g>
</g>
<g id="DESIGNED_BY_FREEPIK">
	<g>
		<g id="XMLID_319_">
			<g id="XMLID_338_">
				<path id="XMLID_346_" style="fill:#A5B7C6;" d="M260.104,465.465c-0.432,0.443-0.803,0.931-1.108,1.453l-0.465-0.241
					c-0.067-0.298-0.349-0.503-0.659-0.466c-0.331,0.039-0.568,0.339-0.529,0.67s0.339,0.568,0.67,0.529
					c0.065-0.008,0.127-0.026,0.184-0.052l0.451,0.234c-0.251,0.554-0.433,1.139-0.539,1.744l0.746,0.132
					c0.23-1.306,0.85-2.507,1.792-3.473L260.104,465.465z"/>
				<path id="XMLID_345_" style="fill:#A5B7C6;" d="M265.592,463.163c-0.171,0-0.341,0.006-0.51,0.017l-0.074-0.626
					c0.188-0.149,0.296-0.389,0.266-0.645c-0.046-0.393-0.402-0.674-0.795-0.628s-0.674,0.402-0.628,0.795
					c0.03,0.254,0.189,0.461,0.405,0.564l0.073,0.624c-0.714,0.116-1.403,0.332-2.06,0.646l0.327,0.684
					c0.934-0.447,1.942-0.673,2.995-0.673c0.496,0,0.993,0.053,1.475,0.158l0.161-0.741
					C266.693,463.222,266.142,463.163,265.592,463.163z"/>
				<path id="XMLID_344_" style="fill:#A5B7C6;" d="M272.194,465.711c0.331-0.04,0.566-0.341,0.525-0.672
					c-0.04-0.331-0.341-0.566-0.672-0.526c-0.309,0.038-0.535,0.304-0.53,0.609l-0.416,0.363c-0.418-0.43-0.89-0.813-1.408-1.139
					l-0.404,0.641c1.134,0.715,2.021,1.726,2.563,2.925l0.691-0.313c-0.251-0.554-0.568-1.072-0.942-1.545l0.402-0.351
					C272.065,465.716,272.129,465.719,272.194,465.711z"/>
				<path id="XMLID_343_" style="fill:#A5B7C6;" d="M265.044,473.372c-0.386,0.023-0.775,0.035-1.157,0.035
					c-0.88,0-1.733-0.061-2.478-0.179c-0.39-0.062-0.846-0.155-1.27-0.292c1.046,1.861,3.069,3.125,5.388,3.125
					c2.855,0,5.262-1.916,5.95-4.504c-0.682,0.449-1.505,0.825-2.459,1.123C267.839,473.047,266.464,473.286,265.044,473.372z"/>
				<path id="XMLID_339_" style="fill:#A5B7C6;" d="M265.592,464.68c-3.352,0-6.08,2.666-6.08,5.943
					c0,0.426,0.046,0.849,0.137,1.261c0.674,0.483,2.706,0.89,5.348,0.731c2.879-0.173,5.297-0.957,6.672-2.159
					c-0.005-0.195-0.021-0.39-0.045-0.582C271.244,466.913,268.65,464.68,265.592,464.68z M263.432,471.194
					c-1.02,0-1.85-0.83-1.85-1.85c0-1.02,0.83-1.85,1.85-1.85c1.02,0,1.85,0.83,1.85,1.85
					C265.282,470.365,264.452,471.194,263.432,471.194z M268.17,470.286c-0.75,0-1.36-0.61-1.36-1.36s0.61-1.361,1.36-1.361
					c0.75,0,1.361,0.61,1.361,1.361S268.92,470.286,268.17,470.286z"/>
			</g>
			<path id="XMLID_336_" style="fill:#A5B7C6;" d="M281.595,466.547c-0.295-0.116-0.806-0.309-1.382-0.237
				c-0.551,0.069-0.844,0.341-0.844,1.007v0.866h2.228v1.717h-2.228v5.455h-1.932v-5.455h-1.34v-1.717h1.34v-0.888
				c0-1.68,0.896-2.783,2.568-2.783c0.642,0,1.157,0.122,1.59,0.308L281.595,466.547z"/>
			<path id="XMLID_334_" style="fill:#A5B7C6;" d="M286.298,469.879c-0.177-0.03-0.358-0.046-0.526-0.046
				c-0.896,0-1.51,0.548-1.51,1.614v3.908h-1.932v-7.172h1.873v0.785c0.451-0.673,1.14-0.977,2.021-0.977
				c0.414,0,0.848,0.128,1.094,0.337L286.298,469.879z"/>
			<path id="XMLID_331_" style="fill:#A5B7C6;" d="M293.965,471.757c0,0.222-0.015,0.489-0.037,0.651h-5.085
				c0.207,1.036,0.933,1.488,1.843,1.488c0.622,0,1.295-0.252,1.813-0.688l1.132,1.243c-0.814,0.748-1.85,1.088-3.057,1.088
				c-2.198,0-3.723-1.495-3.723-3.753c0-2.258,1.48-3.797,3.627-3.797C292.544,467.99,293.958,469.522,293.965,471.757z
				 M288.851,471.091h3.175c-0.177-0.918-0.733-1.436-1.562-1.436C289.554,469.655,289.021,470.203,288.851,471.091z"/>
			<path id="XMLID_328_" style="fill:#A5B7C6;" d="M301.618,471.757c0,0.222-0.015,0.489-0.037,0.651h-5.085
				c0.207,1.036,0.932,1.488,1.843,1.488c0.622,0,1.295-0.252,1.813-0.688l1.132,1.243c-0.814,0.748-1.85,1.088-3.057,1.088
				c-2.198,0-3.723-1.495-3.723-3.753c0-2.258,1.48-3.797,3.627-3.797C300.197,467.99,301.611,469.522,301.618,471.757z
				 M296.504,471.091h3.175c-0.178-0.918-0.733-1.436-1.562-1.436C297.207,469.655,296.674,470.203,296.504,471.091z"/>
			<path id="XMLID_325_" style="fill:#A5B7C6;" d="M309.964,471.764c0,2.154-1.495,3.775-3.471,3.775
				c-0.962,0-1.643-0.378-2.109-0.933v3.708h-1.924v-10.133h1.887v0.792c0.466-0.585,1.155-0.984,2.139-0.984
				C308.469,467.99,309.964,469.61,309.964,471.764z M304.287,471.764c0,1.132,0.747,1.976,1.843,1.976
				c1.14,0,1.85-0.881,1.85-1.976c0-1.095-0.71-1.976-1.85-1.976C305.035,469.788,304.287,470.632,304.287,471.764z"/>
			<path id="XMLID_322_" style="fill:#A5B7C6;" d="M313.068,465.836c0,0.696-0.54,1.229-1.236,1.229
				c-0.696,0-1.229-0.533-1.229-1.229c0-0.696,0.533-1.243,1.229-1.243C312.527,464.592,313.068,465.14,313.068,465.836z
				 M312.809,475.354h-1.932v-7.172h1.932V475.354z"/>
			<path id="XMLID_320_" style="fill:#A5B7C6;" d="M316.032,470.736l2.702-2.554h2.368l-3.479,3.375l3.501,3.797h-2.376
				l-2.716-2.901v2.901H314.1v-10.658h1.932V470.736z"/>
		</g>
		<g>
			<path style="fill:#A5B7C6;" d="M184.412,475.289v-1.055c-0.527,0.718-1.391,1.23-2.388,1.23c-1.846,0-3.149-1.406-3.149-3.706
				c0-2.256,1.289-3.721,3.149-3.721c0.952,0,1.816,0.469,2.388,1.245v-3.765h1.099v9.77H184.412z M184.412,473.37v-3.208
				c-0.395-0.615-1.245-1.143-2.124-1.143c-1.421,0-2.27,1.172-2.27,2.739c0,1.567,0.85,2.724,2.27,2.724
				C183.168,474.483,184.017,473.986,184.412,473.37z"/>
			<path style="fill:#A5B7C6;" d="M186.932,471.744c0-2.051,1.465-3.706,3.486-3.706c2.139,0,3.398,1.67,3.398,3.794v0.279h-5.727
				c0.088,1.333,1.025,2.446,2.549,2.446c0.805,0,1.626-0.322,2.182-0.894l0.527,0.718c-0.703,0.703-1.655,1.084-2.812,1.084
				C188.44,475.465,186.932,473.956,186.932,471.744z M190.403,468.947c-1.509,0-2.256,1.274-2.314,2.358h4.643
				C192.718,470.25,192.015,468.947,190.403,468.947z"/>
			<path style="fill:#A5B7C6;" d="M194.607,474.351l0.571-0.791c0.469,0.542,1.362,1.011,2.329,1.011c1.084,0,1.67-0.513,1.67-1.216
				c0-1.714-4.38-0.659-4.38-3.281c0-1.098,0.952-2.036,2.636-2.036c1.201,0,2.051,0.454,2.622,1.026l-0.513,0.762
				c-0.424-0.513-1.201-0.894-2.109-0.894c-0.967,0-1.567,0.483-1.567,1.113c0,1.552,4.38,0.527,4.38,3.281
				c0,1.187-0.952,2.138-2.783,2.138C196.306,475.465,195.325,475.113,194.607,474.351z"/>
			<path style="fill:#A5B7C6;" d="M201.477,466.471c0-0.41,0.337-0.747,0.732-0.747c0.41,0,0.747,0.337,0.747,0.747
				c0,0.41-0.337,0.732-0.747,0.732C201.814,467.203,201.477,466.881,201.477,466.471z M201.667,475.289v-7.075h1.099v7.075H201.667
				z"/>
			<path style="fill:#A5B7C6;" d="M204.582,477.105l0.556-0.82c0.586,0.703,1.289,0.967,2.3,0.967c1.172,0,2.27-0.571,2.27-2.124
				v-1.011c-0.513,0.718-1.377,1.26-2.373,1.26c-1.845,0-3.149-1.377-3.149-3.662c0-2.27,1.289-3.677,3.149-3.677
				c0.952,0,1.802,0.469,2.373,1.245v-1.069h1.098v6.87c0,2.344-1.641,3.076-3.369,3.076
				C206.237,478.16,205.417,477.926,204.582,477.105z M209.709,473.253v-3.091c-0.381-0.615-1.23-1.143-2.109-1.143
				c-1.421,0-2.27,1.128-2.27,2.695c0,1.553,0.849,2.695,2.27,2.695C208.478,474.41,209.328,473.868,209.709,473.253z"/>
			<path style="fill:#A5B7C6;" d="M217.413,475.289v-4.629c0-1.245-0.63-1.641-1.582-1.641c-0.865,0-1.685,0.527-2.095,1.099v5.17
				h-1.099v-7.075h1.099v1.025c0.498-0.586,1.465-1.201,2.519-1.201c1.48,0,2.256,0.747,2.256,2.285v4.966H217.413z"/>
			<path style="fill:#A5B7C6;" d="M219.932,471.744c0-2.051,1.465-3.706,3.486-3.706c2.139,0,3.398,1.67,3.398,3.794v0.279h-5.727
				c0.088,1.333,1.025,2.446,2.549,2.446c0.806,0,1.626-0.322,2.183-0.894l0.527,0.718c-0.703,0.703-1.655,1.084-2.812,1.084
				C221.441,475.465,219.932,473.956,219.932,471.744z M223.404,468.947c-1.509,0-2.256,1.274-2.314,2.358h4.643
				C225.718,470.25,225.015,468.947,223.404,468.947z"/>
			<path style="fill:#A5B7C6;" d="M233.35,475.289v-1.055c-0.527,0.718-1.392,1.23-2.388,1.23c-1.846,0-3.149-1.406-3.149-3.706
				c0-2.256,1.289-3.721,3.149-3.721c0.952,0,1.817,0.469,2.388,1.245v-3.765h1.098v9.77H233.35z M233.35,473.37v-3.208
				c-0.396-0.615-1.245-1.143-2.124-1.143c-1.421,0-2.27,1.172-2.27,2.739c0,1.567,0.849,2.724,2.27,2.724
				C232.105,474.483,232.954,473.986,233.35,473.37z"/>
			<path style="fill:#A5B7C6;" d="M239.692,475.289v-9.77h1.098v3.765c0.572-0.776,1.421-1.245,2.388-1.245
				c1.845,0,3.149,1.465,3.149,3.721c0,2.299-1.304,3.706-3.149,3.706c-0.996,0-1.86-0.513-2.388-1.23v1.055H239.692z
				 M242.9,474.483c1.436,0,2.285-1.157,2.285-2.724c0-1.568-0.85-2.739-2.285-2.739c-0.864,0-1.728,0.527-2.109,1.143v3.208
				C241.171,473.986,242.036,474.483,242.9,474.483z"/>
			<path style="fill:#A5B7C6;" d="M247.528,477.061c0.161,0.073,0.425,0.117,0.601,0.117c0.483,0,0.805-0.161,1.055-0.747
				l0.469-1.069l-2.959-7.148h1.187l2.358,5.8l2.344-5.8h1.201l-3.545,8.51c-0.425,1.025-1.143,1.421-2.08,1.435
				c-0.234,0-0.601-0.044-0.805-0.103L247.528,477.061z"/>
		</g>
	</g>
</g>
</svg>
