<?xml version="1.0" encoding="utf-8"?>
<!-- Generator: Adobe Illustrator 27.5.0, SVG Export Plug-In . SVG Version: 6.00 Build 0)  -->
<svg version="1.1" xmlns="http://www.w3.org/2000/svg" xmlns:xlink="http://www.w3.org/1999/xlink" x="0px" y="0px"
	 viewBox="0 0 500 500" style="enable-background:new 0 0 500 500;" xml:space="preserve">
<g id="BACKGROUND">
	<linearGradient id="SVGID_1_" gradientUnits="userSpaceOnUse" x1="249.6667" y1="500.3333" x2="249.6667" y2="-0.3333">
		<stop  offset="0.0035" style="stop-color:#8FACBA"/>
		<stop  offset="0.1215" style="stop-color:#79909D;stop-opacity:0.8816"/>
		<stop  offset="0.3064" style="stop-color:#5B6A77;stop-opacity:0.6961"/>
		<stop  offset="0.4897" style="stop-color:#444C58;stop-opacity:0.5121"/>
		<stop  offset="0.6687" style="stop-color:#333742;stop-opacity:0.3325"/>
		<stop  offset="0.8412" style="stop-color:#292A35;stop-opacity:0.1594"/>
		<stop  offset="1" style="stop-color:#262631;stop-opacity:0"/>
	</linearGradient>
	<rect x="-1.667" y="-0.333" style="fill:url(#SVGID_1_);" width="502.667" height="500.667"/>
</g>
<g id="OBJECTS">
	<g>
		<g>
			
				<radialGradient id="SVGID_00000007393800666403906370000015350029821642363563_" cx="251.9561" cy="349.4425" r="107.6446" gradientTransform="matrix(0.9863 0 0 0.1018 1.4957 313.6162)" gradientUnits="userSpaceOnUse">
				<stop  offset="0" style="stop-color:#1B2538"/>
				<stop  offset="1" style="stop-color:#1B2432;stop-opacity:0"/>
			</radialGradient>
			
				<ellipse style="opacity:0.43;fill:url(#SVGID_00000007393800666403906370000015350029821642363563_);" cx="250" cy="349.196" rx="147.15" ry="30.812"/>
			<g>
				<g>
					
						<linearGradient id="SVGID_00000133507539570935797510000001859250428471526588_" gradientUnits="userSpaceOnUse" x1="285.3338" y1="123.233" x2="208.474" y2="305.4268" gradientTransform="matrix(0.9985 0.0541 -0.0541 0.9985 11.7072 -7.3505)">
						<stop  offset="0" style="stop-color:#210440"/>
						<stop  offset="0.1092" style="stop-color:#1B1252"/>
						<stop  offset="0.5691" style="stop-color:#044C9D"/>
						<stop  offset="0.645" style="stop-color:#064797"/>
						<stop  offset="0.7473" style="stop-color:#0B3A86"/>
						<stop  offset="0.8647" style="stop-color:#14246A"/>
						<stop  offset="0.9925" style="stop-color:#200643"/>
						<stop  offset="1" style="stop-color:#210440"/>
					</linearGradient>
					<path style="fill:url(#SVGID_00000133507539570935797510000001859250428471526588_);" d="M256.523,96.174
						c-62.683-3.394-116.476,43.341-122.437,105.243c4.1-29.097,29.855-50.716,59.74-49.098
						c31.559,1.709,55.757,28.678,54.048,60.237c-1.709,31.559-28.678,55.757-60.237,54.048
						c-29.885-1.618-53.155-25.892-54.089-55.262c-0.759,62.184,47.673,114.455,110.356,117.85
						c64.346,3.484,119.334-45.854,122.818-110.2C370.207,154.646,320.869,99.658,256.523,96.174z"/>
					<g>
						<path style="fill:#BEBDBE;" d="M229.833,120.159c-49.303-2.67-91.577,34.301-95.862,83.117
							c3.243-30.028,29.464-52.603,59.982-50.95c31.559,1.709,55.757,28.678,54.048,60.237
							c-1.709,31.559-28.678,55.757-60.237,54.048c-30.518-1.653-54.148-26.927-54.129-57.13
							c-1.012,48.993,37.023,90.313,86.326,92.983c50.342,2.726,93.362-35.874,96.088-86.216S280.175,122.885,229.833,120.159z"/>
						<path style="fill:#BEBDBE;" d="M133.645,208.834c0.001-0.069,0.005-0.139,0.006-0.209
							C133.649,208.695,133.647,208.764,133.645,208.834z"/>
						<path style="fill:#BEBDBE;" d="M133.911,203.921c-0.006,0.069-0.011,0.139-0.017,0.208
							C133.901,204.06,133.904,203.99,133.911,203.921z"/>
					</g>
					<g>
						
							<linearGradient id="SVGID_00000034804398863444420680000011549832777313473209_" gradientUnits="userSpaceOnUse" x1="166.5028" y1="172.8665" x2="253.7164" y2="256.8944" gradientTransform="matrix(0.9985 0.0541 -0.0541 0.9985 11.7072 -7.3505)">
							<stop  offset="0" style="stop-color:#210440"/>
							<stop  offset="0.0544" style="stop-color:#1C1050"/>
							<stop  offset="0.1855" style="stop-color:#122A71"/>
							<stop  offset="0.3106" style="stop-color:#0A3D89"/>
							<stop  offset="0.4263" style="stop-color:#064898"/>
							<stop  offset="0.5232" style="stop-color:#044C9D"/>
							<stop  offset="0.7457" style="stop-color:#112C74"/>
							<stop  offset="1" style="stop-color:#210440"/>
						</linearGradient>
						<path style="fill:url(#SVGID_00000034804398863444420680000011549832777313473209_);" d="M315.385,221.72
							c-0.055,0.445-0.109,0.891-0.174,1.336c-0.074,0.618-0.168,1.224-0.262,1.83c-0.066,0.465-0.142,0.93-0.228,1.394
							c-0.109,0.697-0.238,1.393-0.378,2.079c-0.059,0.333-0.127,0.656-0.196,0.978c-0.442,2.147-0.954,4.259-1.546,6.336
							c-0.077,0.302-0.165,0.602-0.252,0.893c-0.1,0.351-0.201,0.692-0.311,1.033c-0.101,0.361-0.212,0.712-0.333,1.062
							c-0.159,0.491-0.318,0.981-0.487,1.472c-0.159,0.491-0.328,0.981-0.508,1.471c-0.338,0.97-0.706,1.928-1.084,2.886
							c-0.378,0.958-0.776,1.904-1.183,2.84c-0.174,0.398-0.348,0.786-0.522,1.174c-0.244,0.547-0.497,1.084-0.76,1.62
							c-0.219,0.467-0.437,0.924-0.666,1.38c-0.229,0.456-0.457,0.913-0.695,1.358c-0.239,0.456-0.477,0.902-0.715,1.357
							c-1.45,2.683-3.028,5.288-4.733,7.794c-0.266,0.393-0.542,0.796-0.818,1.178c-1.469,2.091-3.016,4.127-4.65,6.077
							c-0.317,0.39-0.643,0.77-0.979,1.149c-0.381,0.448-0.772,0.896-1.163,1.333c-0.282,0.311-0.564,0.622-0.845,0.922
							c-0.769,0.835-1.557,1.658-2.355,2.461c-0.442,0.445-0.884,0.89-1.345,1.323c-1.463,1.429-2.984,2.794-4.544,4.115
							c-0.417,0.354-0.843,0.708-1.27,1.052c-1.876,1.529-3.81,2.983-5.8,4.363c-0.35,0.246-0.709,0.481-1.069,0.727
							c-0.518,0.349-1.047,0.697-1.574,1.026c-0.486,0.31-0.971,0.62-1.466,0.919c-0.274,0.169-0.538,0.338-0.801,0.486
							c-0.285,0.178-0.579,0.346-0.864,0.514c-0.158,0.104-0.316,0.197-0.484,0.279c-0.778,0.447-1.556,0.884-2.343,1.31
							c-2.551,1.38-5.166,2.624-7.836,3.754c-0.542,0.225-1.074,0.451-1.616,0.667c-0.906,0.359-1.811,0.707-2.725,1.024
							c-0.728,0.277-1.466,0.532-2.202,0.778c-1.11,0.368-2.23,0.715-3.358,1.041c-0.559,0.163-1.128,0.326-1.697,0.479
							c-0.227,0.059-0.455,0.118-0.693,0.187c-0.155,0.043-0.31,0.085-0.465,0.117c-0.165,0.042-0.331,0.084-0.506,0.125
							c-0.589,0.152-1.178,0.293-1.766,0.424c-0.196,0.04-0.392,0.081-0.588,0.131c-1.186,0.262-2.37,0.493-3.564,0.714
							c-0.463,0.077-0.936,0.153-1.398,0.23c-0.925,0.154-1.85,0.297-2.784,0.42c-0.708,0.084-1.426,0.178-2.133,0.251
							c-0.687,0.075-1.373,0.14-2.069,0.194c-0.932,0.082-1.873,0.153-2.824,0.204c-0.46,0.026-0.919,0.042-1.389,0.057
							c-1.164,0.049-2.328,0.078-3.499,0.075c-0.234-0.002-0.468-0.005-0.703-0.008c-1.386-0.004-2.779-0.048-4.182-0.114
							l-0.254-0.014c-1.402-0.086-2.792-0.192-4.17-0.338c-0.233-0.023-0.466-0.046-0.7-0.068c-1.165-0.124-2.318-0.279-3.471-0.453
							c-0.465-0.066-0.92-0.131-1.375-0.207c-0.939-0.153-1.868-0.325-2.785-0.507c-0.686-0.129-1.361-0.267-2.036-0.416
							c-0.695-0.15-1.399-0.32-2.094-0.48c-0.915-0.223-1.819-0.465-2.723-0.718c-0.452-0.126-0.914-0.253-1.365-0.38
							c-1.163-0.348-2.316-0.706-3.467-1.095c-0.19-0.071-0.38-0.133-0.57-0.194c-0.57-0.194-1.14-0.398-1.709-0.612
							c-0.16-0.06-0.33-0.12-0.49-0.179c-0.15-0.049-0.3-0.108-0.449-0.167c-0.229-0.094-0.449-0.177-0.669-0.26
							c-0.549-0.213-1.097-0.436-1.635-0.659c-1.087-0.446-2.162-0.912-3.226-1.397c-0.795-0.369-1.59-0.749-2.364-1.137
							c-0.795-0.379-1.568-0.778-2.341-1.186c-0.515-0.272-1.02-0.555-1.534-0.837c-1.267-0.7-2.521-1.431-3.743-2.2
							c-0.404-0.246-0.809-0.502-1.202-0.758c-0.453-0.29-0.906-0.579-1.358-0.889c-1.259-0.843-2.496-1.705-3.701-2.605
							c-1.5-1.1-2.956-2.249-4.379-3.447c-0.321-0.282-0.653-0.555-0.974-0.837c-0.506-0.435-1.012-0.88-1.507-1.335
							c-0.428-0.38-0.855-0.77-1.272-1.169c-0.456-0.422-0.902-0.844-1.337-1.275c-0.377-0.377-0.764-0.755-1.131-1.131
							c-0.406-0.409-0.812-0.818-1.207-1.237c-1.986-2.085-3.866-4.255-5.639-6.511c-0.352-0.457-0.705-0.904-1.057-1.372
							c-0.352-0.457-0.694-0.914-1.026-1.38c-0.342-0.467-0.673-0.933-1.004-1.41c-0.331-0.466-0.662-0.943-0.973-1.418
							c-0.321-0.476-0.641-0.962-0.951-1.448c-1.251-1.933-2.427-3.912-3.53-5.949c-0.278-0.514-0.546-1.018-0.814-1.532
							c-0.194-0.377-0.387-0.755-0.581-1.132c-1.039-2.074-2.004-4.205-2.886-6.362c-0.198-0.48-0.387-0.948-0.565-1.427
							c-0.189-0.469-0.367-0.947-0.545-1.426c-1.111-3.005-2.075-6.094-2.863-9.235c-0.142-0.568-0.285-1.136-0.417-1.714
							c-0.141-0.599-0.271-1.207-0.401-1.815c-0.113-0.546-0.226-1.103-0.328-1.658c-0.111-0.587-0.222-1.174-0.322-1.76
							c-0.37-2.201-0.667-4.428-0.881-6.682c-0.033-0.328-0.066-0.656-0.089-0.993c-0.038-0.42-0.067-0.829-0.095-1.248
							c-0.036-0.471-0.071-0.941-0.086-1.421c-0.026-0.277-0.041-0.563-0.046-0.848c-0.055-1.063-0.079-2.124-0.092-3.195
							c-0.015-1.978,0.021-3.963,0.129-5.965c0.108-2.002,0.287-3.989,0.516-5.954c4.534-28.593,30.053-49.702,59.6-48.102
							c12.772,0.692,24.342,5.517,33.479,13.114c-14.565,9.656-24.532,25.839-25.549,44.626
							c-1.017,18.787,7.144,35.941,20.581,47.114c9.127,7.597,20.696,12.432,33.468,13.124
							C285.331,271.432,310.851,250.313,315.385,221.72z"/>
						
							<radialGradient id="SVGID_00000089554665100962035840000009241851541150848164_" cx="224.6847" cy="189.3224" r="83.1318" gradientTransform="matrix(0.9985 0.0541 -0.0541 0.9985 11.7072 -7.3505)" gradientUnits="userSpaceOnUse">
							<stop  offset="0" style="stop-color:#04969D"/>
							<stop  offset="0.0186" style="stop-color:#04999D"/>
							<stop  offset="0.3289" style="stop-color:#04B19D"/>
							<stop  offset="0.5607" style="stop-color:#058799"/>
							<stop  offset="0.854" style="stop-color:#065795"/>
							<stop  offset="1" style="stop-color:#074493"/>
						</radialGradient>
						<path style="fill:url(#SVGID_00000089554665100962035840000009241851541150848164_);" d="M315.9,215.776
							c-0.108,2.002-0.287,3.979-0.516,5.944c-4.534,28.593-30.053,49.712-59.601,48.112c-12.772-0.692-24.341-5.527-33.468-13.124
							c14.555-9.657,24.521-25.83,25.538-44.617c1.017-18.787-7.143-35.952-20.57-47.124c-9.137-7.598-20.707-12.422-33.479-13.114
							c-29.547-1.6-55.066,19.508-59.6,48.102c3.776-31.722,23.671-58.118,50.902-71.328c0.063-0.027,0.125-0.054,0.188-0.092
							c0.847-0.402,1.694-0.795,2.55-1.176c0.532-0.226,1.065-0.462,1.596-0.688c1.554-0.66,3.136-1.267,4.736-1.843
							c0.53-0.185,1.06-0.371,1.599-0.555c0.166-0.052,0.322-0.105,0.488-0.157c1.017-0.342,2.043-0.654,3.078-0.954
							c0.559-0.163,1.128-0.326,1.697-0.479c0.227-0.059,0.455-0.118,0.692-0.177c0.9-0.247,1.819-0.472,2.737-0.677l0.587-0.121
							c1.186-0.262,2.371-0.503,3.564-0.714c0.463-0.087,0.936-0.163,1.399-0.24c0.925-0.154,1.85-0.287,2.784-0.41
							c0.708-0.094,1.426-0.178,2.134-0.262c0.687-0.075,1.373-0.14,2.069-0.194c0.932-0.082,1.873-0.143,2.823-0.194
							c0.46-0.026,0.92-0.052,1.39-0.067c1.164-0.039,2.327-0.068,3.499-0.076c0.234,0.003,0.468,0.005,0.703,0.007
							c1.385,0.014,2.779,0.049,4.182,0.125l0.254,0.014c1.402,0.076,2.792,0.192,4.171,0.328c0.233,0.023,0.466,0.046,0.699,0.068
							c1.165,0.134,2.318,0.289,3.471,0.453c0.465,0.066,0.92,0.141,1.374,0.217c0.939,0.153,1.868,0.315,2.786,0.497
							c0.686,0.129,1.361,0.267,2.036,0.416c0.695,0.16,1.399,0.32,2.093,0.49c0.915,0.223,1.82,0.455,2.723,0.708
							c0.452,0.126,0.914,0.253,1.365,0.39c1.164,0.338,2.316,0.706,3.467,1.095l0.571,0.184c0.89,0.303,1.78,0.626,2.648,0.969
							c0.23,0.084,0.45,0.167,0.669,0.25c0.549,0.213,1.097,0.437,1.636,0.659c0.997,0.411,1.983,0.831,2.957,1.281
							c0.159,0.07,0.308,0.139,0.468,0.209c0.517,0.242,1.023,0.483,1.54,0.725c1.519,0.745,3.026,1.519,4.5,2.343
							c0.504,0.282,1.008,0.574,1.513,0.856c0.81,0.472,1.609,0.953,2.408,1.445c0.059,0.044,0.118,0.078,0.177,0.111
							c25.645,16.073,42.573,44.463,42.901,76.408C316.045,211.779,316.009,213.774,315.9,215.776z"/>
					</g>
					
						<radialGradient id="SVGID_00000008112479192420743440000010617846782370344885_" cx="224.403" cy="223.7128" r="83.1318" gradientTransform="matrix(0.9985 0.0541 -0.0541 0.9985 11.7072 -7.3505)" gradientUnits="userSpaceOnUse">
						<stop  offset="0" style="stop-color:#04969D"/>
						<stop  offset="0.2775" style="stop-color:#04B19D"/>
						<stop  offset="0.3911" style="stop-color:#04AA9C"/>
						<stop  offset="0.5511" style="stop-color:#05989B"/>
						<stop  offset="0.7387" style="stop-color:#067A98"/>
						<stop  offset="0.9456" style="stop-color:#075094"/>
						<stop  offset="1" style="stop-color:#074493"/>
					</radialGradient>
					<path style="fill:url(#SVGID_00000008112479192420743440000010617846782370344885_);" d="M315.279,222.045
						c-0.055,0.445-0.109,0.891-0.174,1.336c-0.074,0.618-0.168,1.224-0.262,1.83c-0.066,0.465-0.142,0.93-0.228,1.394
						c-0.109,0.697-0.238,1.393-0.378,2.079c-0.059,0.333-0.127,0.656-0.196,0.978c-0.442,2.147-0.954,4.259-1.546,6.336
						c-0.077,0.301-0.165,0.603-0.252,0.893c-0.1,0.351-0.201,0.692-0.311,1.033c-0.101,0.361-0.212,0.712-0.333,1.062
						c-0.159,0.491-0.318,0.982-0.487,1.472c-0.159,0.491-0.328,0.981-0.508,1.471c-0.338,0.97-0.706,1.928-1.084,2.886
						c-0.378,0.958-0.776,1.904-1.183,2.84c-0.175,0.398-0.348,0.786-0.522,1.174c-0.244,0.547-0.497,1.084-0.76,1.62
						c-0.219,0.467-0.348,0.989-0.576,1.445c-0.229,0.456-0.397,0.861-0.635,1.307c-0.239,0.456-0.489,0.981-0.728,1.437
						c-1.45,2.683-2.85,5.297-4.555,7.803c-0.266,0.393-0.565,0.775-0.84,1.157c-1.469,2.091-3.033,4.192-4.667,6.141
						c-0.317,0.391-0.634,0.76-0.971,1.139c-0.381,0.448-0.767,0.869-1.157,1.307c-0.282,0.311-0.54,0.614-0.821,0.915
						c-0.769,0.835-1.573,1.699-2.371,2.501c-0.442,0.445-0.864,0.873-1.325,1.307c-1.463,1.429-2.634,2.387-4.194,3.708
						c-0.417,0.354-1.353,1.062-1.779,1.406c-1.876,1.529-3.968,2.912-5.958,4.292c-0.35,0.246-0.709,0.481-1.069,0.727
						c-0.518,0.349-1.047,0.697-1.574,1.025c-0.486,0.31-0.971,0.62-1.466,0.919c-0.274,0.169-0.538,0.338-0.801,0.487
						c-0.285,0.178-0.579,0.346-0.864,0.514c-0.158,0.103-0.316,0.197-0.484,0.279c-0.778,0.447-1.556,0.884-2.343,1.31
						c-2.551,1.38-5.166,2.625-7.836,3.754c-0.542,0.225-1.074,0.451-1.616,0.667c-0.906,0.358-1.811,0.707-2.725,1.024
						c-0.728,0.277-1.466,0.532-2.202,0.777c-1.11,0.368-2.23,0.715-3.358,1.041c-0.559,0.163-1.129,0.326-1.697,0.479
						c-0.227,0.059-0.455,0.118-0.693,0.187c-0.155,0.043-0.31,0.085-0.465,0.117c-0.165,0.042-0.331,0.084-0.506,0.125
						c-0.589,0.152-1.178,0.293-1.766,0.424c-0.196,0.04-0.392,0.081-0.588,0.131c-1.186,0.262-2.37,0.493-3.564,0.714
						c-0.463,0.077-0.936,0.153-1.398,0.23c-0.925,0.154-1.85,0.297-2.784,0.42c-0.708,0.084-1.426,0.178-2.133,0.251
						c-0.687,0.075-1.373,0.14-2.069,0.194c-0.932,0.082-1.873,0.153-2.823,0.204c-0.46,0.026-0.92,0.042-1.389,0.057
						c-1.164,0.049-2.328,0.078-3.499,0.076c-0.234-0.003-0.468-0.005-0.703-0.008c-1.386-0.004-2.779-0.049-4.182-0.114
						l-0.254-0.014c-1.402-0.086-2.792-0.192-4.17-0.338c-0.233-0.023-0.466-0.046-0.699-0.068
						c-1.165-0.124-2.319-0.278-3.471-0.453c-0.465-0.066-0.92-0.131-1.375-0.207c-0.939-0.153-1.868-0.325-2.785-0.508
						c-0.686-0.129-1.361-0.267-2.036-0.416c-0.695-0.15-1.399-0.32-2.094-0.48c-0.915-0.223-1.819-0.465-2.723-0.718
						c-0.452-0.126-0.914-0.253-1.365-0.38c-1.163-0.348-2.316-0.706-3.467-1.095c-0.19-0.071-0.38-0.133-0.57-0.194
						c-0.57-0.194-1.14-0.398-1.709-0.612c-0.16-0.06-0.33-0.12-0.49-0.179c-0.15-0.049-0.3-0.108-0.45-0.167
						c-0.229-0.094-0.449-0.177-0.669-0.26c-0.549-0.213-1.097-0.436-1.636-0.659c-1.087-0.446-2.162-0.912-3.226-1.398
						c-0.795-0.369-1.59-0.748-2.364-1.137c-0.795-0.379-1.568-0.778-2.341-1.187c-0.515-0.272-1.02-0.555-1.534-0.837
						c-1.266-0.7-2.521-1.431-3.743-2.2c-0.404-0.246-0.808-0.502-1.202-0.758c-0.453-0.289-0.906-0.579-1.358-0.889
						c-1.259-0.843-2.496-1.704-3.701-2.605c-1.5-1.1-2.956-2.249-4.379-3.447c-0.321-0.282-0.653-0.555-0.974-0.837
						c-0.506-0.435-1.012-0.88-1.507-1.335c-0.428-0.38-0.855-0.77-1.272-1.169c-0.456-0.422-0.902-0.844-1.337-1.275
						c-0.377-0.377-0.764-0.755-1.131-1.131c-0.406-0.409-0.812-0.818-1.207-1.237c-1.986-2.085-3.866-4.255-5.639-6.511
						c-0.352-0.457-0.705-0.904-1.057-1.372c-0.352-0.457-0.694-0.914-1.026-1.38c-0.342-0.467-0.673-0.933-1.004-1.41
						c-0.331-0.466-0.662-0.943-0.973-1.418c-0.321-0.476-0.641-0.962-0.951-1.448c-1.251-1.933-2.427-3.912-3.53-5.949
						c-0.278-0.514-0.546-1.018-0.814-1.532c-0.194-0.377-0.387-0.755-0.581-1.132c-1.039-2.074-2.004-4.205-2.886-6.362
						c-0.198-0.479-0.387-0.948-0.565-1.427c-0.189-0.469-0.367-0.947-0.544-1.425c-1.111-3.005-2.075-6.094-2.863-9.235
						c-0.143-0.568-0.285-1.136-0.417-1.714c-0.141-0.599-0.271-1.207-0.401-1.815c-0.113-0.546-0.226-1.103-0.328-1.658
						c-0.111-0.587-0.222-1.174-0.322-1.76c-0.37-2.201-0.667-4.428-0.881-6.682c-0.033-0.328-0.066-0.656-0.089-0.993
						c-0.038-0.42-0.067-0.829-0.096-1.248c-0.036-0.471-0.071-0.941-0.086-1.421c-0.026-0.277-0.041-0.563-0.046-0.848
						c-0.055-1.063-0.079-2.124-0.092-3.195c-0.015-1.978,0.021-3.963,0.129-5.965c0.108-2.002,0.287-3.989,0.516-5.954
						c4.534-28.593,30.053-49.702,59.6-48.102c12.772,0.692,24.342,5.517,33.479,13.114c-14.565,9.657-24.277,25.902-25.295,44.689
						c-1.017,18.787,7.32,35.618,20.757,46.791c9.127,7.597,20.265,12.693,33.037,13.385
						C285.225,271.757,310.744,250.638,315.279,222.045z"/>
					
						<radialGradient id="SVGID_00000161602380629837886000000008307626459673868930_" cx="210.1116" cy="233.0152" r="73.4099" gradientUnits="userSpaceOnUse">
						<stop  offset="0.2765" style="stop-color:#074493"/>
						<stop  offset="0.31" style="stop-color:#075094"/>
						<stop  offset="0.4378" style="stop-color:#067A98"/>
						<stop  offset="0.5536" style="stop-color:#05989B"/>
						<stop  offset="0.6524" style="stop-color:#04AA9C"/>
						<stop  offset="0.7225" style="stop-color:#04B19D"/>
						<stop  offset="0.8541" style="stop-color:#074493"/>
						<stop  offset="0.8879" style="stop-color:#065F96"/>
						<stop  offset="0.9334" style="stop-color:#057D9A"/>
						<stop  offset="0.9723" style="stop-color:#048F9C"/>
						<stop  offset="1" style="stop-color:#04969D"/>
					</radialGradient>
					<path style="fill:url(#SVGID_00000161602380629837886000000008307626459673868930_);" d="M285.144,279.75
						c-1.885,1.538-3.828,3.001-5.827,4.389c-0.351,0.248-0.712,0.484-1.074,0.731c-0.521,0.351-1.052,0.702-1.581,1.032
						c-0.488,0.312-0.976,0.624-1.473,0.925c-0.275,0.17-0.541,0.34-0.805,0.489c-0.286,0.179-0.582,0.348-0.868,0.517
						c-0.159,0.104-0.318,0.198-0.486,0.281c-0.782,0.45-1.563,0.889-2.354,1.318c-2.563,1.388-5.19,2.64-7.873,3.776
						c-0.545,0.227-1.079,0.454-1.623,0.671c-0.91,0.361-1.82,0.711-2.738,1.03c-0.732,0.278-1.473,0.535-2.213,0.782
						c-1.116,0.37-2.24,0.719-3.374,1.047c-0.562,0.164-1.134,0.328-1.705,0.482c-0.228,0.059-0.457,0.119-0.696,0.188
						c-0.156,0.043-0.312,0.086-0.467,0.118c-0.166,0.042-0.332,0.085-0.508,0.126c-0.592,0.152-1.183,0.295-1.774,0.427
						c-0.197,0.041-0.394,0.081-0.591,0.132c-1.191,0.263-2.382,0.496-3.581,0.718c-0.465,0.077-0.94,0.154-1.405,0.231
						c-0.93,0.155-1.859,0.299-2.797,0.423c-0.711,0.085-1.433,0.179-2.143,0.253c-0.69,0.075-1.379,0.141-2.079,0.195
						c-0.936,0.082-1.882,0.154-2.837,0.205c-0.462,0.026-0.924,0.042-1.396,0.058c-1.17,0.049-2.338,0.078-3.516,0.076
						c-0.235-0.003-0.471-0.005-0.706-0.008c-1.392-0.004-2.792-0.049-4.202-0.115l-0.255-0.014
						c-1.408-0.087-2.805-0.193-4.189-0.34c-0.234-0.023-0.469-0.046-0.703-0.069c-1.171-0.125-2.329-0.28-3.487-0.455
						c-0.467-0.066-0.924-0.132-1.381-0.208c-0.944-0.154-1.876-0.327-2.798-0.51c-0.689-0.13-1.368-0.269-2.045-0.418
						c-0.698-0.151-1.406-0.322-2.103-0.483c-0.92-0.224-1.828-0.468-2.735-0.722c-0.454-0.127-0.918-0.255-1.372-0.382
						c-1.168-0.35-2.326-0.71-3.482-1.101c-0.191-0.072-0.382-0.133-0.573-0.195c-0.573-0.195-1.145-0.4-1.717-0.616
						c-0.161-0.06-0.331-0.121-0.492-0.181c-0.151-0.049-0.301-0.108-0.452-0.168c-0.23-0.094-0.451-0.178-0.672-0.262
						c-0.551-0.214-1.102-0.439-1.643-0.663c-1.092-0.449-2.172-0.917-3.241-1.406c-0.799-0.371-1.597-0.753-2.375-1.143
						c-0.798-0.382-1.575-0.782-2.352-1.193c-0.517-0.274-1.024-0.558-1.541-0.842c-1.272-0.704-2.533-1.439-3.76-2.213
						c-0.406-0.247-0.812-0.505-1.208-0.762c-0.455-0.291-0.91-0.582-1.364-0.894c-1.265-0.848-2.508-1.714-3.718-2.62
						c-1.506-1.107-2.969-2.262-4.399-3.467c-0.323-0.284-0.656-0.558-0.978-0.842c-0.509-0.438-1.017-0.885-1.514-1.343
						c-0.43-0.382-0.859-0.774-1.277-1.176c-0.458-0.425-0.906-0.849-1.343-1.282c-0.379-0.379-0.768-0.759-1.136-1.138
						c-0.408-0.412-0.815-0.823-1.212-1.245c-1.995-2.097-3.884-4.28-5.665-6.549c-0.354-0.46-0.708-0.91-1.062-1.38
						c-0.354-0.46-0.698-0.919-1.031-1.388c-0.343-0.47-0.676-0.939-1.008-1.418c-0.333-0.469-0.665-0.948-0.977-1.426
						c-0.322-0.479-0.644-0.968-0.955-1.456c-1.256-1.944-2.438-3.935-3.546-5.984c-0.279-0.517-0.549-1.024-0.818-1.541
						c-0.194-0.38-0.389-0.759-0.583-1.139c-1.044-2.086-2.013-4.23-2.899-6.4c-0.199-0.482-0.389-0.954-0.567-1.435
						c-0.189-0.472-0.368-0.953-0.547-1.434c-1.116-3.023-2.084-6.13-2.875-9.289c-0.143-0.572-0.286-1.143-0.418-1.724
						c-0.141-0.602-0.272-1.214-0.403-1.826c-0.114-0.549-0.227-1.109-0.329-1.668c-0.111-0.59-0.223-1.181-0.324-1.77
						c-0.372-2.214-0.67-4.454-0.885-6.721c-0.033-0.33-0.067-0.66-0.089-0.999c-0.038-0.422-0.067-0.834-0.096-1.256
						c-0.036-0.473-0.072-0.947-0.086-1.429c-0.026-0.278-0.041-0.566-0.046-0.853c-0.055-1.069-0.079-2.136-0.092-3.213
						c-0.015-1.989,0.021-3.986,0.13-6c0.109-2.013,0.289-4.013,0.519-5.989c2.026-12.786,11.142-25.754,20.004-34.219
						c-11.001,8.014-20.317,22.521-22.53,36.49c-0.23,1.976-0.41,3.976-0.519,5.989c-0.109,2.014-0.145,4.01-0.13,6
						c0.013,1.077,0.037,2.144,0.092,3.213c0.005,0.287,0.02,0.575,0.046,0.853c0.015,0.482,0.051,0.956,0.086,1.429
						c0.029,0.422,0.057,0.833,0.096,1.256c0.022,0.339,0.056,0.669,0.089,0.999c0.215,2.267,0.513,4.507,0.885,6.721
						c0.101,0.59,0.213,1.18,0.324,1.77c0.103,0.559,0.216,1.119,0.329,1.668c0.131,0.612,0.261,1.224,0.403,1.826
						c0.132,0.581,0.275,1.153,0.419,1.724c0.791,3.159,1.759,6.266,2.875,9.289c0.179,0.481,0.357,0.962,0.547,1.434
						c0.179,0.481,0.368,0.953,0.567,1.435c0.886,2.17,1.855,4.313,2.899,6.4c0.194,0.38,0.389,0.759,0.583,1.139
						c0.269,0.517,0.538,1.023,0.817,1.541c1.107,2.049,2.289,4.04,3.546,5.984c0.311,0.488,0.633,0.977,0.955,1.456
						c0.312,0.478,0.644,0.957,0.977,1.426c0.332,0.479,0.665,0.948,1.008,1.418c0.333,0.469,0.677,0.928,1.031,1.388
						c0.353,0.47,0.708,0.92,1.062,1.38c1.781,2.27,3.67,4.453,5.665,6.549c0.397,0.421,0.805,0.833,1.212,1.245
						c0.368,0.379,0.757,0.759,1.136,1.138c0.437,0.434,0.885,0.858,1.343,1.282c0.418,0.402,0.848,0.794,1.277,1.176
						c0.497,0.458,1.005,0.905,1.514,1.343c0.322,0.284,0.656,0.558,0.978,0.842c1.43,1.205,2.892,2.361,4.399,3.467
						c1.21,0.906,2.453,1.773,3.718,2.62c0.454,0.312,0.909,0.603,1.364,0.894c0.396,0.257,0.801,0.515,1.208,0.762
						c1.228,0.774,2.488,1.508,3.76,2.213c0.517,0.284,1.024,0.568,1.541,0.842c0.776,0.411,1.553,0.812,2.351,1.193
						c0.777,0.391,1.576,0.772,2.375,1.143c1.069,0.488,2.149,0.957,3.241,1.406c0.541,0.224,1.092,0.449,1.643,0.663
						c0.221,0.084,0.441,0.168,0.672,0.262c0.15,0.059,0.301,0.119,0.452,0.168c0.161,0.06,0.331,0.12,0.492,0.18
						c0.572,0.215,1.144,0.421,1.717,0.616c0.191,0.062,0.382,0.123,0.573,0.195c1.156,0.391,2.314,0.751,3.483,1.101
						c0.454,0.127,0.918,0.255,1.372,0.382c0.908,0.254,1.816,0.498,2.735,0.722c0.698,0.161,1.405,0.332,2.103,0.483
						c0.678,0.15,1.356,0.289,2.045,0.418c0.922,0.183,1.854,0.357,2.798,0.51c0.457,0.076,0.914,0.142,1.381,0.208
						c1.158,0.176,2.316,0.331,3.487,0.455c0.234,0.023,0.469,0.046,0.703,0.069c1.384,0.147,2.781,0.253,4.189,0.34l0.255,0.014
						c1.409,0.066,2.809,0.111,4.201,0.115c0.235,0.003,0.471,0.005,0.706,0.008c1.177,0.002,2.346-0.027,3.516-0.076
						c0.472-0.015,0.933-0.031,1.395-0.058c0.955-0.051,1.901-0.122,2.837-0.205c0.699-0.055,1.389-0.12,2.079-0.195
						c0.71-0.074,1.432-0.168,2.143-0.253c0.938-0.123,1.868-0.268,2.797-0.423c0.465-0.077,0.94-0.154,1.405-0.231
						c1.199-0.222,2.389-0.455,3.581-0.718c0.197-0.051,0.394-0.091,0.591-0.132c0.591-0.132,1.182-0.274,1.774-0.427
						c0.176-0.042,0.342-0.084,0.508-0.126c0.155-0.033,0.311-0.075,0.467-0.118c0.239-0.069,0.468-0.128,0.696-0.188
						c0.571-0.154,1.143-0.317,1.705-0.482c1.134-0.328,2.258-0.677,3.374-1.047c0.74-0.247,1.481-0.504,2.213-0.782
						c0.918-0.319,1.828-0.67,2.738-1.03c0.544-0.216,1.079-0.444,1.623-0.671c2.682-1.136,5.31-2.388,7.873-3.776
						c0.791-0.429,1.572-0.868,2.354-1.318c0.168-0.083,0.327-0.177,0.486-0.281c0.286-0.169,0.581-0.338,0.867-0.517
						c0.264-0.15,0.529-0.32,0.805-0.489c0.497-0.301,0.985-0.613,1.473-0.925c0.53-0.33,1.061-0.681,1.581-1.032
						c0.361-0.247,0.722-0.484,1.074-0.731c2-1.388,3.942-2.851,5.827-4.389c0.428-0.346,0.857-0.702,1.276-1.059
						c1.1-0.934,2.171-1.899,3.227-2.883c-0.234,0.203-0.463,0.412-0.7,0.612C286.001,279.048,285.573,279.404,285.144,279.75z"/>
					
						<radialGradient id="SVGID_00000179624922700122391020000013222305546775521932_" cx="201.6253" cy="200.2971" r="49.4137" gradientUnits="userSpaceOnUse">
						<stop  offset="0" style="stop-color:#074493"/>
						<stop  offset="0.0544" style="stop-color:#075094"/>
						<stop  offset="0.2613" style="stop-color:#067A98"/>
						<stop  offset="0.4489" style="stop-color:#05989B"/>
						<stop  offset="0.6089" style="stop-color:#04AA9C"/>
						<stop  offset="0.7225" style="stop-color:#04B19D"/>
						<stop  offset="1" style="stop-color:#04969D"/>
					</radialGradient>
					<path style="fill:url(#SVGID_00000179624922700122391020000013222305546775521932_);" d="M249.865,210.138
						c1.017-18.787-7.143-35.952-20.57-47.124c-9.137-7.597-20.707-12.423-33.479-13.114c-16.412-0.889-31.496,5.538-42.516,16.052
						c10.759-9.121,24.804-14.619,40.001-13.796c12.772,0.692,24.342,5.517,33.479,13.114c13.427,11.172,21.588,28.337,20.57,47.124
						c-0.823,15.192-7.5,28.671-17.721,38.38C241.263,240.955,248.977,226.544,249.865,210.138z"/>
					<g>
						
							<linearGradient id="SVGID_00000111190481557681921460000001345380532091332254_" gradientUnits="userSpaceOnUse" x1="150.6154" y1="192.7877" x2="317.3506" y2="192.7877">
							<stop  offset="0" style="stop-color:#210440"/>
							<stop  offset="0.1494" style="stop-color:#171E61"/>
							<stop  offset="0.3262" style="stop-color:#0D3782"/>
							<stop  offset="0.4741" style="stop-color:#064696"/>
							<stop  offset="0.574" style="stop-color:#044C9D"/>
							<stop  offset="0.6521" style="stop-color:#074493"/>
							<stop  offset="0.7852" style="stop-color:#102F78"/>
							<stop  offset="0.9562" style="stop-color:#1D0E4C"/>
							<stop  offset="1" style="stop-color:#210440"/>
						</linearGradient>
						<path style="fill:url(#SVGID_00000111190481557681921460000001345380532091332254_);" d="M317.215,215.314
							c2.728-50.368-36.127-93.424-86.785-96.167c-32.637-1.767-62.184,13.646-79.815,38.297
							c17.855-22.626,46.135-36.532,77.222-34.848c50.657,2.743,89.512,45.799,86.785,96.167
							c-0.971,17.922-7.284,34.193-17.028,47.804C308.844,252.322,316.161,234.778,317.215,215.314z"/>
					</g>
				</g>
				<g>
					
						<radialGradient id="SVGID_00000020372910309324611430000010467757062264149135_" cx="267.3536" cy="252.4053" r="34.7105" gradientUnits="userSpaceOnUse">
						<stop  offset="0" style="stop-color:#04969D"/>
						<stop  offset="0.2775" style="stop-color:#04B19D"/>
						<stop  offset="0.3911" style="stop-color:#04AA9C"/>
						<stop  offset="0.5511" style="stop-color:#05989B"/>
						<stop  offset="0.7387" style="stop-color:#067A98"/>
						<stop  offset="0.9456" style="stop-color:#075094"/>
						<stop  offset="1" style="stop-color:#074493"/>
					</radialGradient>
					<path style="fill:url(#SVGID_00000020372910309324611430000010467757062264149135_);" d="M222.441,256.549
						c3.462,2.885,7.316,5.264,11.349,7.222c4.027,1.975,8.264,3.508,12.618,4.525c4.361,0.966,8.815,1.555,13.281,1.474
						c4.461-0.05,8.912-0.646,13.235-1.747c1.083-0.266,2.148-0.6,3.224-0.897c1.069-0.321,2.115-0.714,3.174-1.067
						c2.093-0.816,4.171-1.573,6.094-2.695c3.893-2.176,7.505-4.857,10.866-7.805c3.35-2.965,6.412-6.27,9.071-9.883
						c1.345-1.795,2.601-3.659,3.756-5.588c1.137-1.939,2.187-3.93,3.158-5.965c-1.68,4.185-3.86,8.175-6.432,11.901
						c-2.591,3.714-5.607,7.134-8.929,10.225c-3.32,3.098-7.01,5.794-10.955,8.068c-0.994,0.549-1.998,1.116-3.073,1.538
						c-1.053,0.424-2.091,0.89-3.158,1.28c-1.075,0.369-2.137,0.777-3.224,1.113c-1.095,0.306-2.174,0.673-3.284,0.927
						c-8.83,2.18-18.213,2.286-27.02,0.001C237.413,266.891,229.115,262.627,222.441,256.549z"/>
				</g>
			</g>
		</g>
		<g>
			<text transform="matrix(1.004 0 0 1 149.4993 383.3398)"><tspan x="0" y="0" style="fill:#101856; font-family:'Montserrat-Bold'; font-size:23.2575px;">COMPANY</tspan><tspan x="128.24" y="0" style="fill:#101856; font-family:'Montserrat-Regular'; font-size:23.2575px;">NAME</tspan></text>
			<g>
				
					<text transform="matrix(1.004 0 0 1 183.9465 396.8496)" style="fill:#101856; font-family:'Montserrat-Regular'; font-size:11.8818px;">sample text goes here</text>
			</g>
		</g>
	</g>
</g>
<g id="DESIGNED_BY_FREEPIK">
	<g>
		<g id="XMLID_29_">
			<g id="XMLID_48_">
				<path id="XMLID_56_" style="fill:#272724;" d="M260.104,471.477c-0.432,0.443-0.803,0.931-1.108,1.453l-0.465-0.241
					c-0.067-0.298-0.349-0.503-0.659-0.466c-0.331,0.039-0.568,0.339-0.529,0.67c0.039,0.331,0.339,0.568,0.67,0.529
					c0.066-0.008,0.127-0.026,0.184-0.052l0.451,0.234c-0.251,0.554-0.433,1.139-0.539,1.744l0.747,0.132
					c0.23-1.306,0.85-2.507,1.792-3.473L260.104,471.477z"/>
				<path id="XMLID_55_" style="fill:#272724;" d="M265.592,469.175c-0.171,0-0.341,0.006-0.51,0.017l-0.074-0.626
					c0.188-0.149,0.296-0.389,0.266-0.645c-0.046-0.393-0.402-0.674-0.795-0.628c-0.393,0.046-0.674,0.402-0.628,0.795
					c0.03,0.254,0.189,0.461,0.404,0.564l0.074,0.624c-0.714,0.116-1.403,0.332-2.06,0.646l0.327,0.684
					c0.934-0.447,1.942-0.673,2.995-0.673c0.496,0,0.993,0.053,1.475,0.158l0.161-0.741
					C266.692,469.234,266.142,469.175,265.592,469.175z"/>
				<path id="XMLID_54_" style="fill:#272724;" d="M272.194,471.723c0.331-0.04,0.566-0.341,0.526-0.672
					c-0.04-0.331-0.341-0.566-0.672-0.526c-0.309,0.038-0.535,0.304-0.53,0.609l-0.416,0.363c-0.418-0.43-0.889-0.813-1.408-1.139
					l-0.404,0.641c1.134,0.715,2.021,1.726,2.563,2.925l0.69-0.313c-0.251-0.554-0.567-1.072-0.942-1.545l0.402-0.351
					C272.065,471.727,272.129,471.731,272.194,471.723z"/>
				<path id="XMLID_53_" style="fill:#272724;" d="M265.044,479.384c-0.386,0.023-0.775,0.035-1.157,0.035
					c-0.88,0-1.733-0.061-2.478-0.179c-0.39-0.062-0.846-0.155-1.27-0.292c1.046,1.861,3.069,3.125,5.388,3.125
					c2.855,0,5.262-1.916,5.95-4.504c-0.682,0.449-1.505,0.825-2.459,1.123C267.839,479.059,266.463,479.298,265.044,479.384z"/>
				<path id="XMLID_49_" style="fill:#272724;" d="M265.592,470.691c-3.352,0-6.08,2.666-6.08,5.943
					c0,0.426,0.046,0.849,0.137,1.261c0.673,0.483,2.706,0.89,5.348,0.731c2.879-0.173,5.297-0.957,6.672-2.159
					c-0.006-0.195-0.021-0.39-0.045-0.582C271.244,472.925,268.65,470.691,265.592,470.691z M263.432,477.206
					c-1.02,0-1.85-0.83-1.85-1.85c0-1.02,0.83-1.85,1.85-1.85c1.02,0,1.85,0.83,1.85,1.85
					C265.282,476.376,264.452,477.206,263.432,477.206z M268.17,476.298c-0.75,0-1.36-0.61-1.36-1.36s0.61-1.361,1.36-1.361
					c0.75,0,1.361,0.61,1.361,1.361S268.92,476.298,268.17,476.298z"/>
			</g>
			<path id="XMLID_46_" style="fill:#272724;" d="M281.595,472.559c-0.295-0.116-0.805-0.309-1.382-0.237
				c-0.551,0.069-0.844,0.341-0.844,1.007v0.866h2.228v1.717h-2.228v5.455h-1.932v-5.455h-1.34v-1.717h1.34v-0.888
				c0-1.68,0.896-2.783,2.568-2.783c0.643,0,1.157,0.122,1.59,0.308L281.595,472.559z"/>
			<path id="XMLID_44_" style="fill:#272724;" d="M286.298,475.891c-0.177-0.03-0.358-0.046-0.526-0.046
				c-0.896,0-1.51,0.548-1.51,1.613v3.908h-1.932v-7.172h1.873v0.785c0.451-0.673,1.14-0.977,2.021-0.977
				c0.414,0,0.848,0.128,1.094,0.337L286.298,475.891z"/>
			<path id="XMLID_41_" style="fill:#272724;" d="M293.965,477.769c0,0.222-0.015,0.489-0.037,0.651h-5.085
				c0.207,1.036,0.933,1.488,1.843,1.488c0.622,0,1.295-0.252,1.813-0.688l1.133,1.243c-0.814,0.748-1.85,1.088-3.057,1.088
				c-2.198,0-3.723-1.495-3.723-3.753c0-2.258,1.48-3.797,3.627-3.797C292.544,474.001,293.958,475.534,293.965,477.769z
				 M288.851,477.103h3.175c-0.177-0.918-0.733-1.436-1.562-1.436C289.554,475.667,289.021,476.215,288.851,477.103z"/>
			<path id="XMLID_38_" style="fill:#272724;" d="M301.618,477.769c0,0.222-0.015,0.489-0.037,0.651h-5.085
				c0.207,1.036,0.933,1.488,1.843,1.488c0.622,0,1.295-0.252,1.814-0.688l1.132,1.243c-0.814,0.748-1.85,1.088-3.057,1.088
				c-2.198,0-3.723-1.495-3.723-3.753c0-2.258,1.48-3.797,3.627-3.797C300.197,474.001,301.611,475.534,301.618,477.769z
				 M296.504,477.103h3.175c-0.178-0.918-0.733-1.436-1.562-1.436C297.207,475.667,296.674,476.215,296.504,477.103z"/>
			<path id="XMLID_35_" style="fill:#272724;" d="M309.964,477.776c0,2.154-1.495,3.775-3.471,3.775
				c-0.962,0-1.643-0.378-2.109-0.933v3.708h-1.924v-10.133h1.887v0.792c0.466-0.585,1.155-0.984,2.139-0.984
				C308.469,474.001,309.964,475.622,309.964,477.776z M304.287,477.776c0,1.132,0.748,1.976,1.843,1.976
				c1.14,0,1.85-0.881,1.85-1.976c0-1.095-0.71-1.976-1.85-1.976C305.035,475.8,304.287,476.644,304.287,477.776z"/>
			<path id="XMLID_32_" style="fill:#272724;" d="M313.068,471.848c0,0.696-0.54,1.229-1.236,1.229
				c-0.696,0-1.229-0.533-1.229-1.229c0-0.696,0.533-1.243,1.229-1.243C312.527,470.604,313.068,471.152,313.068,471.848z
				 M312.809,481.366h-1.932v-7.172h1.932V481.366z"/>
			<path id="XMLID_30_" style="fill:#272724;" d="M316.032,476.747l2.701-2.554h2.368l-3.479,3.375l3.501,3.797h-2.376l-2.716-2.901
				v2.901H314.1v-10.658h1.932V476.747z"/>
		</g>
		<g>
			<path style="fill:#272724;" d="M184.412,481.301v-1.055c-0.527,0.718-1.391,1.23-2.387,1.23c-1.846,0-3.149-1.406-3.149-3.706
				c0-2.256,1.289-3.721,3.149-3.721c0.952,0,1.816,0.469,2.387,1.245v-3.765h1.099v9.77H184.412z M184.412,479.382v-3.208
				c-0.395-0.615-1.245-1.143-2.124-1.143c-1.421,0-2.27,1.172-2.27,2.739c0,1.567,0.85,2.724,2.27,2.724
				C183.168,480.495,184.017,479.997,184.412,479.382z"/>
			<path style="fill:#272724;" d="M186.932,477.756c0-2.051,1.465-3.706,3.486-3.706c2.139,0,3.398,1.67,3.398,3.794v0.279h-5.727
				c0.088,1.333,1.025,2.446,2.549,2.446c0.805,0,1.626-0.322,2.182-0.894l0.527,0.718c-0.703,0.703-1.655,1.084-2.812,1.084
				C188.44,481.477,186.932,479.968,186.932,477.756z M190.403,474.958c-1.509,0-2.256,1.274-2.314,2.358h4.643
				C192.718,476.262,192.015,474.958,190.403,474.958z"/>
			<path style="fill:#272724;" d="M194.607,480.363l0.571-0.791c0.469,0.542,1.362,1.011,2.329,1.011c1.084,0,1.67-0.513,1.67-1.216
				c0-1.714-4.38-0.659-4.38-3.281c0-1.098,0.952-2.036,2.636-2.036c1.201,0,2.051,0.454,2.622,1.026l-0.513,0.762
				c-0.424-0.513-1.201-0.894-2.109-0.894c-0.967,0-1.567,0.483-1.567,1.113c0,1.552,4.38,0.527,4.38,3.281
				c0,1.187-0.952,2.138-2.783,2.138C196.306,481.477,195.325,481.125,194.607,480.363z"/>
			<path style="fill:#272724;" d="M201.477,472.483c0-0.41,0.337-0.747,0.732-0.747c0.41,0,0.747,0.337,0.747,0.747
				c0,0.41-0.337,0.732-0.747,0.732C201.814,473.215,201.477,472.893,201.477,472.483z M201.667,481.301v-7.075h1.099v7.075H201.667
				z"/>
			<path style="fill:#272724;" d="M204.582,483.117l0.556-0.82c0.586,0.703,1.289,0.967,2.3,0.967c1.172,0,2.27-0.571,2.27-2.124
				v-1.011c-0.513,0.718-1.377,1.26-2.373,1.26c-1.845,0-3.149-1.377-3.149-3.662c0-2.27,1.289-3.677,3.149-3.677
				c0.952,0,1.802,0.469,2.373,1.245v-1.069h1.098v6.87c0,2.344-1.641,3.076-3.369,3.076
				C206.237,484.172,205.417,483.937,204.582,483.117z M209.709,479.265v-3.091c-0.381-0.615-1.23-1.143-2.109-1.143
				c-1.421,0-2.27,1.128-2.27,2.695c0,1.553,0.849,2.695,2.27,2.695C208.478,480.422,209.328,479.88,209.709,479.265z"/>
			<path style="fill:#272724;" d="M217.413,481.301v-4.629c0-1.245-0.63-1.641-1.582-1.641c-0.865,0-1.685,0.527-2.095,1.099v5.17
				h-1.099v-7.075h1.099v1.025c0.498-0.586,1.464-1.201,2.519-1.201c1.48,0,2.256,0.747,2.256,2.285v4.966H217.413z"/>
			<path style="fill:#272724;" d="M219.932,477.756c0-2.051,1.465-3.706,3.486-3.706c2.139,0,3.398,1.67,3.398,3.794v0.279h-5.727
				c0.088,1.333,1.025,2.446,2.549,2.446c0.806,0,1.626-0.322,2.183-0.894l0.527,0.718c-0.703,0.703-1.655,1.084-2.812,1.084
				C221.441,481.477,219.932,479.968,219.932,477.756z M223.404,474.958c-1.509,0-2.256,1.274-2.314,2.358h4.643
				C225.718,476.262,225.015,474.958,223.404,474.958z"/>
			<path style="fill:#272724;" d="M233.35,481.301v-1.055c-0.527,0.718-1.392,1.23-2.388,1.23c-1.846,0-3.149-1.406-3.149-3.706
				c0-2.256,1.289-3.721,3.149-3.721c0.952,0,1.817,0.469,2.388,1.245v-3.765h1.098v9.77H233.35z M233.35,479.382v-3.208
				c-0.396-0.615-1.245-1.143-2.124-1.143c-1.421,0-2.27,1.172-2.27,2.739c0,1.567,0.849,2.724,2.27,2.724
				C232.105,480.495,232.954,479.997,233.35,479.382z"/>
			<path style="fill:#272724;" d="M239.692,481.301v-9.77h1.098v3.765c0.572-0.776,1.421-1.245,2.388-1.245
				c1.845,0,3.149,1.465,3.149,3.721c0,2.299-1.304,3.706-3.149,3.706c-0.996,0-1.86-0.513-2.388-1.23v1.055H239.692z
				 M242.9,480.495c1.436,0,2.285-1.157,2.285-2.724c0-1.568-0.85-2.739-2.285-2.739c-0.864,0-1.728,0.527-2.109,1.143v3.208
				C241.171,479.997,242.036,480.495,242.9,480.495z"/>
			<path style="fill:#272724;" d="M247.528,483.073c0.161,0.073,0.425,0.117,0.601,0.117c0.483,0,0.805-0.161,1.055-0.747
				l0.469-1.069l-2.959-7.148h1.187l2.358,5.8l2.344-5.8h1.201l-3.545,8.51c-0.425,1.025-1.143,1.421-2.08,1.435
				c-0.234,0-0.601-0.044-0.805-0.103L247.528,483.073z"/>
		</g>
	</g>
</g>
</svg>
